solid LeftShin
  facet normal 0.000000e+00 -9.962914e-01 8.604335e-02
    outer loop
      vertex 1.915336e-01 -1.436645e-01 1.340942e-01
      vertex -4.845503e+00 -5.773294e+00 -6.505109e+01
      vertex 5.228570e+00 -5.773294e+00 -6.505109e+01
    endloop
  endfacet
  facet normal 9.970278e-01 0.000000e+00 7.704306e-02
    outer loop
      vertex 1.915336e-01 -1.436645e-01 1.340942e-01
      vertex 5.228570e+00 -5.773294e+00 -6.505109e+01
      vertex 5.228570e+00 5.485965e+00 -6.505109e+01
    endloop
  endfacet
  facet normal 0.000000e+00 9.962914e-01 8.604335e-02
    outer loop
      vertex 1.915336e-01 -1.436645e-01 1.340942e-01
      vertex 5.228570e+00 5.485965e+00 -6.505109e+01
      vertex -4.845503e+00 5.485965e+00 -6.505109e+01
    endloop
  endfacet
  facet normal -9.970278e-01 0.000000e+00 7.704306e-02
    outer loop
      vertex 1.915336e-01 -1.436645e-01 1.340942e-01
      vertex -4.845503e+00 5.485965e+00 -6.505109e+01
      vertex -4.845503e+00 -5.773294e+00 -6.505109e+01
    endloop
  endfacet
  facet normal -0.000000e+00 0.000000e+00 -1.000000e+00
    outer loop
      vertex -4.845503e+00 -5.773294e+00 -6.505109e+01
      vertex 1.915336e-01 -1.436645e-01 -6.505109e+01
      vertex 5.228570e+00 -5.773294e+00 -6.505109e+01
    endloop
  endfacet
  facet normal 0.000000e+00 0.000000e+00 -1.000000e+00
    outer loop
      vertex 5.228570e+00 -5.773294e+00 -6.505109e+01
      vertex 1.915336e-01 -1.436645e-01 -6.505109e+01
      vertex 5.228570e+00 5.485965e+00 -6.505109e+01
    endloop
  endfacet
  facet normal 0.000000e+00 0.000000e+00 -1.000000e+00
    outer loop
      vertex 5.228570e+00 5.485965e+00 -6.505109e+01
      vertex 1.915336e-01 -1.436645e-01 -6.505109e+01
      vertex -4.845503e+00 5.485965e+00 -6.505109e+01
    endloop
  endfacet
  facet normal 0.000000e+00 0.000000e+00 -1.000000e+00
    outer loop
      vertex -4.845503e+00 5.485965e+00 -6.505109e+01
      vertex 1.915336e-01 -1.436645e-01 -6.505109e+01
      vertex -4.845503e+00 -5.773294e+00 -6.505109e+01
    endloop
  endfacet
endsolid LeftShin
