solid Exported from Blender-3.2.0
facet normal 0.382683 0.923879 0.000000
outer loop
vertex 0.000000 1.500000 -2.000000
vertex 0.000000 1.500000 0.000000
vertex 1.060660 1.060660 0.000000
endloop
endfacet
facet normal 0.382683 0.923879 0.000000
outer loop
vertex 0.000000 1.500000 -2.000000
vertex 1.060660 1.060660 0.000000
vertex 1.060660 1.060660 -2.000000
endloop
endfacet
facet normal 0.923880 0.382683 0.000000
outer loop
vertex 1.060660 1.060660 -2.000000
vertex 1.060660 1.060660 0.000000
vertex 1.500000 -0.000000 0.000000
endloop
endfacet
facet normal 0.923880 0.382683 0.000000
outer loop
vertex 1.060660 1.060660 -2.000000
vertex 1.500000 -0.000000 0.000000
vertex 1.500000 -0.000000 -2.000000
endloop
endfacet
facet normal 0.923880 -0.382684 0.000000
outer loop
vertex 1.500000 -0.000000 -2.000000
vertex 1.500000 -0.000000 0.000000
vertex 1.060660 -1.060660 0.000000
endloop
endfacet
facet normal 0.923880 -0.382684 0.000000
outer loop
vertex 1.500000 -0.000000 -2.000000
vertex 1.060660 -1.060660 0.000000
vertex 1.060660 -1.060660 -2.000000
endloop
endfacet
facet normal 0.382683 -0.923880 0.000000
outer loop
vertex 1.060660 -1.060660 -2.000000
vertex 1.060660 -1.060660 0.000000
vertex -0.000000 -1.500000 0.000000
endloop
endfacet
facet normal 0.382683 -0.923880 0.000000
outer loop
vertex 1.060660 -1.060660 -2.000000
vertex -0.000000 -1.500000 0.000000
vertex -0.000000 -1.500000 -2.000000
endloop
endfacet
facet normal -0.382683 -0.923880 0.000000
outer loop
vertex -0.000000 -1.500000 -2.000000
vertex -0.000000 -1.500000 0.000000
vertex -1.060660 -1.060660 0.000000
endloop
endfacet
facet normal -0.382683 -0.923880 0.000000
outer loop
vertex -0.000000 -1.500000 -2.000000
vertex -1.060660 -1.060660 0.000000
vertex -1.060660 -1.060660 -2.000000
endloop
endfacet
facet normal -0.923880 -0.382683 0.000000
outer loop
vertex -1.060660 -1.060660 -2.000000
vertex -1.060660 -1.060660 0.000000
vertex -1.500000 0.000000 0.000000
endloop
endfacet
facet normal -0.923880 -0.382683 0.000000
outer loop
vertex -1.060660 -1.060660 -2.000000
vertex -1.500000 0.000000 0.000000
vertex -1.500000 0.000000 -2.000000
endloop
endfacet
facet normal 0.000000 0.000000 1.000000
outer loop
vertex 1.500000 -0.000000 0.000000
vertex 1.060660 1.060660 0.000000
vertex 0.000000 1.500000 0.000000
endloop
endfacet
facet normal 0.000000 0.000000 1.000000
outer loop
vertex 0.000000 1.500000 0.000000
vertex -1.060660 1.060660 0.000000
vertex -1.500000 0.000000 0.000000
endloop
endfacet
facet normal 0.000000 0.000000 1.000000
outer loop
vertex -1.500000 0.000000 0.000000
vertex -1.060660 -1.060660 0.000000
vertex -0.000000 -1.500000 0.000000
endloop
endfacet
facet normal 0.000000 0.000000 1.000000
outer loop
vertex -0.000000 -1.500000 0.000000
vertex 1.060660 -1.060660 0.000000
vertex 1.500000 -0.000000 0.000000
endloop
endfacet
facet normal 0.000000 0.000000 1.000000
outer loop
vertex 1.500000 -0.000000 0.000000
vertex 0.000000 1.500000 0.000000
vertex -1.500000 0.000000 0.000000
endloop
endfacet
facet normal 0.000000 0.000000 1.000000
outer loop
vertex -1.500000 0.000000 0.000000
vertex -0.000000 -1.500000 0.000000
vertex 1.500000 -0.000000 0.000000
endloop
endfacet
facet normal -0.923880 0.382683 0.000000
outer loop
vertex -1.500000 0.000000 -2.000000
vertex -1.500000 0.000000 0.000000
vertex -1.060660 1.060660 0.000000
endloop
endfacet
facet normal -0.923880 0.382683 0.000000
outer loop
vertex -1.500000 0.000000 -2.000000
vertex -1.060660 1.060660 0.000000
vertex -1.060660 1.060660 -2.000000
endloop
endfacet
facet normal -0.382683 0.923880 0.000000
outer loop
vertex -1.060660 1.060660 -2.000000
vertex -1.060660 1.060660 0.000000
vertex 0.000000 1.500000 0.000000
endloop
endfacet
facet normal -0.382683 0.923880 0.000000
outer loop
vertex -1.060660 1.060660 -2.000000
vertex 0.000000 1.500000 0.000000
vertex 0.000000 1.500000 -2.000000
endloop
endfacet
facet normal 0.000000 0.000000 -1.000000
outer loop
vertex -1.060660 1.060660 -2.000000
vertex 0.000000 1.500000 -2.000000
vertex 1.060660 1.060660 -2.000000
endloop
endfacet
facet normal 0.000000 0.000000 -1.000000
outer loop
vertex 1.060660 1.060660 -2.000000
vertex 1.500000 -0.000000 -2.000000
vertex 1.060660 -1.060660 -2.000000
endloop
endfacet
facet normal 0.000000 0.000000 -1.000000
outer loop
vertex 1.060660 -1.060660 -2.000000
vertex -0.000000 -1.500000 -2.000000
vertex -1.060660 -1.060660 -2.000000
endloop
endfacet
facet normal 0.000000 0.000000 -1.000000
outer loop
vertex -1.060660 -1.060660 -2.000000
vertex -1.500000 0.000000 -2.000000
vertex -1.060660 1.060660 -2.000000
endloop
endfacet
facet normal 0.000000 0.000000 -1.000000
outer loop
vertex -1.060660 1.060660 -2.000000
vertex 1.060660 1.060660 -2.000000
vertex 1.060660 -1.060660 -2.000000
endloop
endfacet
facet normal 0.000000 0.000000 -1.000000
outer loop
vertex 1.060660 -1.060660 -2.000000
vertex -1.060660 -1.060660 -2.000000
vertex -1.060660 1.060660 -2.000000
endloop
endfacet
endsolid Exported from Blender-3.2.0
