solid Exported from Blender-3.2.0
facet normal 0.382683 0.923880 0.000000
outer loop
vertex 0.000000 2.100000 -2.200000
vertex 0.000000 2.100000 0.000000
vertex 1.484924 1.484924 0.000000
endloop
endfacet
facet normal 0.382683 0.923880 0.000000
outer loop
vertex 0.000000 2.100000 -2.200000
vertex 1.484924 1.484924 0.000000
vertex 1.484924 1.484924 -2.200000
endloop
endfacet
facet normal 0.923880 0.382683 0.000000
outer loop
vertex 1.484924 1.484924 -2.200000
vertex 1.484924 1.484924 0.000000
vertex 2.100000 -0.000000 0.000000
endloop
endfacet
facet normal 0.923880 0.382683 0.000000
outer loop
vertex 1.484924 1.484924 -2.200000
vertex 2.100000 -0.000000 0.000000
vertex 2.100000 -0.000000 -2.200000
endloop
endfacet
facet normal 0.923880 -0.382683 0.000000
outer loop
vertex 2.100000 -0.000000 -2.200000
vertex 2.100000 -0.000000 0.000000
vertex 1.484924 -1.484924 0.000000
endloop
endfacet
facet normal 0.923880 -0.382684 0.000000
outer loop
vertex 2.100000 -0.000000 -2.200000
vertex 1.484924 -1.484924 0.000000
vertex 1.484924 -1.484924 -2.200000
endloop
endfacet
facet normal 0.382683 -0.923880 0.000000
outer loop
vertex 1.484924 -1.484924 -2.200000
vertex 1.484924 -1.484924 0.000000
vertex -0.000000 -2.100000 0.000000
endloop
endfacet
facet normal 0.382683 -0.923880 0.000000
outer loop
vertex 1.484924 -1.484924 -2.200000
vertex -0.000000 -2.100000 0.000000
vertex -0.000000 -2.100000 -2.200000
endloop
endfacet
facet normal -0.382683 -0.923880 0.000000
outer loop
vertex -0.000000 -2.100000 -2.200000
vertex -0.000000 -2.100000 0.000000
vertex -1.484924 -1.484924 0.000000
endloop
endfacet
facet normal -0.382683 -0.923880 0.000000
outer loop
vertex -0.000000 -2.100000 -2.200000
vertex -1.484924 -1.484924 0.000000
vertex -1.484924 -1.484924 -2.200000
endloop
endfacet
facet normal -0.923880 -0.382683 0.000000
outer loop
vertex -1.484924 -1.484924 -2.200000
vertex -1.484924 -1.484924 0.000000
vertex -2.100000 0.000000 0.000000
endloop
endfacet
facet normal -0.923880 -0.382683 0.000000
outer loop
vertex -1.484924 -1.484924 -2.200000
vertex -2.100000 0.000000 0.000000
vertex -2.100000 0.000000 -2.200000
endloop
endfacet
facet normal 0.000000 0.000000 1.000000
outer loop
vertex 2.100000 -0.000000 0.000000
vertex 1.484924 1.484924 0.000000
vertex 0.000000 2.100000 0.000000
endloop
endfacet
facet normal 0.000000 0.000000 1.000000
outer loop
vertex 0.000000 2.100000 0.000000
vertex -1.484924 1.484924 0.000000
vertex -2.100000 0.000000 0.000000
endloop
endfacet
facet normal 0.000000 0.000000 1.000000
outer loop
vertex -2.100000 0.000000 0.000000
vertex -1.484924 -1.484924 0.000000
vertex -0.000000 -2.100000 0.000000
endloop
endfacet
facet normal 0.000000 0.000000 1.000000
outer loop
vertex -0.000000 -2.100000 0.000000
vertex 1.484924 -1.484924 0.000000
vertex 2.100000 -0.000000 0.000000
endloop
endfacet
facet normal 0.000000 0.000000 1.000000
outer loop
vertex 2.100000 -0.000000 0.000000
vertex 0.000000 2.100000 0.000000
vertex -2.100000 0.000000 0.000000
endloop
endfacet
facet normal 0.000000 0.000000 1.000000
outer loop
vertex -2.100000 0.000000 0.000000
vertex -0.000000 -2.100000 0.000000
vertex 2.100000 -0.000000 0.000000
endloop
endfacet
facet normal -0.923880 0.382683 0.000000
outer loop
vertex -2.100000 0.000000 -2.200000
vertex -2.100000 0.000000 0.000000
vertex -1.484924 1.484924 0.000000
endloop
endfacet
facet normal -0.923880 0.382683 0.000000
outer loop
vertex -2.100000 0.000000 -2.200000
vertex -1.484924 1.484924 0.000000
vertex -1.484924 1.484924 -2.200000
endloop
endfacet
facet normal -0.382683 0.923880 0.000000
outer loop
vertex -1.484924 1.484924 -2.200000
vertex -1.484924 1.484924 0.000000
vertex 0.000000 2.100000 0.000000
endloop
endfacet
facet normal -0.382683 0.923880 0.000000
outer loop
vertex -1.484924 1.484924 -2.200000
vertex 0.000000 2.100000 0.000000
vertex 0.000000 2.100000 -2.200000
endloop
endfacet
facet normal 0.000000 0.000000 -1.000000
outer loop
vertex -1.484924 1.484924 -2.200000
vertex 0.000000 2.100000 -2.200000
vertex 1.484924 1.484924 -2.200000
endloop
endfacet
facet normal 0.000000 0.000000 -1.000000
outer loop
vertex 1.484924 1.484924 -2.200000
vertex 2.100000 -0.000000 -2.200000
vertex 1.484924 -1.484924 -2.200000
endloop
endfacet
facet normal 0.000000 0.000000 -1.000000
outer loop
vertex 1.484924 -1.484924 -2.200000
vertex -0.000000 -2.100000 -2.200000
vertex -1.484924 -1.484924 -2.200000
endloop
endfacet
facet normal 0.000000 0.000000 -1.000000
outer loop
vertex -1.484924 -1.484924 -2.200000
vertex -2.100000 0.000000 -2.200000
vertex -1.484924 1.484924 -2.200000
endloop
endfacet
facet normal 0.000000 0.000000 -1.000000
outer loop
vertex -1.484924 1.484924 -2.200000
vertex 1.484924 1.484924 -2.200000
vertex 1.484924 -1.484924 -2.200000
endloop
endfacet
facet normal -0.000000 0.000000 -1.000000
outer loop
vertex 1.484924 -1.484924 -2.200000
vertex -1.484924 -1.484924 -2.200000
vertex -1.484924 1.484924 -2.200000
endloop
endfacet
facet normal -1.000000 0.000000 0.000000
outer loop
vertex -0.000000 -3.150000 0.000000
vertex -0.000000 -3.150000 -2.200000
vertex -0.000000 -4.200000 -2.200000
endloop
endfacet
facet normal -1.000000 0.000000 0.000000
outer loop
vertex -0.000000 -3.150000 0.000000
vertex -0.000000 -4.200000 -2.200000
vertex -0.000000 -4.200000 0.000000
endloop
endfacet
facet normal -1.000000 0.000000 0.000000
outer loop
vertex -0.000000 -2.100000 0.000000
vertex -0.000000 -2.100000 -2.200000
vertex -0.000000 -3.150000 -2.200000
endloop
endfacet
facet normal -1.000000 0.000000 0.000000
outer loop
vertex -0.000000 -2.100000 0.000000
vertex -0.000000 -3.150000 -2.200000
vertex -0.000000 -3.150000 0.000000
endloop
endfacet
facet normal 0.000000 -1.000000 0.000000
outer loop
vertex -0.000000 -3.150000 0.000000
vertex -0.000000 -3.150000 -2.200000
vertex 1.200000 -3.150000 -2.200000
endloop
endfacet
facet normal 0.000000 -1.000000 0.000000
outer loop
vertex -0.000000 -3.150000 0.000000
vertex 1.200000 -3.150000 -2.200000
vertex 1.200000 -3.150000 0.000000
endloop
endfacet
facet normal 0.000000 -1.000000 0.000000
outer loop
vertex -0.000000 -3.150000 -2.200000
vertex -0.000000 -3.150000 0.000000
vertex -1.200000 -3.150000 0.000000
endloop
endfacet
facet normal 0.000000 -1.000000 0.000000
outer loop
vertex -0.000000 -3.150000 -2.200000
vertex -1.200000 -3.150000 0.000000
vertex -1.200000 -3.150000 -2.200000
endloop
endfacet
facet normal -0.382683 -0.923880 0.000000
outer loop
vertex 0.000000 2.089131 -2.193067
vertex 1.477238 1.477238 -2.193067
vertex 1.477238 1.477238 -0.006933
endloop
endfacet
facet normal -0.382683 -0.923880 0.000000
outer loop
vertex 0.000000 2.089131 -2.193067
vertex 1.477238 1.477238 -0.006933
vertex 0.000000 2.089131 -0.006933
endloop
endfacet
facet normal -0.923880 -0.382683 0.000000
outer loop
vertex 1.477238 1.477238 -2.193067
vertex 2.089131 -0.000000 -2.193067
vertex 2.089131 -0.000000 -0.006933
endloop
endfacet
facet normal -0.923879 -0.382683 0.000000
outer loop
vertex 1.477238 1.477238 -2.193067
vertex 2.089131 -0.000000 -0.006933
vertex 1.477238 1.477238 -0.006933
endloop
endfacet
facet normal -0.923879 0.382683 0.000000
outer loop
vertex 2.089131 -0.000000 -2.193067
vertex 1.477238 -1.477238 -2.193067
vertex 1.477238 -1.477238 -0.006933
endloop
endfacet
facet normal -0.923880 0.382683 0.000000
outer loop
vertex 2.089131 -0.000000 -2.193067
vertex 1.477238 -1.477238 -0.006933
vertex 2.089131 -0.000000 -0.006933
endloop
endfacet
facet normal -0.384340 0.923192 0.000000
outer loop
vertex 1.477238 -1.477238 -2.193067
vertex 0.005423 -2.089979 -2.193608
vertex 0.005423 -2.089979 -0.006392
endloop
endfacet
facet normal -0.384340 0.923192 0.000000
outer loop
vertex 1.477238 -1.477238 -2.193067
vertex 0.005423 -2.089979 -0.006392
vertex 1.477238 -1.477238 -0.006933
endloop
endfacet
facet normal 0.381940 0.924187 0.000000
outer loop
vertex 0.005423 -2.089979 -2.193608
vertex -1.477238 -1.477239 -2.193067
vertex -1.477238 -1.477239 -0.006933
endloop
endfacet
facet normal 0.381940 0.924187 0.000000
outer loop
vertex 0.005423 -2.089979 -2.193608
vertex -1.477238 -1.477239 -0.006933
vertex 0.005423 -2.089979 -0.006392
endloop
endfacet
facet normal 0.923880 0.382683 0.000000
outer loop
vertex -1.477238 -1.477239 -2.193067
vertex -2.089131 0.000000 -2.193067
vertex -2.089131 0.000000 -0.006933
endloop
endfacet
facet normal 0.923879 0.382683 0.000000
outer loop
vertex -1.477238 -1.477239 -2.193067
vertex -2.089131 0.000000 -0.006933
vertex -1.477238 -1.477239 -0.006933
endloop
endfacet
facet normal -0.000000 0.000000 -1.000000
outer loop
vertex 0.000000 2.089131 -0.006933
vertex 1.477238 1.477238 -0.006933
vertex 2.089131 -0.000000 -0.006933
endloop
endfacet
facet normal -0.000444 0.000184 -1.000000
outer loop
vertex 2.089131 -0.000000 -0.006933
vertex 1.477238 -1.477238 -0.006933
vertex 0.005423 -2.089979 -0.006392
endloop
endfacet
facet normal 0.000440 0.000182 -1.000000
outer loop
vertex 0.005423 -2.089979 -0.006392
vertex -1.477238 -1.477239 -0.006933
vertex -2.089131 0.000000 -0.006933
endloop
endfacet
facet normal 0.000000 0.000000 -1.000000
outer loop
vertex -2.089131 0.000000 -0.006933
vertex -1.477239 1.477238 -0.006933
vertex 0.000000 2.089131 -0.006933
endloop
endfacet
facet normal -0.000130 -0.000130 -1.000000
outer loop
vertex 0.000000 2.089131 -0.006933
vertex 2.089131 -0.000000 -0.006933
vertex 0.005423 -2.089979 -0.006392
endloop
endfacet
facet normal 0.000129 -0.000129 -1.000000
outer loop
vertex 0.005423 -2.089979 -0.006392
vertex -2.089131 0.000000 -0.006933
vertex 0.000000 2.089131 -0.006933
endloop
endfacet
facet normal 0.923880 -0.382683 0.000000
outer loop
vertex -2.089131 0.000000 -2.193067
vertex -1.477239 1.477238 -2.193067
vertex -1.477239 1.477238 -0.006933
endloop
endfacet
facet normal 0.923880 -0.382683 0.000000
outer loop
vertex -2.089131 0.000000 -2.193067
vertex -1.477239 1.477238 -0.006933
vertex -2.089131 0.000000 -0.006933
endloop
endfacet
facet normal 0.382683 -0.923879 0.000000
outer loop
vertex -1.477239 1.477238 -2.193067
vertex 0.000000 2.089131 -2.193067
vertex 0.000000 2.089131 -0.006933
endloop
endfacet
facet normal 0.382683 -0.923880 0.000000
outer loop
vertex -1.477239 1.477238 -2.193067
vertex 0.000000 2.089131 -0.006933
vertex -1.477239 1.477238 -0.006933
endloop
endfacet
facet normal 0.000000 0.000000 1.000000
outer loop
vertex 1.477238 1.477238 -2.193067
vertex 0.000000 2.089131 -2.193067
vertex -1.477239 1.477238 -2.193067
endloop
endfacet
facet normal 0.000000 0.000000 1.000000
outer loop
vertex -1.477239 1.477238 -2.193067
vertex -2.089131 0.000000 -2.193067
vertex -1.477238 -1.477239 -2.193067
endloop
endfacet
facet normal 0.000000 -0.000883 1.000000
outer loop
vertex -1.477238 -1.477239 -2.193067
vertex 0.005423 -2.089979 -2.193608
vertex 1.477238 -1.477238 -2.193067
endloop
endfacet
facet normal 0.000000 0.000000 1.000000
outer loop
vertex 1.477238 -1.477238 -2.193067
vertex 2.089131 -0.000000 -2.193067
vertex 1.477238 1.477238 -2.193067
endloop
endfacet
facet normal -0.000000 0.000000 1.000000
outer loop
vertex 1.477238 1.477238 -2.193067
vertex -1.477239 1.477238 -2.193067
vertex -1.477238 -1.477239 -2.193067
endloop
endfacet
facet normal 0.000000 0.000000 1.000000
outer loop
vertex -1.477238 -1.477239 -2.193067
vertex 1.477238 -1.477238 -2.193067
vertex 1.477238 1.477238 -2.193067
endloop
endfacet
facet normal 0.999993 0.003869 0.000000
outer loop
vertex 0.009899 -3.140100 0.000000
vertex 0.014000 -4.200000 0.000000
vertex 0.014000 -4.200000 -2.200000
endloop
endfacet
facet normal 0.999993 0.003869 0.000000
outer loop
vertex 0.009899 -3.140100 0.000000
vertex 0.014000 -4.200000 -2.200000
vertex 0.009899 -3.140100 -2.200000
endloop
endfacet
facet normal 0.999991 0.004263 0.000000
outer loop
vertex 0.005423 -2.089979 -0.006392
vertex 0.009899 -3.140100 0.000000
vertex 0.009899 -3.140100 -2.200000
endloop
endfacet
facet normal 0.999991 0.004263 0.000000
outer loop
vertex 0.005423 -2.089979 -0.006392
vertex 0.009899 -3.140100 -2.200000
vertex 0.005423 -2.089979 -2.193608
endloop
endfacet
facet normal -0.003446 0.999994 0.000000
outer loop
vertex 0.009899 -3.140100 0.000000
vertex 1.200000 -3.136000 0.000000
vertex 1.200000 -3.136000 -2.200000
endloop
endfacet
facet normal -0.003446 0.999994 0.000000
outer loop
vertex 0.009899 -3.140100 0.000000
vertex 1.200000 -3.136000 -2.200000
vertex 0.009899 -3.140100 -2.200000
endloop
endfacet
facet normal 0.003389 0.999994 0.000000
outer loop
vertex 0.009899 -3.140100 -2.200000
vertex -1.200000 -3.136000 -2.200000
vertex -1.200000 -3.136000 0.000000
endloop
endfacet
facet normal 0.003389 0.999994 0.000000
outer loop
vertex 0.009899 -3.140100 -2.200000
vertex -1.200000 -3.136000 0.000000
vertex 0.009899 -3.140100 0.000000
endloop
endfacet
facet normal 0.000000 -1.000000 0.000000
outer loop
vertex -0.000000 -4.200000 0.000000
vertex -0.000000 -4.200000 -2.200000
vertex 0.014000 -4.200000 -2.200000
endloop
endfacet
facet normal 0.000000 -1.000000 0.000000
outer loop
vertex -0.000000 -4.200000 0.000000
vertex 0.014000 -4.200000 -2.200000
vertex 0.014000 -4.200000 0.000000
endloop
endfacet
facet normal 0.000009 0.000000 -1.000000
outer loop
vertex -0.000000 -4.200000 -2.200000
vertex -0.000000 -3.150000 -2.200000
vertex 0.009899 -3.140100 -2.200000
endloop
endfacet
facet normal 0.000000 0.000000 -1.000000
outer loop
vertex -0.000000 -4.200000 -2.200000
vertex 0.009899 -3.140100 -2.200000
vertex 0.014000 -4.200000 -2.200000
endloop
endfacet
facet normal 0.000000 0.000000 1.000000
outer loop
vertex -0.000000 -2.100000 0.000000
vertex -0.000000 -3.150000 0.000000
vertex 0.009899 -3.140100 0.000000
endloop
endfacet
facet normal 0.756892 0.007204 0.653501
outer loop
vertex -0.000000 -2.100000 0.000000
vertex 0.009899 -3.140100 0.000000
vertex 0.005423 -2.089979 -0.006392
endloop
endfacet
facet normal 0.762539 0.000000 -0.646942
outer loop
vertex -0.000000 -3.150000 -2.200000
vertex -0.000000 -2.100000 -2.200000
vertex 0.005423 -2.089979 -2.193608
endloop
endfacet
facet normal -0.006074 0.006061 -0.999963
outer loop
vertex -0.000000 -3.150000 -2.200000
vertex 0.005423 -2.089979 -2.193608
vertex 0.009899 -3.140100 -2.200000
endloop
endfacet
facet normal 0.000000 0.000000 1.000000
outer loop
vertex -0.000000 -3.150000 0.000000
vertex -0.000000 -4.200000 0.000000
vertex 0.014000 -4.200000 0.000000
endloop
endfacet
facet normal 0.000000 0.000000 1.000000
outer loop
vertex -0.000000 -3.150000 0.000000
vertex 0.014000 -4.200000 0.000000
vertex 0.009899 -3.140100 0.000000
endloop
endfacet
facet normal 1.000000 0.000000 0.000000
outer loop
vertex 1.200000 -3.150000 0.000000
vertex 1.200000 -3.150000 -2.200000
vertex 1.200000 -3.136000 -2.200000
endloop
endfacet
facet normal 1.000000 0.000000 0.000000
outer loop
vertex 1.200000 -3.150000 0.000000
vertex 1.200000 -3.136000 -2.200000
vertex 1.200000 -3.136000 0.000000
endloop
endfacet
facet normal 0.000000 0.000000 -1.000000
outer loop
vertex 1.200000 -3.150000 -2.200000
vertex -0.000000 -3.150000 -2.200000
vertex 0.009899 -3.140100 -2.200000
endloop
endfacet
facet normal 0.000000 0.000000 -1.000000
outer loop
vertex 1.200000 -3.150000 -2.200000
vertex 0.009899 -3.140100 -2.200000
vertex 1.200000 -3.136000 -2.200000
endloop
endfacet
facet normal 0.000000 0.000000 1.000000
outer loop
vertex -0.000000 -3.150000 0.000000
vertex 1.200000 -3.150000 0.000000
vertex 1.200000 -3.136000 0.000000
endloop
endfacet
facet normal 0.000000 0.000000 1.000000
outer loop
vertex -0.000000 -3.150000 0.000000
vertex 1.200000 -3.136000 0.000000
vertex 0.009899 -3.140100 0.000000
endloop
endfacet
facet normal -1.000000 0.000000 0.000000
outer loop
vertex -1.200000 -3.150000 -2.200000
vertex -1.200000 -3.150000 0.000000
vertex -1.200000 -3.136000 0.000000
endloop
endfacet
facet normal -1.000000 0.000000 0.000000
outer loop
vertex -1.200000 -3.150000 -2.200000
vertex -1.200000 -3.136000 0.000000
vertex -1.200000 -3.136000 -2.200000
endloop
endfacet
facet normal 0.000000 0.000000 1.000000
outer loop
vertex -1.200000 -3.150000 0.000000
vertex -0.000000 -3.150000 0.000000
vertex 0.009899 -3.140100 0.000000
endloop
endfacet
facet normal 0.000000 0.000000 1.000000
outer loop
vertex -1.200000 -3.150000 0.000000
vertex 0.009899 -3.140100 0.000000
vertex -1.200000 -3.136000 0.000000
endloop
endfacet
facet normal 0.000000 0.000000 -1.000000
outer loop
vertex -0.000000 -3.150000 -2.200000
vertex -1.200000 -3.150000 -2.200000
vertex -1.200000 -3.136000 -2.200000
endloop
endfacet
facet normal -0.000000 0.000000 -1.000000
outer loop
vertex -0.000000 -3.150000 -2.200000
vertex -1.200000 -3.136000 -2.200000
vertex 0.009899 -3.140100 -2.200000
endloop
endfacet
endsolid Exported from Blender-3.2.0
