solid Exported from Blender-3.1.2
facet normal 0.000000 0.000000 1.000000
outer loop
vertex 0.798459 0.183964 0.000000
vertex -0.798459 0.183965 0.000000
vertex -0.798459 -3.124056 0.000000
endloop
endfacet
facet normal 0.000000 0.000000 1.000000
outer loop
vertex 0.798459 0.183964 0.000000
vertex -0.798459 -3.124056 0.000000
vertex 0.798459 -3.124056 0.000000
endloop
endfacet
facet normal 0.000000 -0.990712 0.135973
outer loop
vertex 0.708978 -3.584941 -3.358043
vertex 0.798459 -3.124056 0.000000
vertex -0.798459 -3.124056 0.000000
endloop
endfacet
facet normal 0.000000 -0.990712 0.135973
outer loop
vertex 0.708978 -3.584941 -3.358043
vertex -0.798459 -3.124056 0.000000
vertex -1.291022 -3.584941 -3.358043
endloop
endfacet
facet normal -0.989413 0.000000 0.145129
outer loop
vertex -1.291022 2.122997 -3.358043
vertex -0.798459 1.837975 0.000000
vertex -0.798459 3.491985 0.000000
endloop
endfacet
facet normal -0.989413 0.000000 0.145129
outer loop
vertex -1.291022 2.122997 -3.358043
vertex -0.798459 3.491985 0.000000
vertex -1.291022 4.200002 -3.358043
endloop
endfacet
facet normal 0.000000 -0.207907 -0.978149
outer loop
vertex -1.000000 -1.424134 -10.041959
vertex 1.000000 -1.424134 -10.041959
vertex 1.000000 -4.081965 -9.477034
endloop
endfacet
facet normal 0.000000 -0.207907 -0.978149
outer loop
vertex -1.000000 -1.424134 -10.041959
vertex 1.000000 -4.081965 -9.477034
vertex -1.000000 -4.081965 -9.477034
endloop
endfacet
facet normal 0.999645 0.000000 -0.026637
outer loop
vertex 0.708978 0.045991 -3.358043
vertex 0.798459 0.183964 0.000000
vertex 0.798459 -3.124056 0.000000
endloop
endfacet
facet normal 0.999645 0.000000 -0.026637
outer loop
vertex 0.708978 0.045991 -3.358043
vertex 0.798459 -3.124056 0.000000
vertex 0.708978 -3.584941 -3.358043
endloop
endfacet
facet normal 0.000000 0.978487 0.206306
outer loop
vertex -1.291022 4.200002 -3.358043
vertex -0.798459 3.491985 0.000000
vertex 0.798459 3.491985 0.000000
endloop
endfacet
facet normal 0.000000 0.978487 0.206306
outer loop
vertex -1.291022 4.200002 -3.358043
vertex 0.798459 3.491985 0.000000
vertex 0.708978 4.200002 -3.358043
endloop
endfacet
facet normal 0.000000 0.968595 -0.248644
outer loop
vertex -1.000000 4.501840 -8.298362
vertex -1.393736 4.908019 -6.716085
vertex 0.606264 4.908019 -6.716085
endloop
endfacet
facet normal 0.000000 0.968595 -0.248643
outer loop
vertex -1.000000 4.501840 -8.298362
vertex 0.606264 4.908019 -6.716085
vertex 1.000000 4.501840 -8.298362
endloop
endfacet
facet normal 0.993065 0.000000 0.117565
outer loop
vertex 1.000000 -1.424134 -10.041959
vertex 0.606264 -0.091982 -6.716085
vertex 0.606264 -4.640234 -6.716085
endloop
endfacet
facet normal 0.988594 0.031312 0.147314
outer loop
vertex 1.000000 -1.424134 -10.041959
vertex 0.606264 -4.640234 -6.716085
vertex 1.000000 -4.081965 -9.477034
endloop
endfacet
facet normal -0.989395 0.000000 -0.145253
outer loop
vertex -1.000000 1.771663 -9.398017
vertex -1.393736 2.408018 -6.716085
vertex -1.393736 4.908019 -6.716085
endloop
endfacet
facet normal -0.958036 0.107095 -0.265891
outer loop
vertex -1.000000 1.771663 -9.398017
vertex -1.393736 4.908019 -6.716085
vertex -1.000000 4.501840 -8.298362
endloop
endfacet
facet normal 0.000000 -0.980163 -0.198191
outer loop
vertex 1.000000 -4.081965 -9.477034
vertex 0.606264 -4.640234 -6.716085
vertex -1.393736 -4.640234 -6.716085
endloop
endfacet
facet normal 0.000000 -0.980164 -0.198190
outer loop
vertex 1.000000 -4.081965 -9.477034
vertex -1.393736 -4.640234 -6.716085
vertex -1.000000 -4.081965 -9.477034
endloop
endfacet
facet normal -0.989984 0.000000 -0.141181
outer loop
vertex -1.000000 -4.081965 -9.477034
vertex -1.393736 -4.640234 -6.716085
vertex -1.393736 -0.091982 -6.716085
endloop
endfacet
facet normal -0.993837 -0.023046 -0.108425
outer loop
vertex -1.000000 -4.081965 -9.477034
vertex -1.393736 -0.091982 -6.716085
vertex -1.000000 -1.424134 -10.041959
endloop
endfacet
facet normal 0.989394 0.000000 0.145254
outer loop
vertex 1.000000 1.771663 -9.398017
vertex 0.606264 2.408018 -6.716085
vertex 0.606264 -0.091982 -6.716085
endloop
endfacet
facet normal 0.991481 -0.025727 0.127682
outer loop
vertex 1.000000 1.771663 -9.398017
vertex 0.606264 -0.091982 -6.716085
vertex 1.000000 -1.424134 -10.041959
endloop
endfacet
facet normal 0.999645 0.000000 -0.026637
outer loop
vertex 0.708978 2.122997 -3.358043
vertex 0.798459 1.837975 0.000000
vertex 0.798459 0.183964 0.000000
endloop
endfacet
facet normal 0.999645 0.000000 -0.026637
outer loop
vertex 0.708978 2.122997 -3.358043
vertex 0.798459 0.183964 0.000000
vertex 0.708978 0.045991 -3.358043
endloop
endfacet
facet normal 0.000000 0.197527 -0.980298
outer loop
vertex -1.000000 1.771663 -9.398017
vertex 1.000000 1.771663 -9.398017
vertex 1.000000 -1.424134 -10.041959
endloop
endfacet
facet normal 0.000000 0.197527 -0.980298
outer loop
vertex -1.000000 1.771663 -9.398017
vertex 1.000000 -1.424134 -10.041959
vertex -1.000000 -1.424134 -10.041959
endloop
endfacet
facet normal -0.989413 0.000000 0.145129
outer loop
vertex -1.291022 -3.584941 -3.358043
vertex -0.798459 -3.124056 0.000000
vertex -0.798459 0.183965 0.000000
endloop
endfacet
facet normal -0.989413 0.000000 0.145129
outer loop
vertex -1.291022 -3.584941 -3.358043
vertex -0.798459 0.183965 0.000000
vertex -1.291022 0.045991 -3.358043
endloop
endfacet
facet normal 0.000000 0.000000 1.000000
outer loop
vertex 0.798459 1.837975 0.000000
vertex -0.798459 1.837975 0.000000
vertex -0.798459 0.183965 0.000000
endloop
endfacet
facet normal 0.000000 0.000000 1.000000
outer loop
vertex 0.798459 1.837975 0.000000
vertex -0.798459 0.183965 0.000000
vertex 0.798459 0.183964 0.000000
endloop
endfacet
facet normal 0.000000 0.000000 1.000000
outer loop
vertex 0.798459 3.491985 0.000000
vertex -0.798459 3.491985 0.000000
vertex -0.798459 1.837975 0.000000
endloop
endfacet
facet normal 0.000000 0.000000 1.000000
outer loop
vertex 0.798459 3.491985 0.000000
vertex -0.798459 1.837975 0.000000
vertex 0.798459 1.837975 0.000000
endloop
endfacet
facet normal 0.000000 0.373611 -0.927585
outer loop
vertex -1.000000 4.501840 -8.298362
vertex 1.000000 4.501840 -8.298362
vertex 1.000000 1.771663 -9.398017
endloop
endfacet
facet normal 0.000000 0.373611 -0.927585
outer loop
vertex -1.000000 4.501840 -8.298362
vertex 1.000000 1.771663 -9.398017
vertex -1.000000 1.771663 -9.398017
endloop
endfacet
facet normal 0.999645 0.000000 -0.026637
outer loop
vertex 0.708978 4.200002 -3.358043
vertex 0.798459 3.491985 0.000000
vertex 0.798459 1.837975 0.000000
endloop
endfacet
facet normal 0.999645 0.000000 -0.026637
outer loop
vertex 0.708978 4.200002 -3.358043
vertex 0.798459 1.837975 0.000000
vertex 0.708978 2.122997 -3.358043
endloop
endfacet
facet normal 0.970407 0.000000 0.241477
outer loop
vertex 1.000000 4.501840 -8.298362
vertex 0.606264 4.908019 -6.716085
vertex 0.606264 2.408018 -6.716085
endloop
endfacet
facet normal 0.985031 -0.064402 0.159894
outer loop
vertex 1.000000 4.501840 -8.298362
vertex 0.606264 2.408018 -6.716085
vertex 1.000000 1.771663 -9.398017
endloop
endfacet
facet normal -0.993065 0.000000 -0.117565
outer loop
vertex -1.000000 -1.424134 -10.041959
vertex -1.393736 -0.091982 -6.716085
vertex -1.393736 2.408018 -6.716085
endloop
endfacet
facet normal -0.987856 0.030690 -0.152310
outer loop
vertex -1.000000 -1.424134 -10.041959
vertex -1.393736 2.408018 -6.716085
vertex -1.000000 1.771663 -9.398017
endloop
endfacet
facet normal -0.989413 0.000000 0.145129
outer loop
vertex -1.291022 0.045991 -3.358043
vertex -0.798459 0.183965 0.000000
vertex -0.798459 1.837975 0.000000
endloop
endfacet
facet normal -0.989413 0.000000 0.145129
outer loop
vertex -1.291022 0.045991 -3.358043
vertex -0.798459 1.837975 0.000000
vertex -1.291022 2.122997 -3.358043
endloop
endfacet
facet normal -0.999533 0.000000 0.030573
outer loop
vertex -1.393736 -0.091982 -6.716085
vertex -1.291022 0.045991 -3.358043
vertex -1.291022 2.122997 -3.358043
endloop
endfacet
facet normal -0.999533 0.000000 0.030573
outer loop
vertex -1.393736 -0.091982 -6.716085
vertex -1.291022 2.122997 -3.358043
vertex -1.393736 2.408018 -6.716085
endloop
endfacet
facet normal 0.999533 0.000000 -0.030573
outer loop
vertex 0.606264 4.908019 -6.716085
vertex 0.708978 4.200002 -3.358043
vertex 0.708978 2.122997 -3.358043
endloop
endfacet
facet normal 0.999533 0.000000 -0.030573
outer loop
vertex 0.606264 4.908019 -6.716085
vertex 0.708978 2.122997 -3.358043
vertex 0.606264 2.408018 -6.716085
endloop
endfacet
facet normal -0.999533 0.000000 0.030573
outer loop
vertex -1.393736 -4.640234 -6.716085
vertex -1.291022 -3.584941 -3.358043
vertex -1.291022 0.045991 -3.358043
endloop
endfacet
facet normal -0.999533 0.000000 0.030573
outer loop
vertex -1.393736 -4.640234 -6.716085
vertex -1.291022 0.045991 -3.358043
vertex -1.393736 -0.091982 -6.716085
endloop
endfacet
facet normal 0.999533 0.000000 -0.030573
outer loop
vertex 0.606264 2.408018 -6.716085
vertex 0.708978 2.122997 -3.358043
vertex 0.708978 0.045991 -3.358043
endloop
endfacet
facet normal 0.999533 0.000000 -0.030573
outer loop
vertex 0.606264 2.408018 -6.716085
vertex 0.708978 0.045991 -3.358043
vertex 0.606264 -0.091982 -6.716085
endloop
endfacet
facet normal 0.000000 0.978487 0.206307
outer loop
vertex -1.393736 4.908019 -6.716085
vertex -1.291022 4.200002 -3.358043
vertex 0.708978 4.200002 -3.358043
endloop
endfacet
facet normal 0.000000 0.978487 0.206306
outer loop
vertex -1.393736 4.908019 -6.716085
vertex 0.708978 4.200002 -3.358043
vertex 0.606264 4.908019 -6.716085
endloop
endfacet
facet normal 0.999533 0.000000 -0.030573
outer loop
vertex 0.606264 -0.091982 -6.716085
vertex 0.708978 0.045991 -3.358043
vertex 0.708978 -3.584941 -3.358043
endloop
endfacet
facet normal 0.999533 0.000000 -0.030573
outer loop
vertex 0.606264 -0.091982 -6.716085
vertex 0.708978 -3.584941 -3.358043
vertex 0.606264 -4.640234 -6.716085
endloop
endfacet
facet normal -0.999533 0.000000 0.030573
outer loop
vertex -1.393736 2.408018 -6.716085
vertex -1.291022 2.122997 -3.358043
vertex -1.291022 4.200002 -3.358043
endloop
endfacet
facet normal -0.999533 0.000000 0.030573
outer loop
vertex -1.393736 2.408018 -6.716085
vertex -1.291022 4.200002 -3.358043
vertex -1.393736 4.908019 -6.716085
endloop
endfacet
facet normal 0.000000 -0.954001 0.299803
outer loop
vertex 0.606264 -4.640234 -6.716085
vertex 0.708978 -3.584941 -3.358043
vertex -1.291022 -3.584941 -3.358043
endloop
endfacet
facet normal 0.000000 -0.954001 0.299803
outer loop
vertex 0.606264 -4.640234 -6.716085
vertex -1.291022 -3.584941 -3.358043
vertex -1.393736 -4.640234 -6.716085
endloop
endfacet
endsolid Exported from Blender-3.1.2
