solid Exported from Blender-3.2.0
facet normal 0.382684 0.923880 0.000000
outer loop
vertex 0.000000 2.400000 -2.200000
vertex 0.000000 2.400000 0.000000
vertex 1.697056 1.697056 0.000000
endloop
endfacet
facet normal 0.382684 0.923880 0.000000
outer loop
vertex 0.000000 2.400000 -2.200000
vertex 1.697056 1.697056 0.000000
vertex 1.697056 1.697056 -2.200000
endloop
endfacet
facet normal 0.923880 0.382684 0.000000
outer loop
vertex 1.697056 1.697056 -2.200000
vertex 1.697056 1.697056 0.000000
vertex 2.400000 -0.000000 0.000000
endloop
endfacet
facet normal 0.923880 0.382683 0.000000
outer loop
vertex 1.697056 1.697056 -2.200000
vertex 2.400000 -0.000000 0.000000
vertex 2.400000 -0.000000 -2.200000
endloop
endfacet
facet normal 0.923879 -0.382683 0.000000
outer loop
vertex 2.400000 -0.000000 -2.200000
vertex 2.400000 -0.000000 0.000000
vertex 1.697056 -1.697056 0.000000
endloop
endfacet
facet normal 0.923879 -0.382684 0.000000
outer loop
vertex 2.400000 -0.000000 -2.200000
vertex 1.697056 -1.697056 0.000000
vertex 1.697056 -1.697056 -2.200000
endloop
endfacet
facet normal 0.382684 -0.923880 0.000000
outer loop
vertex 1.697056 -1.697056 -2.200000
vertex 1.697056 -1.697056 0.000000
vertex -0.000000 -2.400000 0.000000
endloop
endfacet
facet normal 0.382684 -0.923880 0.000000
outer loop
vertex 1.697056 -1.697056 -2.200000
vertex -0.000000 -2.400000 0.000000
vertex -0.000000 -2.400000 -2.200000
endloop
endfacet
facet normal -0.382683 -0.923880 0.000000
outer loop
vertex -0.000000 -2.400000 -2.200000
vertex -0.000000 -2.400000 0.000000
vertex -1.697056 -1.697056 0.000000
endloop
endfacet
facet normal -0.382683 -0.923880 0.000000
outer loop
vertex -0.000000 -2.400000 -2.200000
vertex -1.697056 -1.697056 0.000000
vertex -1.697056 -1.697056 -2.200000
endloop
endfacet
facet normal -0.923879 -0.382684 0.000000
outer loop
vertex -1.697056 -1.697056 -2.200000
vertex -1.697056 -1.697056 0.000000
vertex -2.400000 0.000000 0.000000
endloop
endfacet
facet normal -0.923880 -0.382683 0.000000
outer loop
vertex -1.697056 -1.697056 -2.200000
vertex -2.400000 0.000000 0.000000
vertex -2.400000 0.000000 -2.200000
endloop
endfacet
facet normal 0.000000 0.000000 1.000000
outer loop
vertex 2.400000 -0.000000 0.000000
vertex 1.697056 1.697056 0.000000
vertex 0.000000 2.400000 0.000000
endloop
endfacet
facet normal 0.000000 0.000000 1.000000
outer loop
vertex 0.000000 2.400000 0.000000
vertex -1.697057 1.697056 0.000000
vertex -2.400000 0.000000 0.000000
endloop
endfacet
facet normal 0.000000 0.000000 1.000000
outer loop
vertex -2.400000 0.000000 0.000000
vertex -1.697056 -1.697056 0.000000
vertex -0.000000 -2.400000 0.000000
endloop
endfacet
facet normal 0.000000 0.000000 1.000000
outer loop
vertex -0.000000 -2.400000 0.000000
vertex 1.697056 -1.697056 0.000000
vertex 2.400000 -0.000000 0.000000
endloop
endfacet
facet normal 0.000000 0.000000 1.000000
outer loop
vertex 2.400000 -0.000000 0.000000
vertex 0.000000 2.400000 0.000000
vertex -2.400000 0.000000 0.000000
endloop
endfacet
facet normal 0.000000 0.000000 1.000000
outer loop
vertex -2.400000 0.000000 0.000000
vertex -0.000000 -2.400000 0.000000
vertex 2.400000 -0.000000 0.000000
endloop
endfacet
facet normal -0.923880 0.382683 0.000000
outer loop
vertex -2.400000 0.000000 -2.200000
vertex -2.400000 0.000000 0.000000
vertex -1.697057 1.697056 0.000000
endloop
endfacet
facet normal -0.923880 0.382683 0.000000
outer loop
vertex -2.400000 0.000000 -2.200000
vertex -1.697057 1.697056 0.000000
vertex -1.697057 1.697056 -2.200000
endloop
endfacet
facet normal -0.382684 0.923880 0.000000
outer loop
vertex -1.697057 1.697056 -2.200000
vertex -1.697057 1.697056 0.000000
vertex 0.000000 2.400000 0.000000
endloop
endfacet
facet normal -0.382684 0.923880 0.000000
outer loop
vertex -1.697057 1.697056 -2.200000
vertex 0.000000 2.400000 0.000000
vertex 0.000000 2.400000 -2.200000
endloop
endfacet
facet normal 0.000000 0.000000 -1.000000
outer loop
vertex -1.697057 1.697056 -2.200000
vertex 0.000000 2.400000 -2.200000
vertex 1.697056 1.697056 -2.200000
endloop
endfacet
facet normal 0.000000 0.000000 -1.000000
outer loop
vertex 1.697056 1.697056 -2.200000
vertex 2.400000 -0.000000 -2.200000
vertex 1.697056 -1.697056 -2.200000
endloop
endfacet
facet normal 0.000000 0.000000 -1.000000
outer loop
vertex 1.697056 -1.697056 -2.200000
vertex -0.000000 -2.400000 -2.200000
vertex -1.697056 -1.697056 -2.200000
endloop
endfacet
facet normal -0.000000 0.000000 -1.000000
outer loop
vertex -1.697056 -1.697056 -2.200000
vertex -2.400000 0.000000 -2.200000
vertex -1.697057 1.697056 -2.200000
endloop
endfacet
facet normal 0.000000 0.000000 -1.000000
outer loop
vertex -1.697057 1.697056 -2.200000
vertex 1.697056 1.697056 -2.200000
vertex 1.697056 -1.697056 -2.200000
endloop
endfacet
facet normal 0.000000 0.000000 -1.000000
outer loop
vertex 1.697056 -1.697056 -2.200000
vertex -1.697056 -1.697056 -2.200000
vertex -1.697057 1.697056 -2.200000
endloop
endfacet
facet normal -1.000000 0.000000 0.000000
outer loop
vertex -0.000000 -3.600000 0.000000
vertex -0.000000 -3.600000 -2.200000
vertex -0.000000 -4.800000 -2.200000
endloop
endfacet
facet normal -1.000000 0.000000 0.000000
outer loop
vertex -0.000000 -3.600000 0.000000
vertex -0.000000 -4.800000 -2.200000
vertex -0.000000 -4.800000 0.000000
endloop
endfacet
facet normal -1.000000 0.000000 0.000000
outer loop
vertex -0.000000 -2.400000 0.000000
vertex -0.000000 -2.400000 -2.200000
vertex -0.000000 -3.600000 -2.200000
endloop
endfacet
facet normal -1.000000 0.000000 0.000000
outer loop
vertex -0.000000 -2.400000 0.000000
vertex -0.000000 -3.600000 -2.200000
vertex -0.000000 -3.600000 0.000000
endloop
endfacet
facet normal 0.000000 -1.000000 0.000000
outer loop
vertex -0.000000 -3.600000 0.000000
vertex -0.000000 -3.600000 -2.200000
vertex 1.371428 -3.600000 -2.200000
endloop
endfacet
facet normal 0.000000 -1.000000 0.000000
outer loop
vertex -0.000000 -3.600000 0.000000
vertex 1.371428 -3.600000 -2.200000
vertex 1.371428 -3.600000 0.000000
endloop
endfacet
facet normal 0.000000 -1.000000 0.000000
outer loop
vertex -0.000000 -3.600000 -2.200000
vertex -0.000000 -3.600000 0.000000
vertex -1.371429 -3.600000 0.000000
endloop
endfacet
facet normal 0.000000 -1.000000 0.000000
outer loop
vertex -0.000000 -3.600000 -2.200000
vertex -1.371429 -3.600000 0.000000
vertex -1.371429 -3.600000 -2.200000
endloop
endfacet
facet normal -0.382683 -0.923880 0.000000
outer loop
vertex 0.000000 2.387578 -2.193067
vertex 1.688272 1.688272 -2.193067
vertex 1.688272 1.688272 -0.006933
endloop
endfacet
facet normal -0.382683 -0.923880 0.000000
outer loop
vertex 0.000000 2.387578 -2.193067
vertex 1.688272 1.688272 -0.006933
vertex 0.000000 2.387578 -0.006933
endloop
endfacet
facet normal -0.923880 -0.382683 0.000000
outer loop
vertex 1.688272 1.688272 -2.193067
vertex 2.387578 -0.000000 -2.193067
vertex 2.387578 -0.000000 -0.006933
endloop
endfacet
facet normal -0.923880 -0.382684 0.000000
outer loop
vertex 1.688272 1.688272 -2.193067
vertex 2.387578 -0.000000 -0.006933
vertex 1.688272 1.688272 -0.006933
endloop
endfacet
facet normal -0.923880 0.382683 0.000000
outer loop
vertex 2.387578 -0.000000 -2.193067
vertex 1.688272 -1.688272 -2.193067
vertex 1.688272 -1.688272 -0.006933
endloop
endfacet
facet normal -0.923880 0.382683 0.000000
outer loop
vertex 2.387578 -0.000000 -2.193067
vertex 1.688272 -1.688272 -0.006933
vertex 2.387578 -0.000000 -0.006933
endloop
endfacet
facet normal -0.384340 0.923192 0.000000
outer loop
vertex 1.688272 -1.688272 -2.193067
vertex 0.006198 -2.388548 -2.193608
vertex 0.006198 -2.388548 -0.006392
endloop
endfacet
facet normal -0.384340 0.923192 0.000000
outer loop
vertex 1.688272 -1.688272 -2.193067
vertex 0.006198 -2.388548 -0.006392
vertex 1.688272 -1.688272 -0.006933
endloop
endfacet
facet normal 0.381940 0.924187 0.000000
outer loop
vertex 0.006198 -2.388548 -2.193608
vertex -1.688272 -1.688273 -2.193067
vertex -1.688272 -1.688273 -0.006933
endloop
endfacet
facet normal 0.381940 0.924187 0.000000
outer loop
vertex 0.006198 -2.388548 -2.193608
vertex -1.688272 -1.688273 -0.006933
vertex 0.006198 -2.388548 -0.006392
endloop
endfacet
facet normal 0.923880 0.382683 0.000000
outer loop
vertex -1.688272 -1.688273 -2.193067
vertex -2.387578 0.000000 -2.193067
vertex -2.387578 0.000000 -0.006933
endloop
endfacet
facet normal 0.923880 0.382683 0.000000
outer loop
vertex -1.688272 -1.688273 -2.193067
vertex -2.387578 0.000000 -0.006933
vertex -1.688272 -1.688273 -0.006933
endloop
endfacet
facet normal -0.000000 0.000000 -1.000000
outer loop
vertex 0.000000 2.387578 -0.006933
vertex 1.688272 1.688272 -0.006933
vertex 2.387578 -0.000000 -0.006933
endloop
endfacet
facet normal -0.000389 0.000161 -1.000000
outer loop
vertex 2.387578 -0.000000 -0.006933
vertex 1.688272 -1.688272 -0.006933
vertex 0.006198 -2.388548 -0.006392
endloop
endfacet
facet normal 0.000385 0.000160 -1.000000
outer loop
vertex 0.006198 -2.388548 -0.006392
vertex -1.688272 -1.688273 -0.006933
vertex -2.387578 0.000000 -0.006933
endloop
endfacet
facet normal -0.000000 0.000000 -1.000000
outer loop
vertex -2.387578 0.000000 -0.006933
vertex -1.688273 1.688272 -0.006933
vertex 0.000000 2.387578 -0.006933
endloop
endfacet
facet normal -0.000113 -0.000113 -1.000000
outer loop
vertex 0.000000 2.387578 -0.006933
vertex 2.387578 -0.000000 -0.006933
vertex 0.006198 -2.388548 -0.006392
endloop
endfacet
facet normal 0.000113 -0.000113 -1.000000
outer loop
vertex 0.006198 -2.388548 -0.006392
vertex -2.387578 0.000000 -0.006933
vertex 0.000000 2.387578 -0.006933
endloop
endfacet
facet normal 0.923880 -0.382683 0.000000
outer loop
vertex -2.387578 0.000000 -2.193067
vertex -1.688273 1.688272 -2.193067
vertex -1.688273 1.688272 -0.006933
endloop
endfacet
facet normal 0.923880 -0.382683 0.000000
outer loop
vertex -2.387578 0.000000 -2.193067
vertex -1.688273 1.688272 -0.006933
vertex -2.387578 0.000000 -0.006933
endloop
endfacet
facet normal 0.382683 -0.923880 0.000000
outer loop
vertex -1.688273 1.688272 -2.193067
vertex 0.000000 2.387578 -2.193067
vertex 0.000000 2.387578 -0.006933
endloop
endfacet
facet normal 0.382683 -0.923880 0.000000
outer loop
vertex -1.688273 1.688272 -2.193067
vertex 0.000000 2.387578 -0.006933
vertex -1.688273 1.688272 -0.006933
endloop
endfacet
facet normal 0.000000 0.000000 1.000000
outer loop
vertex 1.688272 1.688272 -2.193067
vertex 0.000000 2.387578 -2.193067
vertex -1.688273 1.688272 -2.193067
endloop
endfacet
facet normal -0.000000 0.000000 1.000000
outer loop
vertex -1.688273 1.688272 -2.193067
vertex -2.387578 0.000000 -2.193067
vertex -1.688272 -1.688273 -2.193067
endloop
endfacet
facet normal 0.000000 -0.000773 1.000000
outer loop
vertex -1.688272 -1.688273 -2.193067
vertex 0.006198 -2.388548 -2.193608
vertex 1.688272 -1.688272 -2.193067
endloop
endfacet
facet normal 0.000000 0.000000 1.000000
outer loop
vertex 1.688272 -1.688272 -2.193067
vertex 2.387578 -0.000000 -2.193067
vertex 1.688272 1.688272 -2.193067
endloop
endfacet
facet normal 0.000000 0.000000 1.000000
outer loop
vertex 1.688272 1.688272 -2.193067
vertex -1.688273 1.688272 -2.193067
vertex -1.688272 -1.688273 -2.193067
endloop
endfacet
facet normal 0.000000 0.000000 1.000000
outer loop
vertex -1.688272 -1.688273 -2.193067
vertex 1.688272 -1.688272 -2.193067
vertex 1.688272 1.688272 -2.193067
endloop
endfacet
facet normal 0.999992 0.003869 0.000000
outer loop
vertex 0.011313 -3.588686 0.000000
vertex 0.016000 -4.800000 0.000000
vertex 0.016000 -4.800000 -2.200000
endloop
endfacet
facet normal 0.999992 0.003869 0.000000
outer loop
vertex 0.011313 -3.588686 0.000000
vertex 0.016000 -4.800000 -2.200000
vertex 0.011313 -3.588686 -2.200000
endloop
endfacet
facet normal 0.999991 0.004263 0.000000
outer loop
vertex 0.006198 -2.388548 -0.006392
vertex 0.011313 -3.588686 0.000000
vertex 0.011313 -3.588686 -2.200000
endloop
endfacet
facet normal 0.999991 0.004263 0.000000
outer loop
vertex 0.006198 -2.388548 -0.006392
vertex 0.011313 -3.588686 -2.200000
vertex 0.006198 -2.388548 -2.193608
endloop
endfacet
facet normal -0.003446 0.999994 0.000000
outer loop
vertex 0.011313 -3.588686 0.000000
vertex 1.371428 -3.584000 0.000000
vertex 1.371428 -3.584000 -2.200000
endloop
endfacet
facet normal -0.003446 0.999994 0.000000
outer loop
vertex 0.011313 -3.588686 0.000000
vertex 1.371428 -3.584000 -2.200000
vertex 0.011313 -3.588686 -2.200000
endloop
endfacet
facet normal 0.003389 0.999994 0.000000
outer loop
vertex 0.011313 -3.588686 -2.200000
vertex -1.371429 -3.584000 -2.200000
vertex -1.371429 -3.584000 0.000000
endloop
endfacet
facet normal 0.003389 0.999994 0.000000
outer loop
vertex 0.011313 -3.588686 -2.200000
vertex -1.371429 -3.584000 0.000000
vertex 0.011313 -3.588686 0.000000
endloop
endfacet
facet normal 0.000000 -1.000000 0.000000
outer loop
vertex -0.000000 -4.800000 0.000000
vertex -0.000000 -4.800000 -2.200000
vertex 0.016000 -4.800000 -2.200000
endloop
endfacet
facet normal 0.000000 -1.000000 0.000000
outer loop
vertex -0.000000 -4.800000 0.000000
vertex 0.016000 -4.800000 -2.200000
vertex 0.016000 -4.800000 0.000000
endloop
endfacet
facet normal -0.000014 0.000000 -1.000000
outer loop
vertex -0.000000 -4.800000 -2.200000
vertex -0.000000 -3.600000 -2.200000
vertex 0.011313 -3.588686 -2.200000
endloop
endfacet
facet normal 0.000000 0.000000 -1.000000
outer loop
vertex -0.000000 -4.800000 -2.200000
vertex 0.011313 -3.588686 -2.200000
vertex 0.016000 -4.800000 -2.200000
endloop
endfacet
facet normal 0.000000 0.000000 1.000000
outer loop
vertex -0.000000 -2.400000 0.000000
vertex -0.000000 -3.600000 0.000000
vertex 0.011313 -3.588686 0.000000
endloop
endfacet
facet normal 0.711793 0.006775 0.702357
outer loop
vertex -0.000000 -2.400000 0.000000
vertex 0.011313 -3.588686 0.000000
vertex 0.006198 -2.388548 -0.006392
endloop
endfacet
facet normal 0.717911 0.000000 -0.696135
outer loop
vertex -0.000000 -3.600000 -2.200000
vertex -0.000000 -2.400000 -2.200000
vertex 0.006198 -2.388548 -2.193608
endloop
endfacet
facet normal -0.005315 0.005303 -0.999972
outer loop
vertex -0.000000 -3.600000 -2.200000
vertex 0.006198 -2.388548 -2.193608
vertex 0.011313 -3.588686 -2.200000
endloop
endfacet
facet normal 0.000000 0.000000 1.000000
outer loop
vertex -0.000000 -3.600000 0.000000
vertex -0.000000 -4.800000 0.000000
vertex 0.016000 -4.800000 0.000000
endloop
endfacet
facet normal 0.000000 0.000000 1.000000
outer loop
vertex -0.000000 -3.600000 0.000000
vertex 0.016000 -4.800000 0.000000
vertex 0.011313 -3.588686 0.000000
endloop
endfacet
facet normal 1.000000 0.000000 0.000000
outer loop
vertex 1.371428 -3.600000 0.000000
vertex 1.371428 -3.600000 -2.200000
vertex 1.371428 -3.584000 -2.200000
endloop
endfacet
facet normal 1.000000 0.000000 0.000000
outer loop
vertex 1.371428 -3.600000 0.000000
vertex 1.371428 -3.584000 -2.200000
vertex 1.371428 -3.584000 0.000000
endloop
endfacet
facet normal 0.000000 0.000000 -1.000000
outer loop
vertex 1.371428 -3.600000 -2.200000
vertex -0.000000 -3.600000 -2.200000
vertex 0.011313 -3.588686 -2.200000
endloop
endfacet
facet normal 0.000000 0.000000 -1.000000
outer loop
vertex 1.371428 -3.600000 -2.200000
vertex 0.011313 -3.588686 -2.200000
vertex 1.371428 -3.584000 -2.200000
endloop
endfacet
facet normal 0.000000 0.000000 1.000000
outer loop
vertex -0.000000 -3.600000 0.000000
vertex 1.371428 -3.600000 0.000000
vertex 1.371428 -3.584000 0.000000
endloop
endfacet
facet normal 0.000000 0.000000 1.000000
outer loop
vertex -0.000000 -3.600000 0.000000
vertex 1.371428 -3.584000 0.000000
vertex 0.011313 -3.588686 0.000000
endloop
endfacet
facet normal -1.000000 0.000000 0.000000
outer loop
vertex -1.371429 -3.600000 -2.200000
vertex -1.371429 -3.600000 0.000000
vertex -1.371429 -3.584000 0.000000
endloop
endfacet
facet normal -1.000000 0.000000 0.000000
outer loop
vertex -1.371429 -3.600000 -2.200000
vertex -1.371429 -3.584000 0.000000
vertex -1.371429 -3.584000 -2.200000
endloop
endfacet
facet normal 0.000000 0.000000 1.000000
outer loop
vertex -1.371429 -3.600000 0.000000
vertex -0.000000 -3.600000 0.000000
vertex 0.011313 -3.588686 0.000000
endloop
endfacet
facet normal 0.000000 0.000000 1.000000
outer loop
vertex -1.371429 -3.600000 0.000000
vertex 0.011313 -3.588686 0.000000
vertex -1.371429 -3.584000 0.000000
endloop
endfacet
facet normal 0.000000 0.000000 -1.000000
outer loop
vertex -0.000000 -3.600000 -2.200000
vertex -1.371429 -3.600000 -2.200000
vertex -1.371429 -3.584000 -2.200000
endloop
endfacet
facet normal -0.000000 0.000000 -1.000000
outer loop
vertex -0.000000 -3.600000 -2.200000
vertex -1.371429 -3.584000 -2.200000
vertex 0.011313 -3.588686 -2.200000
endloop
endfacet
endsolid Exported from Blender-3.2.0
