solid Exported from Blender-3.2.0
facet normal 0.382684 0.923880 0.000000
outer loop
vertex 0.000000 1.950000 -2.200000
vertex 0.000000 1.950000 0.000000
vertex 1.378858 1.378858 0.000000
endloop
endfacet
facet normal 0.382684 0.923880 0.000000
outer loop
vertex 0.000000 1.950000 -2.200000
vertex 1.378858 1.378858 0.000000
vertex 1.378858 1.378858 -2.200000
endloop
endfacet
facet normal 0.923880 0.382684 0.000000
outer loop
vertex 1.378858 1.378858 -2.200000
vertex 1.378858 1.378858 0.000000
vertex 1.950000 -0.000000 0.000000
endloop
endfacet
facet normal 0.923880 0.382684 0.000000
outer loop
vertex 1.378858 1.378858 -2.200000
vertex 1.950000 -0.000000 0.000000
vertex 1.950000 -0.000000 -2.200000
endloop
endfacet
facet normal 0.923880 -0.382684 0.000000
outer loop
vertex 1.950000 -0.000000 -2.200000
vertex 1.950000 -0.000000 0.000000
vertex 1.378858 -1.378858 0.000000
endloop
endfacet
facet normal 0.923880 -0.382684 0.000000
outer loop
vertex 1.950000 -0.000000 -2.200000
vertex 1.378858 -1.378858 0.000000
vertex 1.378858 -1.378858 -2.200000
endloop
endfacet
facet normal 0.382684 -0.923880 0.000000
outer loop
vertex 1.378858 -1.378858 -2.200000
vertex 1.378858 -1.378858 0.000000
vertex -0.000000 -1.950000 0.000000
endloop
endfacet
facet normal 0.382683 -0.923880 0.000000
outer loop
vertex 1.378858 -1.378858 -2.200000
vertex -0.000000 -1.950000 0.000000
vertex -0.000000 -1.950000 -2.200000
endloop
endfacet
facet normal -0.382683 -0.923879 0.000000
outer loop
vertex -0.000000 -1.950000 -2.200000
vertex -0.000000 -1.950000 0.000000
vertex -1.378858 -1.378858 0.000000
endloop
endfacet
facet normal -0.382683 -0.923880 0.000000
outer loop
vertex -0.000000 -1.950000 -2.200000
vertex -1.378858 -1.378858 0.000000
vertex -1.378858 -1.378858 -2.200000
endloop
endfacet
facet normal -0.923880 -0.382684 0.000000
outer loop
vertex -1.378858 -1.378858 -2.200000
vertex -1.378858 -1.378858 0.000000
vertex -1.950000 0.000000 0.000000
endloop
endfacet
facet normal -0.923880 -0.382684 0.000000
outer loop
vertex -1.378858 -1.378858 -2.200000
vertex -1.950000 0.000000 0.000000
vertex -1.950000 0.000000 -2.200000
endloop
endfacet
facet normal 0.000000 0.000000 1.000000
outer loop
vertex 1.950000 -0.000000 0.000000
vertex 1.378858 1.378858 0.000000
vertex 0.000000 1.950000 0.000000
endloop
endfacet
facet normal 0.000000 0.000000 1.000000
outer loop
vertex 0.000000 1.950000 0.000000
vertex -1.378858 1.378858 0.000000
vertex -1.950000 0.000000 0.000000
endloop
endfacet
facet normal 0.000000 0.000000 1.000000
outer loop
vertex -1.950000 0.000000 0.000000
vertex -1.378858 -1.378858 0.000000
vertex -0.000000 -1.950000 0.000000
endloop
endfacet
facet normal 0.000000 0.000000 1.000000
outer loop
vertex -0.000000 -1.950000 0.000000
vertex 1.378858 -1.378858 0.000000
vertex 1.950000 -0.000000 0.000000
endloop
endfacet
facet normal 0.000000 0.000000 1.000000
outer loop
vertex 1.950000 -0.000000 0.000000
vertex 0.000000 1.950000 0.000000
vertex -1.950000 0.000000 0.000000
endloop
endfacet
facet normal 0.000000 0.000000 1.000000
outer loop
vertex -1.950000 0.000000 0.000000
vertex -0.000000 -1.950000 0.000000
vertex 1.950000 -0.000000 0.000000
endloop
endfacet
facet normal -0.923880 0.382683 0.000000
outer loop
vertex -1.950000 0.000000 -2.200000
vertex -1.950000 0.000000 0.000000
vertex -1.378858 1.378858 0.000000
endloop
endfacet
facet normal -0.923880 0.382683 0.000000
outer loop
vertex -1.950000 0.000000 -2.200000
vertex -1.378858 1.378858 0.000000
vertex -1.378858 1.378858 -2.200000
endloop
endfacet
facet normal -0.382683 0.923880 0.000000
outer loop
vertex -1.378858 1.378858 -2.200000
vertex -1.378858 1.378858 0.000000
vertex 0.000000 1.950000 0.000000
endloop
endfacet
facet normal -0.382683 0.923880 0.000000
outer loop
vertex -1.378858 1.378858 -2.200000
vertex 0.000000 1.950000 0.000000
vertex 0.000000 1.950000 -2.200000
endloop
endfacet
facet normal 0.000000 0.000000 -1.000000
outer loop
vertex -1.378858 1.378858 -2.200000
vertex 0.000000 1.950000 -2.200000
vertex 1.378858 1.378858 -2.200000
endloop
endfacet
facet normal 0.000000 0.000000 -1.000000
outer loop
vertex 1.378858 1.378858 -2.200000
vertex 1.950000 -0.000000 -2.200000
vertex 1.378858 -1.378858 -2.200000
endloop
endfacet
facet normal 0.000000 0.000000 -1.000000
outer loop
vertex 1.378858 -1.378858 -2.200000
vertex -0.000000 -1.950000 -2.200000
vertex -1.378858 -1.378858 -2.200000
endloop
endfacet
facet normal 0.000000 0.000000 -1.000000
outer loop
vertex -1.378858 -1.378858 -2.200000
vertex -1.950000 0.000000 -2.200000
vertex -1.378858 1.378858 -2.200000
endloop
endfacet
facet normal 0.000000 0.000000 -1.000000
outer loop
vertex -1.378858 1.378858 -2.200000
vertex 1.378858 1.378858 -2.200000
vertex 1.378858 -1.378858 -2.200000
endloop
endfacet
facet normal -0.000000 0.000000 -1.000000
outer loop
vertex 1.378858 -1.378858 -2.200000
vertex -1.378858 -1.378858 -2.200000
vertex -1.378858 1.378858 -2.200000
endloop
endfacet
facet normal -1.000000 0.000000 0.000000
outer loop
vertex -0.000000 -2.925000 0.000000
vertex -0.000000 -2.925000 -2.200000
vertex -0.000000 -3.900000 -2.200000
endloop
endfacet
facet normal -1.000000 0.000000 0.000000
outer loop
vertex -0.000000 -2.925000 0.000000
vertex -0.000000 -3.900000 -2.200000
vertex -0.000000 -3.900000 0.000000
endloop
endfacet
facet normal -1.000000 0.000000 0.000000
outer loop
vertex -0.000000 -1.950000 0.000000
vertex -0.000000 -1.950000 -2.200000
vertex -0.000000 -2.925000 -2.200000
endloop
endfacet
facet normal -1.000000 0.000000 0.000000
outer loop
vertex -0.000000 -1.950000 0.000000
vertex -0.000000 -2.925000 -2.200000
vertex -0.000000 -2.925000 0.000000
endloop
endfacet
facet normal 0.000000 -1.000000 0.000000
outer loop
vertex -0.000000 -2.925000 0.000000
vertex -0.000000 -2.925000 -2.200000
vertex 1.114286 -2.925000 -2.200000
endloop
endfacet
facet normal 0.000000 -1.000000 0.000000
outer loop
vertex -0.000000 -2.925000 0.000000
vertex 1.114286 -2.925000 -2.200000
vertex 1.114286 -2.925000 0.000000
endloop
endfacet
facet normal 0.000000 -1.000000 0.000000
outer loop
vertex -0.000000 -2.925000 -2.200000
vertex -0.000000 -2.925000 0.000000
vertex -1.114286 -2.925000 0.000000
endloop
endfacet
facet normal 0.000000 -1.000000 0.000000
outer loop
vertex -0.000000 -2.925000 -2.200000
vertex -1.114286 -2.925000 0.000000
vertex -1.114286 -2.925000 -2.200000
endloop
endfacet
facet normal -0.382683 -0.923880 0.000000
outer loop
vertex 0.000000 1.939907 -2.193067
vertex 1.371721 1.371721 -2.193067
vertex 1.371721 1.371721 -0.006933
endloop
endfacet
facet normal -0.382683 -0.923880 0.000000
outer loop
vertex 0.000000 1.939907 -2.193067
vertex 1.371721 1.371721 -0.006933
vertex 0.000000 1.939907 -0.006933
endloop
endfacet
facet normal -0.923880 -0.382683 0.000000
outer loop
vertex 1.371721 1.371721 -2.193067
vertex 1.939907 -0.000000 -2.193067
vertex 1.939907 -0.000000 -0.006933
endloop
endfacet
facet normal -0.923880 -0.382684 0.000000
outer loop
vertex 1.371721 1.371721 -2.193067
vertex 1.939907 -0.000000 -0.006933
vertex 1.371721 1.371721 -0.006933
endloop
endfacet
facet normal -0.923879 0.382684 0.000000
outer loop
vertex 1.939907 -0.000000 -2.193067
vertex 1.371721 -1.371721 -2.193067
vertex 1.371721 -1.371721 -0.006933
endloop
endfacet
facet normal -0.923880 0.382683 0.000000
outer loop
vertex 1.939907 -0.000000 -2.193067
vertex 1.371721 -1.371721 -0.006933
vertex 1.939907 -0.000000 -0.006933
endloop
endfacet
facet normal -0.384340 0.923192 0.000000
outer loop
vertex 1.371721 -1.371721 -2.193067
vertex 0.005036 -1.940695 -2.193608
vertex 0.005036 -1.940695 -0.006392
endloop
endfacet
facet normal -0.384340 0.923192 0.000000
outer loop
vertex 1.371721 -1.371721 -2.193067
vertex 0.005036 -1.940695 -0.006392
vertex 1.371721 -1.371721 -0.006933
endloop
endfacet
facet normal 0.381940 0.924187 0.000000
outer loop
vertex 0.005036 -1.940695 -2.193608
vertex -1.371721 -1.371722 -2.193067
vertex -1.371721 -1.371722 -0.006933
endloop
endfacet
facet normal 0.381940 0.924187 0.000000
outer loop
vertex 0.005036 -1.940695 -2.193608
vertex -1.371721 -1.371722 -0.006933
vertex 0.005036 -1.940695 -0.006392
endloop
endfacet
facet normal 0.923880 0.382683 0.000000
outer loop
vertex -1.371721 -1.371722 -2.193067
vertex -1.939907 0.000000 -2.193067
vertex -1.939907 0.000000 -0.006933
endloop
endfacet
facet normal 0.923880 0.382684 0.000000
outer loop
vertex -1.371721 -1.371722 -2.193067
vertex -1.939907 0.000000 -0.006933
vertex -1.371721 -1.371722 -0.006933
endloop
endfacet
facet normal -0.000000 0.000000 -1.000000
outer loop
vertex 0.000000 1.939907 -0.006933
vertex 1.371721 1.371721 -0.006933
vertex 1.939907 -0.000000 -0.006933
endloop
endfacet
facet normal -0.000479 0.000198 -1.000000
outer loop
vertex 1.939907 -0.000000 -0.006933
vertex 1.371721 -1.371721 -0.006933
vertex 0.005036 -1.940695 -0.006392
endloop
endfacet
facet normal 0.000474 0.000196 -1.000000
outer loop
vertex 0.005036 -1.940695 -0.006392
vertex -1.371721 -1.371722 -0.006933
vertex -1.939907 0.000000 -0.006933
endloop
endfacet
facet normal -0.000000 0.000000 -1.000000
outer loop
vertex -1.939907 0.000000 -0.006933
vertex -1.371722 1.371721 -0.006933
vertex 0.000000 1.939907 -0.006933
endloop
endfacet
facet normal -0.000140 -0.000140 -1.000000
outer loop
vertex 0.000000 1.939907 -0.006933
vertex 1.939907 -0.000000 -0.006933
vertex 0.005036 -1.940695 -0.006392
endloop
endfacet
facet normal 0.000139 -0.000139 -1.000000
outer loop
vertex 0.005036 -1.940695 -0.006392
vertex -1.939907 0.000000 -0.006933
vertex 0.000000 1.939907 -0.006933
endloop
endfacet
facet normal 0.923880 -0.382683 0.000000
outer loop
vertex -1.939907 0.000000 -2.193067
vertex -1.371722 1.371721 -2.193067
vertex -1.371722 1.371721 -0.006933
endloop
endfacet
facet normal 0.923880 -0.382683 0.000000
outer loop
vertex -1.939907 0.000000 -2.193067
vertex -1.371722 1.371721 -0.006933
vertex -1.939907 0.000000 -0.006933
endloop
endfacet
facet normal 0.382683 -0.923880 0.000000
outer loop
vertex -1.371722 1.371721 -2.193067
vertex 0.000000 1.939907 -2.193067
vertex 0.000000 1.939907 -0.006933
endloop
endfacet
facet normal 0.382683 -0.923880 0.000000
outer loop
vertex -1.371722 1.371721 -2.193067
vertex 0.000000 1.939907 -0.006933
vertex -1.371722 1.371721 -0.006933
endloop
endfacet
facet normal 0.000000 0.000000 1.000000
outer loop
vertex 1.371721 1.371721 -2.193067
vertex 0.000000 1.939907 -2.193067
vertex -1.371722 1.371721 -2.193067
endloop
endfacet
facet normal -0.000000 0.000000 1.000000
outer loop
vertex -1.371722 1.371721 -2.193067
vertex -1.939907 0.000000 -2.193067
vertex -1.371721 -1.371722 -2.193067
endloop
endfacet
facet normal 0.000000 -0.000951 1.000000
outer loop
vertex -1.371721 -1.371722 -2.193067
vertex 0.005036 -1.940695 -2.193608
vertex 1.371721 -1.371721 -2.193067
endloop
endfacet
facet normal 0.000000 0.000000 1.000000
outer loop
vertex 1.371721 -1.371721 -2.193067
vertex 1.939907 -0.000000 -2.193067
vertex 1.371721 1.371721 -2.193067
endloop
endfacet
facet normal 0.000000 0.000000 1.000000
outer loop
vertex 1.371721 1.371721 -2.193067
vertex -1.371722 1.371721 -2.193067
vertex -1.371721 -1.371722 -2.193067
endloop
endfacet
facet normal 0.000000 0.000000 1.000000
outer loop
vertex -1.371721 -1.371722 -2.193067
vertex 1.371721 -1.371721 -2.193067
vertex 1.371721 1.371721 -2.193067
endloop
endfacet
facet normal 0.999992 0.003869 0.000000
outer loop
vertex 0.009192 -2.915807 0.000000
vertex 0.013000 -3.900000 0.000000
vertex 0.013000 -3.900000 -2.200000
endloop
endfacet
facet normal 0.999992 0.003869 0.000000
outer loop
vertex 0.009192 -2.915807 0.000000
vertex 0.013000 -3.900000 -2.200000
vertex 0.009192 -2.915807 -2.200000
endloop
endfacet
facet normal 0.999991 0.004263 0.000000
outer loop
vertex 0.005036 -1.940695 -0.006392
vertex 0.009192 -2.915807 0.000000
vertex 0.009192 -2.915807 -2.200000
endloop
endfacet
facet normal 0.999991 0.004263 0.000000
outer loop
vertex 0.005036 -1.940695 -0.006392
vertex 0.009192 -2.915807 -2.200000
vertex 0.005036 -1.940695 -2.193608
endloop
endfacet
facet normal -0.003445 0.999994 0.000000
outer loop
vertex 0.009192 -2.915807 0.000000
vertex 1.114286 -2.912000 0.000000
vertex 1.114286 -2.912000 -2.200000
endloop
endfacet
facet normal -0.003445 0.999994 0.000000
outer loop
vertex 0.009192 -2.915807 0.000000
vertex 1.114286 -2.912000 -2.200000
vertex 0.009192 -2.915807 -2.200000
endloop
endfacet
facet normal 0.003389 0.999994 0.000000
outer loop
vertex 0.009192 -2.915807 -2.200000
vertex -1.114286 -2.912000 -2.200000
vertex -1.114286 -2.912000 0.000000
endloop
endfacet
facet normal 0.003389 0.999994 0.000000
outer loop
vertex 0.009192 -2.915807 -2.200000
vertex -1.114286 -2.912000 0.000000
vertex 0.009192 -2.915807 0.000000
endloop
endfacet
facet normal 0.000000 -1.000000 0.000000
outer loop
vertex -0.000000 -3.900000 0.000000
vertex -0.000000 -3.900000 -2.200000
vertex 0.013000 -3.900000 -2.200000
endloop
endfacet
facet normal 0.000000 -1.000000 0.000000
outer loop
vertex -0.000000 -3.900000 0.000000
vertex 0.013000 -3.900000 -2.200000
vertex 0.013000 -3.900000 0.000000
endloop
endfacet
facet normal -0.000042 0.000000 -1.000000
outer loop
vertex -0.000000 -3.900000 -2.200000
vertex -0.000000 -2.925000 -2.200000
vertex 0.009192 -2.915807 -2.200000
endloop
endfacet
facet normal 0.000000 0.000000 -1.000000
outer loop
vertex -0.000000 -3.900000 -2.200000
vertex 0.009192 -2.915807 -2.200000
vertex 0.013000 -3.900000 -2.200000
endloop
endfacet
facet normal 0.000000 0.000000 1.000000
outer loop
vertex -0.000000 -1.950000 0.000000
vertex -0.000000 -2.925000 0.000000
vertex 0.009192 -2.915807 0.000000
endloop
endfacet
facet normal 0.780189 0.007426 0.625500
outer loop
vertex -0.000000 -1.950000 0.000000
vertex 0.009192 -2.915807 0.000000
vertex 0.005036 -1.940695 -0.006392
endloop
endfacet
facet normal 0.785511 0.000000 -0.618848
outer loop
vertex -0.000000 -2.925000 -2.200000
vertex -0.000000 -1.950000 -2.200000
vertex 0.005036 -1.940695 -2.193608
endloop
endfacet
facet normal -0.006568 0.006527 -0.999957
outer loop
vertex -0.000000 -2.925000 -2.200000
vertex 0.005036 -1.940695 -2.193608
vertex 0.009192 -2.915807 -2.200000
endloop
endfacet
facet normal 0.000000 0.000000 1.000000
outer loop
vertex -0.000000 -2.925000 0.000000
vertex -0.000000 -3.900000 0.000000
vertex 0.013000 -3.900000 0.000000
endloop
endfacet
facet normal 0.000000 0.000000 1.000000
outer loop
vertex -0.000000 -2.925000 0.000000
vertex 0.013000 -3.900000 0.000000
vertex 0.009192 -2.915807 0.000000
endloop
endfacet
facet normal 1.000000 0.000000 0.000000
outer loop
vertex 1.114286 -2.925000 0.000000
vertex 1.114286 -2.925000 -2.200000
vertex 1.114286 -2.912000 -2.200000
endloop
endfacet
facet normal 1.000000 0.000000 0.000000
outer loop
vertex 1.114286 -2.925000 0.000000
vertex 1.114286 -2.912000 -2.200000
vertex 1.114286 -2.912000 0.000000
endloop
endfacet
facet normal 0.000000 0.000000 -1.000000
outer loop
vertex 1.114286 -2.925000 -2.200000
vertex -0.000000 -2.925000 -2.200000
vertex 0.009192 -2.915807 -2.200000
endloop
endfacet
facet normal 0.000000 0.000000 -1.000000
outer loop
vertex 1.114286 -2.925000 -2.200000
vertex 0.009192 -2.915807 -2.200000
vertex 1.114286 -2.912000 -2.200000
endloop
endfacet
facet normal 0.000000 0.000000 1.000000
outer loop
vertex -0.000000 -2.925000 0.000000
vertex 1.114286 -2.925000 0.000000
vertex 1.114286 -2.912000 0.000000
endloop
endfacet
facet normal 0.000000 0.000000 1.000000
outer loop
vertex -0.000000 -2.925000 0.000000
vertex 1.114286 -2.912000 0.000000
vertex 0.009192 -2.915807 0.000000
endloop
endfacet
facet normal -1.000000 0.000000 0.000000
outer loop
vertex -1.114286 -2.925000 -2.200000
vertex -1.114286 -2.925000 0.000000
vertex -1.114286 -2.912000 0.000000
endloop
endfacet
facet normal -1.000000 0.000000 0.000000
outer loop
vertex -1.114286 -2.925000 -2.200000
vertex -1.114286 -2.912000 0.000000
vertex -1.114286 -2.912000 -2.200000
endloop
endfacet
facet normal 0.000000 0.000000 1.000000
outer loop
vertex -1.114286 -2.925000 0.000000
vertex -0.000000 -2.925000 0.000000
vertex 0.009192 -2.915807 0.000000
endloop
endfacet
facet normal 0.000000 0.000000 1.000000
outer loop
vertex -1.114286 -2.925000 0.000000
vertex 0.009192 -2.915807 0.000000
vertex -1.114286 -2.912000 0.000000
endloop
endfacet
facet normal 0.000000 0.000000 -1.000000
outer loop
vertex -0.000000 -2.925000 -2.200000
vertex -1.114286 -2.925000 -2.200000
vertex -1.114286 -2.912000 -2.200000
endloop
endfacet
facet normal 0.000000 0.000000 -1.000000
outer loop
vertex -0.000000 -2.925000 -2.200000
vertex -1.114286 -2.912000 -2.200000
vertex 0.009192 -2.915807 -2.200000
endloop
endfacet
endsolid Exported from Blender-3.2.0
