solid Exported from Blender-3.2.0
facet normal 0.382683 0.923880 0.000000
outer loop
vertex 0.000000 1.800000 -2.200000
vertex 0.000000 1.800000 0.000000
vertex 1.272792 1.272792 0.000000
endloop
endfacet
facet normal 0.382683 0.923880 0.000000
outer loop
vertex 0.000000 1.800000 -2.200000
vertex 1.272792 1.272792 0.000000
vertex 1.272792 1.272792 -2.200000
endloop
endfacet
facet normal 0.923880 0.382683 0.000000
outer loop
vertex 1.272792 1.272792 -2.200000
vertex 1.272792 1.272792 0.000000
vertex 1.800000 -0.000000 0.000000
endloop
endfacet
facet normal 0.923880 0.382683 0.000000
outer loop
vertex 1.272792 1.272792 -2.200000
vertex 1.800000 -0.000000 0.000000
vertex 1.800000 -0.000000 -2.200000
endloop
endfacet
facet normal 0.923880 -0.382683 0.000000
outer loop
vertex 1.800000 -0.000000 -2.200000
vertex 1.800000 -0.000000 0.000000
vertex 1.272792 -1.272792 0.000000
endloop
endfacet
facet normal 0.923880 -0.382683 0.000000
outer loop
vertex 1.800000 -0.000000 -2.200000
vertex 1.272792 -1.272792 0.000000
vertex 1.272792 -1.272792 -2.200000
endloop
endfacet
facet normal 0.382683 -0.923880 0.000000
outer loop
vertex 1.272792 -1.272792 -2.200000
vertex 1.272792 -1.272792 0.000000
vertex -0.000000 -1.800000 0.000000
endloop
endfacet
facet normal 0.382683 -0.923880 0.000000
outer loop
vertex 1.272792 -1.272792 -2.200000
vertex -0.000000 -1.800000 0.000000
vertex -0.000000 -1.800000 -2.200000
endloop
endfacet
facet normal -0.382683 -0.923880 0.000000
outer loop
vertex -0.000000 -1.800000 -2.200000
vertex -0.000000 -1.800000 0.000000
vertex -1.272792 -1.272792 0.000000
endloop
endfacet
facet normal -0.382683 -0.923880 0.000000
outer loop
vertex -0.000000 -1.800000 -2.200000
vertex -1.272792 -1.272792 0.000000
vertex -1.272792 -1.272792 -2.200000
endloop
endfacet
facet normal -0.923880 -0.382683 0.000000
outer loop
vertex -1.272792 -1.272792 -2.200000
vertex -1.272792 -1.272792 0.000000
vertex -1.800000 0.000000 0.000000
endloop
endfacet
facet normal -0.923880 -0.382683 0.000000
outer loop
vertex -1.272792 -1.272792 -2.200000
vertex -1.800000 0.000000 0.000000
vertex -1.800000 0.000000 -2.200000
endloop
endfacet
facet normal 0.000000 0.000000 1.000000
outer loop
vertex 1.800000 -0.000000 0.000000
vertex 1.272792 1.272792 0.000000
vertex 0.000000 1.800000 0.000000
endloop
endfacet
facet normal 0.000000 0.000000 1.000000
outer loop
vertex 0.000000 1.800000 0.000000
vertex -1.272792 1.272792 0.000000
vertex -1.800000 0.000000 0.000000
endloop
endfacet
facet normal 0.000000 0.000000 1.000000
outer loop
vertex -1.800000 0.000000 0.000000
vertex -1.272792 -1.272792 0.000000
vertex -0.000000 -1.800000 0.000000
endloop
endfacet
facet normal 0.000000 0.000000 1.000000
outer loop
vertex -0.000000 -1.800000 0.000000
vertex 1.272792 -1.272792 0.000000
vertex 1.800000 -0.000000 0.000000
endloop
endfacet
facet normal 0.000000 0.000000 1.000000
outer loop
vertex 1.800000 -0.000000 0.000000
vertex 0.000000 1.800000 0.000000
vertex -1.800000 0.000000 0.000000
endloop
endfacet
facet normal 0.000000 0.000000 1.000000
outer loop
vertex -1.800000 0.000000 0.000000
vertex -0.000000 -1.800000 0.000000
vertex 1.800000 -0.000000 0.000000
endloop
endfacet
facet normal -0.923880 0.382683 0.000000
outer loop
vertex -1.800000 0.000000 -2.200000
vertex -1.800000 0.000000 0.000000
vertex -1.272792 1.272792 0.000000
endloop
endfacet
facet normal -0.923880 0.382683 0.000000
outer loop
vertex -1.800000 0.000000 -2.200000
vertex -1.272792 1.272792 0.000000
vertex -1.272792 1.272792 -2.200000
endloop
endfacet
facet normal -0.382683 0.923880 0.000000
outer loop
vertex -1.272792 1.272792 -2.200000
vertex -1.272792 1.272792 0.000000
vertex 0.000000 1.800000 0.000000
endloop
endfacet
facet normal -0.382683 0.923880 0.000000
outer loop
vertex -1.272792 1.272792 -2.200000
vertex 0.000000 1.800000 0.000000
vertex 0.000000 1.800000 -2.200000
endloop
endfacet
facet normal 0.000000 0.000000 -1.000000
outer loop
vertex -1.272792 1.272792 -2.200000
vertex 0.000000 1.800000 -2.200000
vertex 1.272792 1.272792 -2.200000
endloop
endfacet
facet normal 0.000000 0.000000 -1.000000
outer loop
vertex 1.272792 1.272792 -2.200000
vertex 1.800000 -0.000000 -2.200000
vertex 1.272792 -1.272792 -2.200000
endloop
endfacet
facet normal 0.000000 0.000000 -1.000000
outer loop
vertex 1.272792 -1.272792 -2.200000
vertex -0.000000 -1.800000 -2.200000
vertex -1.272792 -1.272792 -2.200000
endloop
endfacet
facet normal 0.000000 0.000000 -1.000000
outer loop
vertex -1.272792 -1.272792 -2.200000
vertex -1.800000 0.000000 -2.200000
vertex -1.272792 1.272792 -2.200000
endloop
endfacet
facet normal 0.000000 0.000000 -1.000000
outer loop
vertex -1.272792 1.272792 -2.200000
vertex 1.272792 1.272792 -2.200000
vertex 1.272792 -1.272792 -2.200000
endloop
endfacet
facet normal 0.000000 0.000000 -1.000000
outer loop
vertex 1.272792 -1.272792 -2.200000
vertex -1.272792 -1.272792 -2.200000
vertex -1.272792 1.272792 -2.200000
endloop
endfacet
facet normal -1.000000 0.000000 0.000000
outer loop
vertex -0.000000 -2.700000 0.000000
vertex -0.000000 -2.700000 -2.200000
vertex -0.000000 -3.600000 -2.200000
endloop
endfacet
facet normal -1.000000 0.000000 0.000000
outer loop
vertex -0.000000 -2.700000 0.000000
vertex -0.000000 -3.600000 -2.200000
vertex -0.000000 -3.600000 0.000000
endloop
endfacet
facet normal -1.000000 0.000000 0.000000
outer loop
vertex -0.000000 -1.800000 0.000000
vertex -0.000000 -1.800000 -2.200000
vertex -0.000000 -2.700000 -2.200000
endloop
endfacet
facet normal -1.000000 0.000000 0.000000
outer loop
vertex -0.000000 -1.800000 0.000000
vertex -0.000000 -2.700000 -2.200000
vertex -0.000000 -2.700000 0.000000
endloop
endfacet
facet normal 0.000000 -1.000000 0.000000
outer loop
vertex -0.000000 -2.700000 0.000000
vertex -0.000000 -2.700000 -2.200000
vertex 1.028571 -2.700000 -2.200000
endloop
endfacet
facet normal 0.000000 -1.000000 0.000000
outer loop
vertex -0.000000 -2.700000 0.000000
vertex 1.028571 -2.700000 -2.200000
vertex 1.028571 -2.700000 0.000000
endloop
endfacet
facet normal 0.000000 -1.000000 0.000000
outer loop
vertex -0.000000 -2.700000 -2.200000
vertex -0.000000 -2.700000 0.000000
vertex -1.028572 -2.700000 0.000000
endloop
endfacet
facet normal 0.000000 -1.000000 0.000000
outer loop
vertex -0.000000 -2.700000 -2.200000
vertex -1.028572 -2.700000 0.000000
vertex -1.028572 -2.700000 -2.200000
endloop
endfacet
facet normal -0.382683 -0.923880 0.000000
outer loop
vertex 0.000000 1.790683 -2.193067
vertex 1.266204 1.266204 -2.193067
vertex 1.266204 1.266204 -0.006933
endloop
endfacet
facet normal -0.382683 -0.923880 0.000000
outer loop
vertex 0.000000 1.790683 -2.193067
vertex 1.266204 1.266204 -0.006933
vertex 0.000000 1.790683 -0.006933
endloop
endfacet
facet normal -0.923880 -0.382684 0.000000
outer loop
vertex 1.266204 1.266204 -2.193067
vertex 1.790683 -0.000000 -2.193067
vertex 1.790683 -0.000000 -0.006933
endloop
endfacet
facet normal -0.923880 -0.382683 0.000000
outer loop
vertex 1.266204 1.266204 -2.193067
vertex 1.790683 -0.000000 -0.006933
vertex 1.266204 1.266204 -0.006933
endloop
endfacet
facet normal -0.923880 0.382683 0.000000
outer loop
vertex 1.790683 -0.000000 -2.193067
vertex 1.266204 -1.266204 -2.193067
vertex 1.266204 -1.266204 -0.006933
endloop
endfacet
facet normal -0.923880 0.382684 0.000000
outer loop
vertex 1.790683 -0.000000 -2.193067
vertex 1.266204 -1.266204 -0.006933
vertex 1.790683 -0.000000 -0.006933
endloop
endfacet
facet normal -0.384340 0.923192 0.000000
outer loop
vertex 1.266204 -1.266204 -2.193067
vertex 0.004648 -1.791411 -2.193608
vertex 0.004648 -1.791411 -0.006392
endloop
endfacet
facet normal -0.384340 0.923192 0.000000
outer loop
vertex 1.266204 -1.266204 -2.193067
vertex 0.004648 -1.791411 -0.006392
vertex 1.266204 -1.266204 -0.006933
endloop
endfacet
facet normal 0.381940 0.924187 0.000000
outer loop
vertex 0.004648 -1.791411 -2.193608
vertex -1.266204 -1.266205 -2.193067
vertex -1.266204 -1.266205 -0.006933
endloop
endfacet
facet normal 0.381940 0.924187 0.000000
outer loop
vertex 0.004648 -1.791411 -2.193608
vertex -1.266204 -1.266205 -0.006933
vertex 0.004648 -1.791411 -0.006392
endloop
endfacet
facet normal 0.923880 0.382684 0.000000
outer loop
vertex -1.266204 -1.266205 -2.193067
vertex -1.790683 0.000000 -2.193067
vertex -1.790683 0.000000 -0.006933
endloop
endfacet
facet normal 0.923880 0.382683 0.000000
outer loop
vertex -1.266204 -1.266205 -2.193067
vertex -1.790683 0.000000 -0.006933
vertex -1.266204 -1.266205 -0.006933
endloop
endfacet
facet normal 0.000000 0.000000 -1.000000
outer loop
vertex 0.000000 1.790683 -0.006933
vertex 1.266204 1.266204 -0.006933
vertex 1.790683 -0.000000 -0.006933
endloop
endfacet
facet normal -0.000518 0.000215 -1.000000
outer loop
vertex 1.790683 -0.000000 -0.006933
vertex 1.266204 -1.266204 -0.006933
vertex 0.004648 -1.791411 -0.006392
endloop
endfacet
facet normal 0.000514 0.000213 -1.000000
outer loop
vertex 0.004648 -1.791411 -0.006392
vertex -1.266204 -1.266205 -0.006933
vertex -1.790683 0.000000 -0.006933
endloop
endfacet
facet normal 0.000000 0.000000 -1.000000
outer loop
vertex -1.790683 0.000000 -0.006933
vertex -1.266205 1.266204 -0.006933
vertex 0.000000 1.790683 -0.006933
endloop
endfacet
facet normal -0.000151 -0.000151 -1.000000
outer loop
vertex 0.000000 1.790683 -0.006933
vertex 1.790683 -0.000000 -0.006933
vertex 0.004648 -1.791411 -0.006392
endloop
endfacet
facet normal 0.000151 -0.000151 -1.000000
outer loop
vertex 0.004648 -1.791411 -0.006392
vertex -1.790683 0.000000 -0.006933
vertex 0.000000 1.790683 -0.006933
endloop
endfacet
facet normal 0.923880 -0.382683 0.000000
outer loop
vertex -1.790683 0.000000 -2.193067
vertex -1.266205 1.266204 -2.193067
vertex -1.266205 1.266204 -0.006933
endloop
endfacet
facet normal 0.923880 -0.382683 0.000000
outer loop
vertex -1.790683 0.000000 -2.193067
vertex -1.266205 1.266204 -0.006933
vertex -1.790683 0.000000 -0.006933
endloop
endfacet
facet normal 0.382683 -0.923880 0.000000
outer loop
vertex -1.266205 1.266204 -2.193067
vertex 0.000000 1.790683 -2.193067
vertex 0.000000 1.790683 -0.006933
endloop
endfacet
facet normal 0.382683 -0.923880 0.000000
outer loop
vertex -1.266205 1.266204 -2.193067
vertex 0.000000 1.790683 -0.006933
vertex -1.266205 1.266204 -0.006933
endloop
endfacet
facet normal -0.000000 0.000000 1.000000
outer loop
vertex 1.266204 1.266204 -2.193067
vertex 0.000000 1.790683 -2.193067
vertex -1.266205 1.266204 -2.193067
endloop
endfacet
facet normal -0.000001 0.000000 1.000000
outer loop
vertex -1.266205 1.266204 -2.193067
vertex -1.790683 0.000000 -2.193067
vertex -1.266204 -1.266205 -2.193067
endloop
endfacet
facet normal 0.000000 -0.001030 0.999999
outer loop
vertex -1.266204 -1.266205 -2.193067
vertex 0.004648 -1.791411 -2.193608
vertex 1.266204 -1.266204 -2.193067
endloop
endfacet
facet normal 0.000000 0.000000 1.000000
outer loop
vertex 1.266204 -1.266204 -2.193067
vertex 1.790683 -0.000000 -2.193067
vertex 1.266204 1.266204 -2.193067
endloop
endfacet
facet normal 0.000000 0.000000 1.000000
outer loop
vertex 1.266204 1.266204 -2.193067
vertex -1.266205 1.266204 -2.193067
vertex -1.266204 -1.266205 -2.193067
endloop
endfacet
facet normal -0.000000 0.000000 1.000000
outer loop
vertex -1.266204 -1.266205 -2.193067
vertex 1.266204 -1.266204 -2.193067
vertex 1.266204 1.266204 -2.193067
endloop
endfacet
facet normal 0.999993 0.003869 0.000000
outer loop
vertex 0.008485 -2.691515 0.000000
vertex 0.012000 -3.600000 0.000000
vertex 0.012000 -3.600000 -2.200000
endloop
endfacet
facet normal 0.999993 0.003869 0.000000
outer loop
vertex 0.008485 -2.691515 0.000000
vertex 0.012000 -3.600000 -2.200000
vertex 0.008485 -2.691515 -2.200000
endloop
endfacet
facet normal 0.999991 0.004263 0.000000
outer loop
vertex 0.004648 -1.791411 -0.006392
vertex 0.008485 -2.691515 0.000000
vertex 0.008485 -2.691515 -2.200000
endloop
endfacet
facet normal 0.999991 0.004263 0.000000
outer loop
vertex 0.004648 -1.791411 -0.006392
vertex 0.008485 -2.691515 -2.200000
vertex 0.004648 -1.791411 -2.193608
endloop
endfacet
facet normal -0.003446 0.999994 0.000000
outer loop
vertex 0.008485 -2.691515 0.000000
vertex 1.028571 -2.688000 0.000000
vertex 1.028571 -2.688000 -2.200000
endloop
endfacet
facet normal -0.003446 0.999994 0.000000
outer loop
vertex 0.008485 -2.691515 0.000000
vertex 1.028571 -2.688000 -2.200000
vertex 0.008485 -2.691515 -2.200000
endloop
endfacet
facet normal 0.003389 0.999994 0.000000
outer loop
vertex 0.008485 -2.691515 -2.200000
vertex -1.028572 -2.688000 -2.200000
vertex -1.028572 -2.688000 0.000000
endloop
endfacet
facet normal 0.003389 0.999994 0.000000
outer loop
vertex 0.008485 -2.691515 -2.200000
vertex -1.028572 -2.688000 0.000000
vertex 0.008485 -2.691515 0.000000
endloop
endfacet
facet normal 0.000000 -1.000000 0.000000
outer loop
vertex -0.000000 -3.600000 0.000000
vertex -0.000000 -3.600000 -2.200000
vertex 0.012000 -3.600000 -2.200000
endloop
endfacet
facet normal 0.000000 -1.000000 0.000000
outer loop
vertex -0.000000 -3.600000 0.000000
vertex 0.012000 -3.600000 -2.200000
vertex 0.012000 -3.600000 0.000000
endloop
endfacet
facet normal -0.000012 0.000000 -1.000000
outer loop
vertex -0.000000 -3.600000 -2.200000
vertex -0.000000 -2.700000 -2.200000
vertex 0.008485 -2.691515 -2.200000
endloop
endfacet
facet normal 0.000000 0.000000 -1.000000
outer loop
vertex -0.000000 -3.600000 -2.200000
vertex 0.008485 -2.691515 -2.200000
vertex 0.012000 -3.600000 -2.200000
endloop
endfacet
facet normal 0.000000 0.000000 1.000000
outer loop
vertex -0.000000 -1.800000 0.000000
vertex -0.000000 -2.700000 0.000000
vertex 0.008485 -2.691515 0.000000
endloop
endfacet
facet normal 0.803796 0.007650 0.594856
outer loop
vertex -0.000000 -1.800000 0.000000
vertex 0.008485 -2.691515 0.000000
vertex 0.004648 -1.791411 -0.006392
endloop
endfacet
facet normal 0.808755 0.000000 -0.588145
outer loop
vertex -0.000000 -2.700000 -2.200000
vertex -0.000000 -1.800000 -2.200000
vertex 0.004648 -1.791411 -2.193608
endloop
endfacet
facet normal -0.007087 0.007071 -0.999950
outer loop
vertex -0.000000 -2.700000 -2.200000
vertex 0.004648 -1.791411 -2.193608
vertex 0.008485 -2.691515 -2.200000
endloop
endfacet
facet normal 0.000000 0.000000 1.000000
outer loop
vertex -0.000000 -2.700000 0.000000
vertex -0.000000 -3.600000 0.000000
vertex 0.012000 -3.600000 0.000000
endloop
endfacet
facet normal 0.000000 0.000000 1.000000
outer loop
vertex -0.000000 -2.700000 0.000000
vertex 0.012000 -3.600000 0.000000
vertex 0.008485 -2.691515 0.000000
endloop
endfacet
facet normal 1.000000 0.000000 0.000000
outer loop
vertex 1.028571 -2.700000 0.000000
vertex 1.028571 -2.700000 -2.200000
vertex 1.028571 -2.688000 -2.200000
endloop
endfacet
facet normal 1.000000 0.000000 0.000000
outer loop
vertex 1.028571 -2.700000 0.000000
vertex 1.028571 -2.688000 -2.200000
vertex 1.028571 -2.688000 0.000000
endloop
endfacet
facet normal 0.000000 0.000000 -1.000000
outer loop
vertex 1.028571 -2.700000 -2.200000
vertex -0.000000 -2.700000 -2.200000
vertex 0.008485 -2.691515 -2.200000
endloop
endfacet
facet normal 0.000000 0.000000 -1.000000
outer loop
vertex 1.028571 -2.700000 -2.200000
vertex 0.008485 -2.691515 -2.200000
vertex 1.028571 -2.688000 -2.200000
endloop
endfacet
facet normal 0.000000 0.000000 1.000000
outer loop
vertex -0.000000 -2.700000 0.000000
vertex 1.028571 -2.700000 0.000000
vertex 1.028571 -2.688000 0.000000
endloop
endfacet
facet normal 0.000000 0.000000 1.000000
outer loop
vertex -0.000000 -2.700000 0.000000
vertex 1.028571 -2.688000 0.000000
vertex 0.008485 -2.691515 0.000000
endloop
endfacet
facet normal -1.000000 0.000000 0.000000
outer loop
vertex -1.028572 -2.700000 -2.200000
vertex -1.028572 -2.700000 0.000000
vertex -1.028572 -2.688000 0.000000
endloop
endfacet
facet normal -1.000000 0.000000 0.000000
outer loop
vertex -1.028572 -2.700000 -2.200000
vertex -1.028572 -2.688000 0.000000
vertex -1.028572 -2.688000 -2.200000
endloop
endfacet
facet normal 0.000000 0.000000 1.000000
outer loop
vertex -1.028572 -2.700000 0.000000
vertex -0.000000 -2.700000 0.000000
vertex 0.008485 -2.691515 0.000000
endloop
endfacet
facet normal 0.000000 0.000000 1.000000
outer loop
vertex -1.028572 -2.700000 0.000000
vertex 0.008485 -2.691515 0.000000
vertex -1.028572 -2.688000 0.000000
endloop
endfacet
facet normal 0.000000 0.000000 -1.000000
outer loop
vertex -0.000000 -2.700000 -2.200000
vertex -1.028572 -2.700000 -2.200000
vertex -1.028572 -2.688000 -2.200000
endloop
endfacet
facet normal -0.000000 0.000000 -1.000000
outer loop
vertex -0.000000 -2.700000 -2.200000
vertex -1.028572 -2.688000 -2.200000
vertex 0.008485 -2.691515 -2.200000
endloop
endfacet
endsolid Exported from Blender-3.2.0
