solid Exported from Blender-3.2.0
facet normal 0.382684 0.923880 0.000000
outer loop
vertex 0.000000 1.650000 -2.200000
vertex 0.000000 1.650000 0.000000
vertex 1.166726 1.166726 0.000000
endloop
endfacet
facet normal 0.382684 0.923880 0.000000
outer loop
vertex 0.000000 1.650000 -2.200000
vertex 1.166726 1.166726 0.000000
vertex 1.166726 1.166726 -2.200000
endloop
endfacet
facet normal 0.923880 0.382684 0.000000
outer loop
vertex 1.166726 1.166726 -2.200000
vertex 1.166726 1.166726 0.000000
vertex 1.650000 -0.000000 0.000000
endloop
endfacet
facet normal 0.923880 0.382684 0.000000
outer loop
vertex 1.166726 1.166726 -2.200000
vertex 1.650000 -0.000000 0.000000
vertex 1.650000 -0.000000 -2.200000
endloop
endfacet
facet normal 0.923880 -0.382684 0.000000
outer loop
vertex 1.650000 -0.000000 -2.200000
vertex 1.650000 -0.000000 0.000000
vertex 1.166726 -1.166726 0.000000
endloop
endfacet
facet normal 0.923880 -0.382684 0.000000
outer loop
vertex 1.650000 -0.000000 -2.200000
vertex 1.166726 -1.166726 0.000000
vertex 1.166726 -1.166726 -2.200000
endloop
endfacet
facet normal 0.382684 -0.923880 0.000000
outer loop
vertex 1.166726 -1.166726 -2.200000
vertex 1.166726 -1.166726 0.000000
vertex -0.000000 -1.650000 0.000000
endloop
endfacet
facet normal 0.382684 -0.923880 0.000000
outer loop
vertex 1.166726 -1.166726 -2.200000
vertex -0.000000 -1.650000 0.000000
vertex -0.000000 -1.650000 -2.200000
endloop
endfacet
facet normal -0.382683 -0.923880 0.000000
outer loop
vertex -0.000000 -1.650000 -2.200000
vertex -0.000000 -1.650000 0.000000
vertex -1.166726 -1.166726 0.000000
endloop
endfacet
facet normal -0.382683 -0.923880 0.000000
outer loop
vertex -0.000000 -1.650000 -2.200000
vertex -1.166726 -1.166726 0.000000
vertex -1.166726 -1.166726 -2.200000
endloop
endfacet
facet normal -0.923880 -0.382684 0.000000
outer loop
vertex -1.166726 -1.166726 -2.200000
vertex -1.166726 -1.166726 0.000000
vertex -1.650000 0.000000 0.000000
endloop
endfacet
facet normal -0.923880 -0.382684 0.000000
outer loop
vertex -1.166726 -1.166726 -2.200000
vertex -1.650000 0.000000 0.000000
vertex -1.650000 0.000000 -2.200000
endloop
endfacet
facet normal 0.000000 0.000000 1.000000
outer loop
vertex 1.650000 -0.000000 0.000000
vertex 1.166726 1.166726 0.000000
vertex 0.000000 1.650000 0.000000
endloop
endfacet
facet normal 0.000000 0.000000 1.000000
outer loop
vertex 0.000000 1.650000 0.000000
vertex -1.166726 1.166726 0.000000
vertex -1.650000 0.000000 0.000000
endloop
endfacet
facet normal 0.000000 0.000000 1.000000
outer loop
vertex -1.650000 0.000000 0.000000
vertex -1.166726 -1.166726 0.000000
vertex -0.000000 -1.650000 0.000000
endloop
endfacet
facet normal 0.000000 0.000000 1.000000
outer loop
vertex -0.000000 -1.650000 0.000000
vertex 1.166726 -1.166726 0.000000
vertex 1.650000 -0.000000 0.000000
endloop
endfacet
facet normal 0.000000 0.000000 1.000000
outer loop
vertex 1.650000 -0.000000 0.000000
vertex 0.000000 1.650000 0.000000
vertex -1.650000 0.000000 0.000000
endloop
endfacet
facet normal 0.000000 0.000000 1.000000
outer loop
vertex -1.650000 0.000000 0.000000
vertex -0.000000 -1.650000 0.000000
vertex 1.650000 -0.000000 0.000000
endloop
endfacet
facet normal -0.923880 0.382683 0.000000
outer loop
vertex -1.650000 0.000000 -2.200000
vertex -1.650000 0.000000 0.000000
vertex -1.166726 1.166726 0.000000
endloop
endfacet
facet normal -0.923880 0.382683 0.000000
outer loop
vertex -1.650000 0.000000 -2.200000
vertex -1.166726 1.166726 0.000000
vertex -1.166726 1.166726 -2.200000
endloop
endfacet
facet normal -0.382684 0.923880 0.000000
outer loop
vertex -1.166726 1.166726 -2.200000
vertex -1.166726 1.166726 0.000000
vertex 0.000000 1.650000 0.000000
endloop
endfacet
facet normal -0.382684 0.923880 0.000000
outer loop
vertex -1.166726 1.166726 -2.200000
vertex 0.000000 1.650000 0.000000
vertex 0.000000 1.650000 -2.200000
endloop
endfacet
facet normal 0.000000 0.000000 -1.000000
outer loop
vertex -1.166726 1.166726 -2.200000
vertex 0.000000 1.650000 -2.200000
vertex 1.166726 1.166726 -2.200000
endloop
endfacet
facet normal 0.000000 0.000000 -1.000000
outer loop
vertex 1.166726 1.166726 -2.200000
vertex 1.650000 -0.000000 -2.200000
vertex 1.166726 -1.166726 -2.200000
endloop
endfacet
facet normal 0.000000 0.000000 -1.000000
outer loop
vertex 1.166726 -1.166726 -2.200000
vertex -0.000000 -1.650000 -2.200000
vertex -1.166726 -1.166726 -2.200000
endloop
endfacet
facet normal 0.000000 0.000000 -1.000000
outer loop
vertex -1.166726 -1.166726 -2.200000
vertex -1.650000 0.000000 -2.200000
vertex -1.166726 1.166726 -2.200000
endloop
endfacet
facet normal 0.000000 0.000000 -1.000000
outer loop
vertex -1.166726 1.166726 -2.200000
vertex 1.166726 1.166726 -2.200000
vertex 1.166726 -1.166726 -2.200000
endloop
endfacet
facet normal -0.000000 0.000000 -1.000000
outer loop
vertex 1.166726 -1.166726 -2.200000
vertex -1.166726 -1.166726 -2.200000
vertex -1.166726 1.166726 -2.200000
endloop
endfacet
facet normal -1.000000 0.000000 0.000000
outer loop
vertex -0.000000 -2.475000 0.000000
vertex -0.000000 -2.475000 -2.200000
vertex -0.000000 -3.300000 -2.200000
endloop
endfacet
facet normal -1.000000 0.000000 0.000000
outer loop
vertex -0.000000 -2.475000 0.000000
vertex -0.000000 -3.300000 -2.200000
vertex -0.000000 -3.300000 0.000000
endloop
endfacet
facet normal -1.000000 0.000000 0.000000
outer loop
vertex -0.000000 -1.650000 0.000000
vertex -0.000000 -1.650000 -2.200000
vertex -0.000000 -2.475000 -2.200000
endloop
endfacet
facet normal -1.000000 0.000000 0.000000
outer loop
vertex -0.000000 -1.650000 0.000000
vertex -0.000000 -2.475000 -2.200000
vertex -0.000000 -2.475000 0.000000
endloop
endfacet
facet normal 0.000000 -1.000000 0.000000
outer loop
vertex -0.000000 -2.475000 0.000000
vertex -0.000000 -2.475000 -2.200000
vertex 0.942857 -2.475000 -2.200000
endloop
endfacet
facet normal 0.000000 -1.000000 0.000000
outer loop
vertex -0.000000 -2.475000 0.000000
vertex 0.942857 -2.475000 -2.200000
vertex 0.942857 -2.475000 0.000000
endloop
endfacet
facet normal 0.000000 -1.000000 0.000000
outer loop
vertex -0.000000 -2.475000 -2.200000
vertex -0.000000 -2.475000 0.000000
vertex -0.942857 -2.475000 0.000000
endloop
endfacet
facet normal 0.000000 -1.000000 0.000000
outer loop
vertex -0.000000 -2.475000 -2.200000
vertex -0.942857 -2.475000 0.000000
vertex -0.942857 -2.475000 -2.200000
endloop
endfacet
facet normal -0.382683 -0.923880 0.000000
outer loop
vertex 0.000000 1.641460 -2.193067
vertex 1.160687 1.160687 -2.193067
vertex 1.160687 1.160687 -0.006933
endloop
endfacet
facet normal -0.382683 -0.923880 0.000000
outer loop
vertex 0.000000 1.641460 -2.193067
vertex 1.160687 1.160687 -0.006933
vertex 0.000000 1.641460 -0.006933
endloop
endfacet
facet normal -0.923880 -0.382683 0.000000
outer loop
vertex 1.160687 1.160687 -2.193067
vertex 1.641460 -0.000000 -2.193067
vertex 1.641460 -0.000000 -0.006933
endloop
endfacet
facet normal -0.923880 -0.382684 0.000000
outer loop
vertex 1.160687 1.160687 -2.193067
vertex 1.641460 -0.000000 -0.006933
vertex 1.160687 1.160687 -0.006933
endloop
endfacet
facet normal -0.923880 0.382684 0.000000
outer loop
vertex 1.641460 -0.000000 -2.193067
vertex 1.160687 -1.160687 -2.193067
vertex 1.160687 -1.160687 -0.006933
endloop
endfacet
facet normal -0.923879 0.382683 0.000000
outer loop
vertex 1.641460 -0.000000 -2.193067
vertex 1.160687 -1.160687 -0.006933
vertex 1.641460 -0.000000 -0.006933
endloop
endfacet
facet normal -0.384340 0.923192 0.000000
outer loop
vertex 1.160687 -1.160687 -2.193067
vertex 0.004261 -1.642127 -2.193608
vertex 0.004261 -1.642127 -0.006392
endloop
endfacet
facet normal -0.384340 0.923192 0.000000
outer loop
vertex 1.160687 -1.160687 -2.193067
vertex 0.004261 -1.642127 -0.006392
vertex 1.160687 -1.160687 -0.006933
endloop
endfacet
facet normal 0.381940 0.924187 0.000000
outer loop
vertex 0.004261 -1.642127 -2.193608
vertex -1.160687 -1.160687 -2.193067
vertex -1.160687 -1.160687 -0.006933
endloop
endfacet
facet normal 0.381940 0.924187 0.000000
outer loop
vertex 0.004261 -1.642127 -2.193608
vertex -1.160687 -1.160687 -0.006933
vertex 0.004261 -1.642127 -0.006392
endloop
endfacet
facet normal 0.923880 0.382683 0.000000
outer loop
vertex -1.160687 -1.160687 -2.193067
vertex -1.641460 0.000000 -2.193067
vertex -1.641460 0.000000 -0.006933
endloop
endfacet
facet normal 0.923880 0.382684 0.000000
outer loop
vertex -1.160687 -1.160687 -2.193067
vertex -1.641460 0.000000 -0.006933
vertex -1.160687 -1.160687 -0.006933
endloop
endfacet
facet normal -0.000000 0.000000 -1.000000
outer loop
vertex 0.000000 1.641460 -0.006933
vertex 1.160687 1.160687 -0.006933
vertex 1.641460 -0.000000 -0.006933
endloop
endfacet
facet normal -0.000566 0.000234 -1.000000
outer loop
vertex 1.641460 -0.000000 -0.006933
vertex 1.160687 -1.160687 -0.006933
vertex 0.004261 -1.642127 -0.006392
endloop
endfacet
facet normal 0.000561 0.000232 -1.000000
outer loop
vertex 0.004261 -1.642127 -0.006392
vertex -1.160687 -1.160687 -0.006933
vertex -1.641460 0.000000 -0.006933
endloop
endfacet
facet normal 0.000000 0.000000 -1.000000
outer loop
vertex -1.641460 0.000000 -0.006933
vertex -1.160688 1.160687 -0.006933
vertex 0.000000 1.641460 -0.006933
endloop
endfacet
facet normal -0.000165 -0.000165 -1.000000
outer loop
vertex 0.000000 1.641460 -0.006933
vertex 1.641460 -0.000000 -0.006933
vertex 0.004261 -1.642127 -0.006392
endloop
endfacet
facet normal 0.000165 -0.000165 -1.000000
outer loop
vertex 0.004261 -1.642127 -0.006392
vertex -1.641460 0.000000 -0.006933
vertex 0.000000 1.641460 -0.006933
endloop
endfacet
facet normal 0.923880 -0.382683 0.000000
outer loop
vertex -1.641460 0.000000 -2.193067
vertex -1.160688 1.160687 -2.193067
vertex -1.160688 1.160687 -0.006933
endloop
endfacet
facet normal 0.923880 -0.382683 0.000000
outer loop
vertex -1.641460 0.000000 -2.193067
vertex -1.160688 1.160687 -0.006933
vertex -1.641460 0.000000 -0.006933
endloop
endfacet
facet normal 0.382683 -0.923880 0.000000
outer loop
vertex -1.160688 1.160687 -2.193067
vertex 0.000000 1.641460 -2.193067
vertex 0.000000 1.641460 -0.006933
endloop
endfacet
facet normal 0.382683 -0.923880 0.000000
outer loop
vertex -1.160688 1.160687 -2.193067
vertex 0.000000 1.641460 -0.006933
vertex -1.160688 1.160687 -0.006933
endloop
endfacet
facet normal 0.000000 0.000000 1.000000
outer loop
vertex 1.160687 1.160687 -2.193067
vertex 0.000000 1.641460 -2.193067
vertex -1.160688 1.160687 -2.193067
endloop
endfacet
facet normal 0.000000 0.000000 1.000000
outer loop
vertex -1.160688 1.160687 -2.193067
vertex -1.641460 0.000000 -2.193067
vertex -1.160687 -1.160687 -2.193067
endloop
endfacet
facet normal 0.000000 -0.001124 0.999999
outer loop
vertex -1.160687 -1.160687 -2.193067
vertex 0.004261 -1.642127 -2.193608
vertex 1.160687 -1.160687 -2.193067
endloop
endfacet
facet normal 0.000000 0.000000 1.000000
outer loop
vertex 1.160687 -1.160687 -2.193067
vertex 1.641460 -0.000000 -2.193067
vertex 1.160687 1.160687 -2.193067
endloop
endfacet
facet normal 0.000000 0.000000 1.000000
outer loop
vertex 1.160687 1.160687 -2.193067
vertex -1.160688 1.160687 -2.193067
vertex -1.160687 -1.160687 -2.193067
endloop
endfacet
facet normal 0.000000 0.000000 1.000000
outer loop
vertex -1.160687 -1.160687 -2.193067
vertex 1.160687 -1.160687 -2.193067
vertex 1.160687 1.160687 -2.193067
endloop
endfacet
facet normal 0.999992 0.003869 0.000000
outer loop
vertex 0.007778 -2.467222 0.000000
vertex 0.011000 -3.300000 0.000000
vertex 0.011000 -3.300000 -2.200000
endloop
endfacet
facet normal 0.999992 0.003869 0.000000
outer loop
vertex 0.007778 -2.467222 0.000000
vertex 0.011000 -3.300000 -2.200000
vertex 0.007778 -2.467222 -2.200000
endloop
endfacet
facet normal 0.999991 0.004263 0.000000
outer loop
vertex 0.004261 -1.642127 -0.006392
vertex 0.007778 -2.467222 0.000000
vertex 0.007778 -2.467222 -2.200000
endloop
endfacet
facet normal 0.999991 0.004263 0.000000
outer loop
vertex 0.004261 -1.642127 -0.006392
vertex 0.007778 -2.467222 -2.200000
vertex 0.004261 -1.642127 -2.193608
endloop
endfacet
facet normal -0.003446 0.999994 0.000000
outer loop
vertex 0.007778 -2.467222 0.000000
vertex 0.942857 -2.464000 0.000000
vertex 0.942857 -2.464000 -2.200000
endloop
endfacet
facet normal -0.003446 0.999994 0.000000
outer loop
vertex 0.007778 -2.467222 0.000000
vertex 0.942857 -2.464000 -2.200000
vertex 0.007778 -2.467222 -2.200000
endloop
endfacet
facet normal 0.003389 0.999994 0.000000
outer loop
vertex 0.007778 -2.467222 -2.200000
vertex -0.942857 -2.464000 -2.200000
vertex -0.942857 -2.464000 0.000000
endloop
endfacet
facet normal 0.003389 0.999994 0.000000
outer loop
vertex 0.007778 -2.467222 -2.200000
vertex -0.942857 -2.464000 0.000000
vertex 0.007778 -2.467222 0.000000
endloop
endfacet
facet normal 0.000000 -1.000000 0.000000
outer loop
vertex -0.000000 -3.300000 0.000000
vertex -0.000000 -3.300000 -2.200000
vertex 0.011000 -3.300000 -2.200000
endloop
endfacet
facet normal 0.000000 -1.000000 0.000000
outer loop
vertex -0.000000 -3.300000 0.000000
vertex 0.011000 -3.300000 -2.200000
vertex 0.011000 -3.300000 0.000000
endloop
endfacet
facet normal 0.000023 0.000000 -1.000000
outer loop
vertex -0.000000 -3.300000 -2.200000
vertex -0.000000 -2.475000 -2.200000
vertex 0.007778 -2.467222 -2.200000
endloop
endfacet
facet normal 0.000000 0.000000 -1.000000
outer loop
vertex -0.000000 -3.300000 -2.200000
vertex 0.007778 -2.467222 -2.200000
vertex 0.011000 -3.300000 -2.200000
endloop
endfacet
facet normal 0.000000 0.000000 1.000000
outer loop
vertex -0.000000 -1.650000 0.000000
vertex -0.000000 -2.475000 0.000000
vertex 0.007778 -2.467222 0.000000
endloop
endfacet
facet normal 0.827521 0.007876 0.561379
outer loop
vertex -0.000000 -1.650000 0.000000
vertex 0.007778 -2.467222 0.000000
vertex 0.004261 -1.642127 -0.006392
endloop
endfacet
facet normal 0.832070 0.000000 -0.554671
outer loop
vertex -0.000000 -2.475000 -2.200000
vertex -0.000000 -1.650000 -2.200000
vertex 0.004261 -1.642127 -2.193608
endloop
endfacet
facet normal -0.007731 0.007713 -0.999940
outer loop
vertex -0.000000 -2.475000 -2.200000
vertex 0.004261 -1.642127 -2.193608
vertex 0.007778 -2.467222 -2.200000
endloop
endfacet
facet normal 0.000000 0.000000 1.000000
outer loop
vertex -0.000000 -2.475000 0.000000
vertex -0.000000 -3.300000 0.000000
vertex 0.011000 -3.300000 0.000000
endloop
endfacet
facet normal 0.000000 0.000000 1.000000
outer loop
vertex -0.000000 -2.475000 0.000000
vertex 0.011000 -3.300000 0.000000
vertex 0.007778 -2.467222 0.000000
endloop
endfacet
facet normal 1.000000 0.000000 0.000000
outer loop
vertex 0.942857 -2.475000 0.000000
vertex 0.942857 -2.475000 -2.200000
vertex 0.942857 -2.464000 -2.200000
endloop
endfacet
facet normal 1.000000 0.000000 0.000000
outer loop
vertex 0.942857 -2.475000 0.000000
vertex 0.942857 -2.464000 -2.200000
vertex 0.942857 -2.464000 0.000000
endloop
endfacet
facet normal 0.000000 0.000000 -1.000000
outer loop
vertex 0.942857 -2.475000 -2.200000
vertex -0.000000 -2.475000 -2.200000
vertex 0.007778 -2.467222 -2.200000
endloop
endfacet
facet normal 0.000000 0.000000 -1.000000
outer loop
vertex 0.942857 -2.475000 -2.200000
vertex 0.007778 -2.467222 -2.200000
vertex 0.942857 -2.464000 -2.200000
endloop
endfacet
facet normal 0.000000 0.000000 1.000000
outer loop
vertex -0.000000 -2.475000 0.000000
vertex 0.942857 -2.475000 0.000000
vertex 0.942857 -2.464000 0.000000
endloop
endfacet
facet normal 0.000000 0.000000 1.000000
outer loop
vertex -0.000000 -2.475000 0.000000
vertex 0.942857 -2.464000 0.000000
vertex 0.007778 -2.467222 0.000000
endloop
endfacet
facet normal -1.000000 0.000000 0.000000
outer loop
vertex -0.942857 -2.475000 -2.200000
vertex -0.942857 -2.475000 0.000000
vertex -0.942857 -2.464000 0.000000
endloop
endfacet
facet normal -1.000000 0.000000 0.000000
outer loop
vertex -0.942857 -2.475000 -2.200000
vertex -0.942857 -2.464000 0.000000
vertex -0.942857 -2.464000 -2.200000
endloop
endfacet
facet normal 0.000000 0.000000 1.000000
outer loop
vertex -0.942857 -2.475000 0.000000
vertex -0.000000 -2.475000 0.000000
vertex 0.007778 -2.467222 0.000000
endloop
endfacet
facet normal 0.000000 0.000000 1.000000
outer loop
vertex -0.942857 -2.475000 0.000000
vertex 0.007778 -2.467222 0.000000
vertex -0.942857 -2.464000 0.000000
endloop
endfacet
facet normal 0.000000 0.000000 -1.000000
outer loop
vertex -0.000000 -2.475000 -2.200000
vertex -0.942857 -2.475000 -2.200000
vertex -0.942857 -2.464000 -2.200000
endloop
endfacet
facet normal -0.000000 0.000000 -1.000000
outer loop
vertex -0.000000 -2.475000 -2.200000
vertex -0.942857 -2.464000 -2.200000
vertex 0.007778 -2.467222 -2.200000
endloop
endfacet
endsolid Exported from Blender-3.2.0
