solid Spine
  facet normal -0.000000e+00 0.000000e+00 -1.000000e+00
    outer loop
      vertex 0.000000e+00 0.000000e+00 -8.000000e+01
      vertex 1.879385e+01 4.531572e+00 -8.000000e+01
      vertex 2.000000e+01 0.000000e+00 -8.000000e+01
    endloop
  endfacet
  facet normal 0.000000e+00 0.000000e+00 -1.000000e+00
    outer loop
      vertex 0.000000e+00 0.000000e+00 -8.000000e+01
      vertex 1.532089e+01 8.516570e+00 -8.000000e+01
      vertex 1.879385e+01 4.531572e+00 -8.000000e+01
    endloop
  endfacet
  facet normal 0.000000e+00 0.000000e+00 -1.000000e+00
    outer loop
      vertex 0.000000e+00 0.000000e+00 -8.000000e+01
      vertex 9.999999e+00 1.147434e+01 -8.000000e+01
      vertex 1.532089e+01 8.516570e+00 -8.000000e+01
    endloop
  endfacet
  facet normal 0.000000e+00 0.000000e+00 -1.000000e+00
    outer loop
      vertex 0.000000e+00 0.000000e+00 -8.000000e+01
      vertex 3.472962e+00 1.304814e+01 -8.000000e+01
      vertex 9.999999e+00 1.147434e+01 -8.000000e+01
    endloop
  endfacet
  facet normal 0.000000e+00 -0.000000e+00 -1.000000e+00
    outer loop
      vertex 0.000000e+00 0.000000e+00 -8.000000e+01
      vertex -3.472966e+00 1.304814e+01 -8.000000e+01
      vertex 3.472962e+00 1.304814e+01 -8.000000e+01
    endloop
  endfacet
  facet normal 0.000000e+00 0.000000e+00 -1.000000e+00
    outer loop
      vertex 0.000000e+00 0.000000e+00 -8.000000e+01
      vertex -1.000000e+01 1.147434e+01 -8.000000e+01
      vertex -3.472966e+00 1.304814e+01 -8.000000e+01
    endloop
  endfacet
  facet normal 0.000000e+00 0.000000e+00 -1.000000e+00
    outer loop
      vertex 0.000000e+00 0.000000e+00 -8.000000e+01
      vertex -1.532089e+01 8.516570e+00 -8.000000e+01
      vertex -1.000000e+01 1.147434e+01 -8.000000e+01
    endloop
  endfacet
  facet normal 0.000000e+00 0.000000e+00 -1.000000e+00
    outer loop
      vertex 0.000000e+00 0.000000e+00 -8.000000e+01
      vertex -1.879385e+01 4.531573e+00 -8.000000e+01
      vertex -1.532089e+01 8.516570e+00 -8.000000e+01
    endloop
  endfacet
  facet normal 0.000000e+00 0.000000e+00 -1.000000e+00
    outer loop
      vertex 0.000000e+00 0.000000e+00 -8.000000e+01
      vertex -2.000000e+01 2.000608e-06 -8.000000e+01
      vertex -1.879385e+01 4.531573e+00 -8.000000e+01
    endloop
  endfacet
  facet normal 0.000000e+00 0.000000e+00 -1.000000e+00
    outer loop
      vertex 0.000000e+00 0.000000e+00 -8.000000e+01
      vertex -1.879385e+01 -4.531569e+00 -8.000000e+01
      vertex -2.000000e+01 2.000608e-06 -8.000000e+01
    endloop
  endfacet
  facet normal 0.000000e+00 0.000000e+00 -1.000000e+00
    outer loop
      vertex 0.000000e+00 0.000000e+00 -8.000000e+01
      vertex -1.532089e+01 -8.516567e+00 -8.000000e+01
      vertex -1.879385e+01 -4.531569e+00 -8.000000e+01
    endloop
  endfacet
  facet normal 0.000000e+00 0.000000e+00 -1.000000e+00
    outer loop
      vertex 0.000000e+00 0.000000e+00 -8.000000e+01
      vertex -1.000001e+01 -1.147434e+01 -8.000000e+01
      vertex -1.532089e+01 -8.516567e+00 -8.000000e+01
    endloop
  endfacet
  facet normal 0.000000e+00 0.000000e+00 -1.000000e+00
    outer loop
      vertex 0.000000e+00 0.000000e+00 -8.000000e+01
      vertex -3.472972e+00 -1.304814e+01 -8.000000e+01
      vertex -1.000001e+01 -1.147434e+01 -8.000000e+01
    endloop
  endfacet
  facet normal 0.000000e+00 0.000000e+00 -1.000000e+00
    outer loop
      vertex 0.000000e+00 0.000000e+00 -8.000000e+01
      vertex 3.472954e+00 -1.304814e+01 -8.000000e+01
      vertex -3.472972e+00 -1.304814e+01 -8.000000e+01
    endloop
  endfacet
  facet normal 0.000000e+00 0.000000e+00 -1.000000e+00
    outer loop
      vertex 0.000000e+00 0.000000e+00 -8.000000e+01
      vertex 9.999990e+00 -1.147435e+01 -8.000000e+01
      vertex 3.472954e+00 -1.304814e+01 -8.000000e+01
    endloop
  endfacet
  facet normal 0.000000e+00 0.000000e+00 -1.000000e+00
    outer loop
      vertex 0.000000e+00 0.000000e+00 -8.000000e+01
      vertex 1.532088e+01 -8.516577e+00 -8.000000e+01
      vertex 9.999990e+00 -1.147435e+01 -8.000000e+01
    endloop
  endfacet
  facet normal 0.000000e+00 0.000000e+00 -1.000000e+00
    outer loop
      vertex 0.000000e+00 0.000000e+00 -8.000000e+01
      vertex 1.879385e+01 -4.531581e+00 -8.000000e+01
      vertex 1.532088e+01 -8.516577e+00 -8.000000e+01
    endloop
  endfacet
  facet normal 0.000000e+00 0.000000e+00 -1.000000e+00
    outer loop
      vertex 0.000000e+00 0.000000e+00 -8.000000e+01
      vertex 2.000000e+01 0.000000e+00 -8.000000e+01
      vertex 1.879385e+01 -4.531581e+00 -8.000000e+01
    endloop
  endfacet
  facet normal 9.663554e-01 2.572105e-01 0.000000e+00
    outer loop
      vertex 2.000000e+01 0.000000e+00 -8.000000e+01
      vertex 1.879385e+01 4.531572e+00 -6.400000e+01
      vertex 2.000000e+01 0.000000e+00 -6.400000e+01
    endloop
  endfacet
  facet normal 9.663554e-01 2.572105e-01 0.000000e+00
    outer loop
      vertex 2.000000e+01 0.000000e+00 -8.000000e+01
      vertex 1.879385e+01 4.531572e+00 -8.000000e+01
      vertex 1.879385e+01 4.531572e+00 -6.400000e+01
    endloop
  endfacet
  facet normal 7.538793e-01 6.570129e-01 0.000000e+00
    outer loop
      vertex 1.879385e+01 4.531572e+00 -8.000000e+01
      vertex 1.532089e+01 8.516570e+00 -6.400000e+01
      vertex 1.879385e+01 4.531572e+00 -6.400000e+01
    endloop
  endfacet
  facet normal 7.538793e-01 6.570129e-01 0.000000e+00
    outer loop
      vertex 1.879385e+01 4.531572e+00 -8.000000e+01
      vertex 1.532089e+01 8.516570e+00 -8.000000e+01
      vertex 1.532089e+01 8.516570e+00 -6.400000e+01
    endloop
  endfacet
  facet normal 4.858594e-01 8.740370e-01 0.000000e+00
    outer loop
      vertex 1.532089e+01 8.516570e+00 -8.000000e+01
      vertex 9.999999e+00 1.147434e+01 -6.400000e+01
      vertex 1.532089e+01 8.516570e+00 -6.400000e+01
    endloop
  endfacet
  facet normal 4.858594e-01 8.740370e-01 0.000000e+00
    outer loop
      vertex 1.532089e+01 8.516570e+00 -8.000000e+01
      vertex 9.999999e+00 1.147434e+01 -8.000000e+01
      vertex 9.999999e+00 1.147434e+01 -6.400000e+01
    endloop
  endfacet
  facet normal 2.344022e-01 9.721397e-01 0.000000e+00
    outer loop
      vertex 9.999999e+00 1.147434e+01 -8.000000e+01
      vertex 3.472962e+00 1.304814e+01 -6.400000e+01
      vertex 9.999999e+00 1.147434e+01 -6.400000e+01
    endloop
  endfacet
  facet normal 2.344022e-01 9.721397e-01 0.000000e+00
    outer loop
      vertex 9.999999e+00 1.147434e+01 -8.000000e+01
      vertex 3.472962e+00 1.304814e+01 -8.000000e+01
      vertex 3.472962e+00 1.304814e+01 -6.400000e+01
    endloop
  endfacet
  facet normal 0.000000e+00 1.000000e+00 0.000000e+00
    outer loop
      vertex 3.472962e+00 1.304814e+01 -8.000000e+01
      vertex -3.472966e+00 1.304814e+01 -6.400000e+01
      vertex 3.472962e+00 1.304814e+01 -6.400000e+01
    endloop
  endfacet
  facet normal -0.000000e+00 1.000000e+00 0.000000e+00
    outer loop
      vertex 3.472962e+00 1.304814e+01 -8.000000e+01
      vertex -3.472966e+00 1.304814e+01 -8.000000e+01
      vertex -3.472966e+00 1.304814e+01 -6.400000e+01
    endloop
  endfacet
  facet normal -2.344024e-01 9.721397e-01 0.000000e+00
    outer loop
      vertex -3.472966e+00 1.304814e+01 -8.000000e+01
      vertex -1.000000e+01 1.147434e+01 -6.400000e+01
      vertex -3.472966e+00 1.304814e+01 -6.400000e+01
    endloop
  endfacet
  facet normal -2.344024e-01 9.721397e-01 0.000000e+00
    outer loop
      vertex -3.472966e+00 1.304814e+01 -8.000000e+01
      vertex -1.000000e+01 1.147434e+01 -8.000000e+01
      vertex -1.000000e+01 1.147434e+01 -6.400000e+01
    endloop
  endfacet
  facet normal -4.858594e-01 8.740370e-01 0.000000e+00
    outer loop
      vertex -1.000000e+01 1.147434e+01 -8.000000e+01
      vertex -1.532089e+01 8.516570e+00 -6.400000e+01
      vertex -1.000000e+01 1.147434e+01 -6.400000e+01
    endloop
  endfacet
  facet normal -4.858594e-01 8.740370e-01 0.000000e+00
    outer loop
      vertex -1.000000e+01 1.147434e+01 -8.000000e+01
      vertex -1.532089e+01 8.516570e+00 -8.000000e+01
      vertex -1.532089e+01 8.516570e+00 -6.400000e+01
    endloop
  endfacet
  facet normal -7.538792e-01 6.570131e-01 0.000000e+00
    outer loop
      vertex -1.532089e+01 8.516570e+00 -8.000000e+01
      vertex -1.879385e+01 4.531573e+00 -6.400000e+01
      vertex -1.532089e+01 8.516570e+00 -6.400000e+01
    endloop
  endfacet
  facet normal -7.538792e-01 6.570131e-01 0.000000e+00
    outer loop
      vertex -1.532089e+01 8.516570e+00 -8.000000e+01
      vertex -1.879385e+01 4.531573e+00 -8.000000e+01
      vertex -1.879385e+01 4.531573e+00 -6.400000e+01
    endloop
  endfacet
  facet normal -9.663554e-01 2.572105e-01 0.000000e+00
    outer loop
      vertex -1.879385e+01 4.531573e+00 -8.000000e+01
      vertex -2.000000e+01 2.000608e-06 -6.400000e+01
      vertex -1.879385e+01 4.531573e+00 -6.400000e+01
    endloop
  endfacet
  facet normal -9.663554e-01 2.572105e-01 0.000000e+00
    outer loop
      vertex -1.879385e+01 4.531573e+00 -8.000000e+01
      vertex -2.000000e+01 2.000608e-06 -8.000000e+01
      vertex -2.000000e+01 2.000608e-06 -6.400000e+01
    endloop
  endfacet
  facet normal -9.663555e-01 -2.572101e-01 -0.000000e+00
    outer loop
      vertex -2.000000e+01 2.000608e-06 -8.000000e+01
      vertex -1.879385e+01 -4.531569e+00 -6.400000e+01
      vertex -2.000000e+01 2.000608e-06 -6.400000e+01
    endloop
  endfacet
  facet normal -9.663555e-01 -2.572101e-01 0.000000e+00
    outer loop
      vertex -2.000000e+01 2.000608e-06 -8.000000e+01
      vertex -1.879385e+01 -4.531569e+00 -8.000000e+01
      vertex -1.879385e+01 -4.531569e+00 -6.400000e+01
    endloop
  endfacet
  facet normal -7.538795e-01 -6.570128e-01 -0.000000e+00
    outer loop
      vertex -1.879385e+01 -4.531569e+00 -8.000000e+01
      vertex -1.532089e+01 -8.516567e+00 -6.400000e+01
      vertex -1.879385e+01 -4.531569e+00 -6.400000e+01
    endloop
  endfacet
  facet normal -7.538795e-01 -6.570128e-01 0.000000e+00
    outer loop
      vertex -1.879385e+01 -4.531569e+00 -8.000000e+01
      vertex -1.532089e+01 -8.516567e+00 -8.000000e+01
      vertex -1.532089e+01 -8.516567e+00 -6.400000e+01
    endloop
  endfacet
  facet normal -4.858595e-01 -8.740370e-01 -0.000000e+00
    outer loop
      vertex -1.532089e+01 -8.516567e+00 -8.000000e+01
      vertex -1.000001e+01 -1.147434e+01 -6.400000e+01
      vertex -1.532089e+01 -8.516567e+00 -6.400000e+01
    endloop
  endfacet
  facet normal -4.858595e-01 -8.740370e-01 0.000000e+00
    outer loop
      vertex -1.532089e+01 -8.516567e+00 -8.000000e+01
      vertex -1.000001e+01 -1.147434e+01 -8.000000e+01
      vertex -1.000001e+01 -1.147434e+01 -6.400000e+01
    endloop
  endfacet
  facet normal -2.344027e-01 -9.721396e-01 -0.000000e+00
    outer loop
      vertex -1.000001e+01 -1.147434e+01 -8.000000e+01
      vertex -3.472972e+00 -1.304814e+01 -6.400000e+01
      vertex -1.000001e+01 -1.147434e+01 -6.400000e+01
    endloop
  endfacet
  facet normal -2.344027e-01 -9.721396e-01 0.000000e+00
    outer loop
      vertex -1.000001e+01 -1.147434e+01 -8.000000e+01
      vertex -3.472972e+00 -1.304814e+01 -8.000000e+01
      vertex -3.472972e+00 -1.304814e+01 -6.400000e+01
    endloop
  endfacet
  facet normal -2.745996e-07 -1.000000e+00 -0.000000e+00
    outer loop
      vertex -3.472972e+00 -1.304814e+01 -8.000000e+01
      vertex 3.472954e+00 -1.304814e+01 -6.400000e+01
      vertex -3.472972e+00 -1.304814e+01 -6.400000e+01
    endloop
  endfacet
  facet normal -2.745996e-07 -1.000000e+00 0.000000e+00
    outer loop
      vertex -3.472972e+00 -1.304814e+01 -8.000000e+01
      vertex 3.472954e+00 -1.304814e+01 -8.000000e+01
      vertex 3.472954e+00 -1.304814e+01 -6.400000e+01
    endloop
  endfacet
  facet normal 2.344018e-01 -9.721398e-01 0.000000e+00
    outer loop
      vertex 3.472954e+00 -1.304814e+01 -8.000000e+01
      vertex 9.999990e+00 -1.147435e+01 -6.400000e+01
      vertex 3.472954e+00 -1.304814e+01 -6.400000e+01
    endloop
  endfacet
  facet normal 2.344018e-01 -9.721398e-01 0.000000e+00
    outer loop
      vertex 3.472954e+00 -1.304814e+01 -8.000000e+01
      vertex 9.999990e+00 -1.147435e+01 -8.000000e+01
      vertex 9.999990e+00 -1.147435e+01 -6.400000e+01
    endloop
  endfacet
  facet normal 4.858589e-01 -8.740373e-01 0.000000e+00
    outer loop
      vertex 9.999990e+00 -1.147435e+01 -8.000000e+01
      vertex 1.532088e+01 -8.516577e+00 -6.400000e+01
      vertex 9.999990e+00 -1.147435e+01 -6.400000e+01
    endloop
  endfacet
  facet normal 4.858589e-01 -8.740373e-01 0.000000e+00
    outer loop
      vertex 9.999990e+00 -1.147435e+01 -8.000000e+01
      vertex 1.532088e+01 -8.516577e+00 -8.000000e+01
      vertex 1.532088e+01 -8.516577e+00 -6.400000e+01
    endloop
  endfacet
  facet normal 7.538788e-01 -6.570135e-01 0.000000e+00
    outer loop
      vertex 1.532088e+01 -8.516577e+00 -8.000000e+01
      vertex 1.879385e+01 -4.531581e+00 -6.400000e+01
      vertex 1.532088e+01 -8.516577e+00 -6.400000e+01
    endloop
  endfacet
  facet normal 7.538788e-01 -6.570135e-01 0.000000e+00
    outer loop
      vertex 1.532088e+01 -8.516577e+00 -8.000000e+01
      vertex 1.879385e+01 -4.531581e+00 -8.000000e+01
      vertex 1.879385e+01 -4.531581e+00 -6.400000e+01
    endloop
  endfacet
  facet normal 9.663553e-01 -2.572108e-01 0.000000e+00
    outer loop
      vertex 1.879385e+01 -4.531581e+00 -8.000000e+01
      vertex 2.000000e+01 0.000000e+00 -6.400000e+01
      vertex 1.879385e+01 -4.531581e+00 -6.400000e+01
    endloop
  endfacet
  facet normal 9.663553e-01 -2.572108e-01 0.000000e+00
    outer loop
      vertex 1.879385e+01 -4.531581e+00 -8.000000e+01
      vertex 2.000000e+01 0.000000e+00 -8.000000e+01
      vertex 2.000000e+01 0.000000e+00 -6.400000e+01
    endloop
  endfacet
  facet normal 9.663554e-01 2.572105e-01 0.000000e+00
    outer loop
      vertex 2.000000e+01 0.000000e+00 -6.400000e+01
      vertex 1.879385e+01 4.531572e+00 -4.800000e+01
      vertex 2.000000e+01 0.000000e+00 -4.800000e+01
    endloop
  endfacet
  facet normal 9.663554e-01 2.572105e-01 0.000000e+00
    outer loop
      vertex 2.000000e+01 0.000000e+00 -6.400000e+01
      vertex 1.879385e+01 4.531572e+00 -6.400000e+01
      vertex 1.879385e+01 4.531572e+00 -4.800000e+01
    endloop
  endfacet
  facet normal 7.538793e-01 6.570129e-01 0.000000e+00
    outer loop
      vertex 1.879385e+01 4.531572e+00 -6.400000e+01
      vertex 1.532089e+01 8.516570e+00 -4.800000e+01
      vertex 1.879385e+01 4.531572e+00 -4.800000e+01
    endloop
  endfacet
  facet normal 7.538793e-01 6.570129e-01 0.000000e+00
    outer loop
      vertex 1.879385e+01 4.531572e+00 -6.400000e+01
      vertex 1.532089e+01 8.516570e+00 -6.400000e+01
      vertex 1.532089e+01 8.516570e+00 -4.800000e+01
    endloop
  endfacet
  facet normal 4.858594e-01 8.740370e-01 0.000000e+00
    outer loop
      vertex 1.532089e+01 8.516570e+00 -6.400000e+01
      vertex 9.999999e+00 1.147434e+01 -4.800000e+01
      vertex 1.532089e+01 8.516570e+00 -4.800000e+01
    endloop
  endfacet
  facet normal 4.858594e-01 8.740370e-01 0.000000e+00
    outer loop
      vertex 1.532089e+01 8.516570e+00 -6.400000e+01
      vertex 9.999999e+00 1.147434e+01 -6.400000e+01
      vertex 9.999999e+00 1.147434e+01 -4.800000e+01
    endloop
  endfacet
  facet normal 2.344022e-01 9.721397e-01 0.000000e+00
    outer loop
      vertex 9.999999e+00 1.147434e+01 -6.400000e+01
      vertex 3.472962e+00 1.304814e+01 -4.800000e+01
      vertex 9.999999e+00 1.147434e+01 -4.800000e+01
    endloop
  endfacet
  facet normal 2.344022e-01 9.721397e-01 0.000000e+00
    outer loop
      vertex 9.999999e+00 1.147434e+01 -6.400000e+01
      vertex 3.472962e+00 1.304814e+01 -6.400000e+01
      vertex 3.472962e+00 1.304814e+01 -4.800000e+01
    endloop
  endfacet
  facet normal 0.000000e+00 1.000000e+00 0.000000e+00
    outer loop
      vertex 3.472962e+00 1.304814e+01 -6.400000e+01
      vertex -3.472966e+00 1.304814e+01 -4.800000e+01
      vertex 3.472962e+00 1.304814e+01 -4.800000e+01
    endloop
  endfacet
  facet normal -0.000000e+00 1.000000e+00 0.000000e+00
    outer loop
      vertex 3.472962e+00 1.304814e+01 -6.400000e+01
      vertex -3.472966e+00 1.304814e+01 -6.400000e+01
      vertex -3.472966e+00 1.304814e+01 -4.800000e+01
    endloop
  endfacet
  facet normal -2.344024e-01 9.721397e-01 0.000000e+00
    outer loop
      vertex -3.472966e+00 1.304814e+01 -6.400000e+01
      vertex -1.000000e+01 1.147434e+01 -4.800000e+01
      vertex -3.472966e+00 1.304814e+01 -4.800000e+01
    endloop
  endfacet
  facet normal -2.344024e-01 9.721397e-01 0.000000e+00
    outer loop
      vertex -3.472966e+00 1.304814e+01 -6.400000e+01
      vertex -1.000000e+01 1.147434e+01 -6.400000e+01
      vertex -1.000000e+01 1.147434e+01 -4.800000e+01
    endloop
  endfacet
  facet normal -4.858594e-01 8.740370e-01 0.000000e+00
    outer loop
      vertex -1.000000e+01 1.147434e+01 -6.400000e+01
      vertex -1.532089e+01 8.516570e+00 -4.800000e+01
      vertex -1.000000e+01 1.147434e+01 -4.800000e+01
    endloop
  endfacet
  facet normal -4.858594e-01 8.740370e-01 0.000000e+00
    outer loop
      vertex -1.000000e+01 1.147434e+01 -6.400000e+01
      vertex -1.532089e+01 8.516570e+00 -6.400000e+01
      vertex -1.532089e+01 8.516570e+00 -4.800000e+01
    endloop
  endfacet
  facet normal -7.538792e-01 6.570131e-01 0.000000e+00
    outer loop
      vertex -1.532089e+01 8.516570e+00 -6.400000e+01
      vertex -1.879385e+01 4.531573e+00 -4.800000e+01
      vertex -1.532089e+01 8.516570e+00 -4.800000e+01
    endloop
  endfacet
  facet normal -7.538792e-01 6.570131e-01 0.000000e+00
    outer loop
      vertex -1.532089e+01 8.516570e+00 -6.400000e+01
      vertex -1.879385e+01 4.531573e+00 -6.400000e+01
      vertex -1.879385e+01 4.531573e+00 -4.800000e+01
    endloop
  endfacet
  facet normal -9.663554e-01 2.572105e-01 0.000000e+00
    outer loop
      vertex -1.879385e+01 4.531573e+00 -6.400000e+01
      vertex -2.000000e+01 2.000608e-06 -4.800000e+01
      vertex -1.879385e+01 4.531573e+00 -4.800000e+01
    endloop
  endfacet
  facet normal -9.663554e-01 2.572105e-01 0.000000e+00
    outer loop
      vertex -1.879385e+01 4.531573e+00 -6.400000e+01
      vertex -2.000000e+01 2.000608e-06 -6.400000e+01
      vertex -2.000000e+01 2.000608e-06 -4.800000e+01
    endloop
  endfacet
  facet normal -9.663555e-01 -2.572101e-01 -0.000000e+00
    outer loop
      vertex -2.000000e+01 2.000608e-06 -6.400000e+01
      vertex -1.879385e+01 -4.531569e+00 -4.800000e+01
      vertex -2.000000e+01 2.000608e-06 -4.800000e+01
    endloop
  endfacet
  facet normal -9.663555e-01 -2.572101e-01 0.000000e+00
    outer loop
      vertex -2.000000e+01 2.000608e-06 -6.400000e+01
      vertex -1.879385e+01 -4.531569e+00 -6.400000e+01
      vertex -1.879385e+01 -4.531569e+00 -4.800000e+01
    endloop
  endfacet
  facet normal -7.538795e-01 -6.570128e-01 -0.000000e+00
    outer loop
      vertex -1.879385e+01 -4.531569e+00 -6.400000e+01
      vertex -1.532089e+01 -8.516567e+00 -4.800000e+01
      vertex -1.879385e+01 -4.531569e+00 -4.800000e+01
    endloop
  endfacet
  facet normal -7.538795e-01 -6.570128e-01 0.000000e+00
    outer loop
      vertex -1.879385e+01 -4.531569e+00 -6.400000e+01
      vertex -1.532089e+01 -8.516567e+00 -6.400000e+01
      vertex -1.532089e+01 -8.516567e+00 -4.800000e+01
    endloop
  endfacet
  facet normal -4.858595e-01 -8.740370e-01 -0.000000e+00
    outer loop
      vertex -1.532089e+01 -8.516567e+00 -6.400000e+01
      vertex -1.000001e+01 -1.147434e+01 -4.800000e+01
      vertex -1.532089e+01 -8.516567e+00 -4.800000e+01
    endloop
  endfacet
  facet normal -4.858595e-01 -8.740370e-01 0.000000e+00
    outer loop
      vertex -1.532089e+01 -8.516567e+00 -6.400000e+01
      vertex -1.000001e+01 -1.147434e+01 -6.400000e+01
      vertex -1.000001e+01 -1.147434e+01 -4.800000e+01
    endloop
  endfacet
  facet normal -2.344027e-01 -9.721396e-01 -0.000000e+00
    outer loop
      vertex -1.000001e+01 -1.147434e+01 -6.400000e+01
      vertex -3.472972e+00 -1.304814e+01 -4.800000e+01
      vertex -1.000001e+01 -1.147434e+01 -4.800000e+01
    endloop
  endfacet
  facet normal -2.344027e-01 -9.721396e-01 0.000000e+00
    outer loop
      vertex -1.000001e+01 -1.147434e+01 -6.400000e+01
      vertex -3.472972e+00 -1.304814e+01 -6.400000e+01
      vertex -3.472972e+00 -1.304814e+01 -4.800000e+01
    endloop
  endfacet
  facet normal -2.745996e-07 -1.000000e+00 -0.000000e+00
    outer loop
      vertex -3.472972e+00 -1.304814e+01 -6.400000e+01
      vertex 3.472954e+00 -1.304814e+01 -4.800000e+01
      vertex -3.472972e+00 -1.304814e+01 -4.800000e+01
    endloop
  endfacet
  facet normal -2.745996e-07 -1.000000e+00 0.000000e+00
    outer loop
      vertex -3.472972e+00 -1.304814e+01 -6.400000e+01
      vertex 3.472954e+00 -1.304814e+01 -6.400000e+01
      vertex 3.472954e+00 -1.304814e+01 -4.800000e+01
    endloop
  endfacet
  facet normal 2.344018e-01 -9.721398e-01 0.000000e+00
    outer loop
      vertex 3.472954e+00 -1.304814e+01 -6.400000e+01
      vertex 9.999990e+00 -1.147435e+01 -4.800000e+01
      vertex 3.472954e+00 -1.304814e+01 -4.800000e+01
    endloop
  endfacet
  facet normal 2.344018e-01 -9.721398e-01 0.000000e+00
    outer loop
      vertex 3.472954e+00 -1.304814e+01 -6.400000e+01
      vertex 9.999990e+00 -1.147435e+01 -6.400000e+01
      vertex 9.999990e+00 -1.147435e+01 -4.800000e+01
    endloop
  endfacet
  facet normal 4.858589e-01 -8.740373e-01 0.000000e+00
    outer loop
      vertex 9.999990e+00 -1.147435e+01 -6.400000e+01
      vertex 1.532088e+01 -8.516577e+00 -4.800000e+01
      vertex 9.999990e+00 -1.147435e+01 -4.800000e+01
    endloop
  endfacet
  facet normal 4.858589e-01 -8.740373e-01 0.000000e+00
    outer loop
      vertex 9.999990e+00 -1.147435e+01 -6.400000e+01
      vertex 1.532088e+01 -8.516577e+00 -6.400000e+01
      vertex 1.532088e+01 -8.516577e+00 -4.800000e+01
    endloop
  endfacet
  facet normal 7.538788e-01 -6.570135e-01 0.000000e+00
    outer loop
      vertex 1.532088e+01 -8.516577e+00 -6.400000e+01
      vertex 1.879385e+01 -4.531581e+00 -4.800000e+01
      vertex 1.532088e+01 -8.516577e+00 -4.800000e+01
    endloop
  endfacet
  facet normal 7.538788e-01 -6.570135e-01 0.000000e+00
    outer loop
      vertex 1.532088e+01 -8.516577e+00 -6.400000e+01
      vertex 1.879385e+01 -4.531581e+00 -6.400000e+01
      vertex 1.879385e+01 -4.531581e+00 -4.800000e+01
    endloop
  endfacet
  facet normal 9.663553e-01 -2.572108e-01 0.000000e+00
    outer loop
      vertex 1.879385e+01 -4.531581e+00 -6.400000e+01
      vertex 2.000000e+01 0.000000e+00 -4.800000e+01
      vertex 1.879385e+01 -4.531581e+00 -4.800000e+01
    endloop
  endfacet
  facet normal 9.663553e-01 -2.572108e-01 0.000000e+00
    outer loop
      vertex 1.879385e+01 -4.531581e+00 -6.400000e+01
      vertex 2.000000e+01 0.000000e+00 -6.400000e+01
      vertex 2.000000e+01 0.000000e+00 -4.800000e+01
    endloop
  endfacet
  facet normal 9.663554e-01 2.572105e-01 0.000000e+00
    outer loop
      vertex 2.000000e+01 0.000000e+00 -4.800000e+01
      vertex 1.879385e+01 4.531572e+00 -3.200000e+01
      vertex 2.000000e+01 0.000000e+00 -3.200000e+01
    endloop
  endfacet
  facet normal 9.663554e-01 2.572105e-01 0.000000e+00
    outer loop
      vertex 2.000000e+01 0.000000e+00 -4.800000e+01
      vertex 1.879385e+01 4.531572e+00 -4.800000e+01
      vertex 1.879385e+01 4.531572e+00 -3.200000e+01
    endloop
  endfacet
  facet normal 7.538793e-01 6.570129e-01 0.000000e+00
    outer loop
      vertex 1.879385e+01 4.531572e+00 -4.800000e+01
      vertex 1.532089e+01 8.516570e+00 -3.200000e+01
      vertex 1.879385e+01 4.531572e+00 -3.200000e+01
    endloop
  endfacet
  facet normal 7.538793e-01 6.570129e-01 0.000000e+00
    outer loop
      vertex 1.879385e+01 4.531572e+00 -4.800000e+01
      vertex 1.532089e+01 8.516570e+00 -4.800000e+01
      vertex 1.532089e+01 8.516570e+00 -3.200000e+01
    endloop
  endfacet
  facet normal 4.858594e-01 8.740370e-01 0.000000e+00
    outer loop
      vertex 1.532089e+01 8.516570e+00 -4.800000e+01
      vertex 9.999999e+00 1.147434e+01 -3.200000e+01
      vertex 1.532089e+01 8.516570e+00 -3.200000e+01
    endloop
  endfacet
  facet normal 4.858594e-01 8.740370e-01 0.000000e+00
    outer loop
      vertex 1.532089e+01 8.516570e+00 -4.800000e+01
      vertex 9.999999e+00 1.147434e+01 -4.800000e+01
      vertex 9.999999e+00 1.147434e+01 -3.200000e+01
    endloop
  endfacet
  facet normal 2.344022e-01 9.721397e-01 0.000000e+00
    outer loop
      vertex 9.999999e+00 1.147434e+01 -4.800000e+01
      vertex 3.472962e+00 1.304814e+01 -3.200000e+01
      vertex 9.999999e+00 1.147434e+01 -3.200000e+01
    endloop
  endfacet
  facet normal 2.344022e-01 9.721397e-01 0.000000e+00
    outer loop
      vertex 9.999999e+00 1.147434e+01 -4.800000e+01
      vertex 3.472962e+00 1.304814e+01 -4.800000e+01
      vertex 3.472962e+00 1.304814e+01 -3.200000e+01
    endloop
  endfacet
  facet normal 0.000000e+00 1.000000e+00 0.000000e+00
    outer loop
      vertex 3.472962e+00 1.304814e+01 -4.800000e+01
      vertex -3.472966e+00 1.304814e+01 -3.200000e+01
      vertex 3.472962e+00 1.304814e+01 -3.200000e+01
    endloop
  endfacet
  facet normal -0.000000e+00 1.000000e+00 0.000000e+00
    outer loop
      vertex 3.472962e+00 1.304814e+01 -4.800000e+01
      vertex -3.472966e+00 1.304814e+01 -4.800000e+01
      vertex -3.472966e+00 1.304814e+01 -3.200000e+01
    endloop
  endfacet
  facet normal -2.344024e-01 9.721397e-01 0.000000e+00
    outer loop
      vertex -3.472966e+00 1.304814e+01 -4.800000e+01
      vertex -1.000000e+01 1.147434e+01 -3.200000e+01
      vertex -3.472966e+00 1.304814e+01 -3.200000e+01
    endloop
  endfacet
  facet normal -2.344024e-01 9.721397e-01 0.000000e+00
    outer loop
      vertex -3.472966e+00 1.304814e+01 -4.800000e+01
      vertex -1.000000e+01 1.147434e+01 -4.800000e+01
      vertex -1.000000e+01 1.147434e+01 -3.200000e+01
    endloop
  endfacet
  facet normal -4.858594e-01 8.740370e-01 0.000000e+00
    outer loop
      vertex -1.000000e+01 1.147434e+01 -4.800000e+01
      vertex -1.532089e+01 8.516570e+00 -3.200000e+01
      vertex -1.000000e+01 1.147434e+01 -3.200000e+01
    endloop
  endfacet
  facet normal -4.858594e-01 8.740370e-01 0.000000e+00
    outer loop
      vertex -1.000000e+01 1.147434e+01 -4.800000e+01
      vertex -1.532089e+01 8.516570e+00 -4.800000e+01
      vertex -1.532089e+01 8.516570e+00 -3.200000e+01
    endloop
  endfacet
  facet normal -7.538792e-01 6.570131e-01 0.000000e+00
    outer loop
      vertex -1.532089e+01 8.516570e+00 -4.800000e+01
      vertex -1.879385e+01 4.531573e+00 -3.200000e+01
      vertex -1.532089e+01 8.516570e+00 -3.200000e+01
    endloop
  endfacet
  facet normal -7.538792e-01 6.570131e-01 0.000000e+00
    outer loop
      vertex -1.532089e+01 8.516570e+00 -4.800000e+01
      vertex -1.879385e+01 4.531573e+00 -4.800000e+01
      vertex -1.879385e+01 4.531573e+00 -3.200000e+01
    endloop
  endfacet
  facet normal -9.663554e-01 2.572105e-01 0.000000e+00
    outer loop
      vertex -1.879385e+01 4.531573e+00 -4.800000e+01
      vertex -2.000000e+01 2.000608e-06 -3.200000e+01
      vertex -1.879385e+01 4.531573e+00 -3.200000e+01
    endloop
  endfacet
  facet normal -9.663554e-01 2.572105e-01 0.000000e+00
    outer loop
      vertex -1.879385e+01 4.531573e+00 -4.800000e+01
      vertex -2.000000e+01 2.000608e-06 -4.800000e+01
      vertex -2.000000e+01 2.000608e-06 -3.200000e+01
    endloop
  endfacet
  facet normal -9.663555e-01 -2.572101e-01 -0.000000e+00
    outer loop
      vertex -2.000000e+01 2.000608e-06 -4.800000e+01
      vertex -1.879385e+01 -4.531569e+00 -3.200000e+01
      vertex -2.000000e+01 2.000608e-06 -3.200000e+01
    endloop
  endfacet
  facet normal -9.663555e-01 -2.572101e-01 0.000000e+00
    outer loop
      vertex -2.000000e+01 2.000608e-06 -4.800000e+01
      vertex -1.879385e+01 -4.531569e+00 -4.800000e+01
      vertex -1.879385e+01 -4.531569e+00 -3.200000e+01
    endloop
  endfacet
  facet normal -7.538795e-01 -6.570128e-01 -0.000000e+00
    outer loop
      vertex -1.879385e+01 -4.531569e+00 -4.800000e+01
      vertex -1.532089e+01 -8.516567e+00 -3.200000e+01
      vertex -1.879385e+01 -4.531569e+00 -3.200000e+01
    endloop
  endfacet
  facet normal -7.538795e-01 -6.570128e-01 0.000000e+00
    outer loop
      vertex -1.879385e+01 -4.531569e+00 -4.800000e+01
      vertex -1.532089e+01 -8.516567e+00 -4.800000e+01
      vertex -1.532089e+01 -8.516567e+00 -3.200000e+01
    endloop
  endfacet
  facet normal -4.858595e-01 -8.740370e-01 -0.000000e+00
    outer loop
      vertex -1.532089e+01 -8.516567e+00 -4.800000e+01
      vertex -1.000001e+01 -1.147434e+01 -3.200000e+01
      vertex -1.532089e+01 -8.516567e+00 -3.200000e+01
    endloop
  endfacet
  facet normal -4.858595e-01 -8.740370e-01 0.000000e+00
    outer loop
      vertex -1.532089e+01 -8.516567e+00 -4.800000e+01
      vertex -1.000001e+01 -1.147434e+01 -4.800000e+01
      vertex -1.000001e+01 -1.147434e+01 -3.200000e+01
    endloop
  endfacet
  facet normal -2.344027e-01 -9.721396e-01 -0.000000e+00
    outer loop
      vertex -1.000001e+01 -1.147434e+01 -4.800000e+01
      vertex -3.472972e+00 -1.304814e+01 -3.200000e+01
      vertex -1.000001e+01 -1.147434e+01 -3.200000e+01
    endloop
  endfacet
  facet normal -2.344027e-01 -9.721396e-01 0.000000e+00
    outer loop
      vertex -1.000001e+01 -1.147434e+01 -4.800000e+01
      vertex -3.472972e+00 -1.304814e+01 -4.800000e+01
      vertex -3.472972e+00 -1.304814e+01 -3.200000e+01
    endloop
  endfacet
  facet normal -2.745996e-07 -1.000000e+00 -0.000000e+00
    outer loop
      vertex -3.472972e+00 -1.304814e+01 -4.800000e+01
      vertex 3.472954e+00 -1.304814e+01 -3.200000e+01
      vertex -3.472972e+00 -1.304814e+01 -3.200000e+01
    endloop
  endfacet
  facet normal -2.745996e-07 -1.000000e+00 0.000000e+00
    outer loop
      vertex -3.472972e+00 -1.304814e+01 -4.800000e+01
      vertex 3.472954e+00 -1.304814e+01 -4.800000e+01
      vertex 3.472954e+00 -1.304814e+01 -3.200000e+01
    endloop
  endfacet
  facet normal 2.344018e-01 -9.721398e-01 0.000000e+00
    outer loop
      vertex 3.472954e+00 -1.304814e+01 -4.800000e+01
      vertex 9.999990e+00 -1.147435e+01 -3.200000e+01
      vertex 3.472954e+00 -1.304814e+01 -3.200000e+01
    endloop
  endfacet
  facet normal 2.344018e-01 -9.721398e-01 0.000000e+00
    outer loop
      vertex 3.472954e+00 -1.304814e+01 -4.800000e+01
      vertex 9.999990e+00 -1.147435e+01 -4.800000e+01
      vertex 9.999990e+00 -1.147435e+01 -3.200000e+01
    endloop
  endfacet
  facet normal 4.858589e-01 -8.740373e-01 0.000000e+00
    outer loop
      vertex 9.999990e+00 -1.147435e+01 -4.800000e+01
      vertex 1.532088e+01 -8.516577e+00 -3.200000e+01
      vertex 9.999990e+00 -1.147435e+01 -3.200000e+01
    endloop
  endfacet
  facet normal 4.858589e-01 -8.740373e-01 0.000000e+00
    outer loop
      vertex 9.999990e+00 -1.147435e+01 -4.800000e+01
      vertex 1.532088e+01 -8.516577e+00 -4.800000e+01
      vertex 1.532088e+01 -8.516577e+00 -3.200000e+01
    endloop
  endfacet
  facet normal 7.538788e-01 -6.570135e-01 0.000000e+00
    outer loop
      vertex 1.532088e+01 -8.516577e+00 -4.800000e+01
      vertex 1.879385e+01 -4.531581e+00 -3.200000e+01
      vertex 1.532088e+01 -8.516577e+00 -3.200000e+01
    endloop
  endfacet
  facet normal 7.538788e-01 -6.570135e-01 0.000000e+00
    outer loop
      vertex 1.532088e+01 -8.516577e+00 -4.800000e+01
      vertex 1.879385e+01 -4.531581e+00 -4.800000e+01
      vertex 1.879385e+01 -4.531581e+00 -3.200000e+01
    endloop
  endfacet
  facet normal 9.663553e-01 -2.572108e-01 0.000000e+00
    outer loop
      vertex 1.879385e+01 -4.531581e+00 -4.800000e+01
      vertex 2.000000e+01 0.000000e+00 -3.200000e+01
      vertex 1.879385e+01 -4.531581e+00 -3.200000e+01
    endloop
  endfacet
  facet normal 9.663553e-01 -2.572108e-01 0.000000e+00
    outer loop
      vertex 1.879385e+01 -4.531581e+00 -4.800000e+01
      vertex 2.000000e+01 0.000000e+00 -4.800000e+01
      vertex 2.000000e+01 0.000000e+00 -3.200000e+01
    endloop
  endfacet
  facet normal 9.663554e-01 2.572105e-01 0.000000e+00
    outer loop
      vertex 2.000000e+01 0.000000e+00 -3.200000e+01
      vertex 1.879385e+01 4.531572e+00 -1.600000e+01
      vertex 2.000000e+01 0.000000e+00 -1.600000e+01
    endloop
  endfacet
  facet normal 9.663554e-01 2.572105e-01 0.000000e+00
    outer loop
      vertex 2.000000e+01 0.000000e+00 -3.200000e+01
      vertex 1.879385e+01 4.531572e+00 -3.200000e+01
      vertex 1.879385e+01 4.531572e+00 -1.600000e+01
    endloop
  endfacet
  facet normal 7.538793e-01 6.570129e-01 0.000000e+00
    outer loop
      vertex 1.879385e+01 4.531572e+00 -3.200000e+01
      vertex 1.532089e+01 8.516570e+00 -1.600000e+01
      vertex 1.879385e+01 4.531572e+00 -1.600000e+01
    endloop
  endfacet
  facet normal 7.538793e-01 6.570129e-01 0.000000e+00
    outer loop
      vertex 1.879385e+01 4.531572e+00 -3.200000e+01
      vertex 1.532089e+01 8.516570e+00 -3.200000e+01
      vertex 1.532089e+01 8.516570e+00 -1.600000e+01
    endloop
  endfacet
  facet normal 4.858594e-01 8.740370e-01 0.000000e+00
    outer loop
      vertex 1.532089e+01 8.516570e+00 -3.200000e+01
      vertex 9.999999e+00 1.147434e+01 -1.600000e+01
      vertex 1.532089e+01 8.516570e+00 -1.600000e+01
    endloop
  endfacet
  facet normal 4.858594e-01 8.740370e-01 0.000000e+00
    outer loop
      vertex 1.532089e+01 8.516570e+00 -3.200000e+01
      vertex 9.999999e+00 1.147434e+01 -3.200000e+01
      vertex 9.999999e+00 1.147434e+01 -1.600000e+01
    endloop
  endfacet
  facet normal 2.344022e-01 9.721397e-01 0.000000e+00
    outer loop
      vertex 9.999999e+00 1.147434e+01 -3.200000e+01
      vertex 3.472962e+00 1.304814e+01 -1.600000e+01
      vertex 9.999999e+00 1.147434e+01 -1.600000e+01
    endloop
  endfacet
  facet normal 2.344022e-01 9.721397e-01 0.000000e+00
    outer loop
      vertex 9.999999e+00 1.147434e+01 -3.200000e+01
      vertex 3.472962e+00 1.304814e+01 -3.200000e+01
      vertex 3.472962e+00 1.304814e+01 -1.600000e+01
    endloop
  endfacet
  facet normal 0.000000e+00 1.000000e+00 0.000000e+00
    outer loop
      vertex 3.472962e+00 1.304814e+01 -3.200000e+01
      vertex -3.472966e+00 1.304814e+01 -1.600000e+01
      vertex 3.472962e+00 1.304814e+01 -1.600000e+01
    endloop
  endfacet
  facet normal -0.000000e+00 1.000000e+00 0.000000e+00
    outer loop
      vertex 3.472962e+00 1.304814e+01 -3.200000e+01
      vertex -3.472966e+00 1.304814e+01 -3.200000e+01
      vertex -3.472966e+00 1.304814e+01 -1.600000e+01
    endloop
  endfacet
  facet normal -2.344024e-01 9.721397e-01 0.000000e+00
    outer loop
      vertex -3.472966e+00 1.304814e+01 -3.200000e+01
      vertex -1.000000e+01 1.147434e+01 -1.600000e+01
      vertex -3.472966e+00 1.304814e+01 -1.600000e+01
    endloop
  endfacet
  facet normal -2.344024e-01 9.721397e-01 0.000000e+00
    outer loop
      vertex -3.472966e+00 1.304814e+01 -3.200000e+01
      vertex -1.000000e+01 1.147434e+01 -3.200000e+01
      vertex -1.000000e+01 1.147434e+01 -1.600000e+01
    endloop
  endfacet
  facet normal -4.858594e-01 8.740370e-01 0.000000e+00
    outer loop
      vertex -1.000000e+01 1.147434e+01 -3.200000e+01
      vertex -1.532089e+01 8.516570e+00 -1.600000e+01
      vertex -1.000000e+01 1.147434e+01 -1.600000e+01
    endloop
  endfacet
  facet normal -4.858594e-01 8.740370e-01 0.000000e+00
    outer loop
      vertex -1.000000e+01 1.147434e+01 -3.200000e+01
      vertex -1.532089e+01 8.516570e+00 -3.200000e+01
      vertex -1.532089e+01 8.516570e+00 -1.600000e+01
    endloop
  endfacet
  facet normal -7.538792e-01 6.570131e-01 0.000000e+00
    outer loop
      vertex -1.532089e+01 8.516570e+00 -3.200000e+01
      vertex -1.879385e+01 4.531573e+00 -1.600000e+01
      vertex -1.532089e+01 8.516570e+00 -1.600000e+01
    endloop
  endfacet
  facet normal -7.538792e-01 6.570131e-01 0.000000e+00
    outer loop
      vertex -1.532089e+01 8.516570e+00 -3.200000e+01
      vertex -1.879385e+01 4.531573e+00 -3.200000e+01
      vertex -1.879385e+01 4.531573e+00 -1.600000e+01
    endloop
  endfacet
  facet normal -9.663554e-01 2.572105e-01 0.000000e+00
    outer loop
      vertex -1.879385e+01 4.531573e+00 -3.200000e+01
      vertex -2.000000e+01 2.000608e-06 -1.600000e+01
      vertex -1.879385e+01 4.531573e+00 -1.600000e+01
    endloop
  endfacet
  facet normal -9.663554e-01 2.572105e-01 0.000000e+00
    outer loop
      vertex -1.879385e+01 4.531573e+00 -3.200000e+01
      vertex -2.000000e+01 2.000608e-06 -3.200000e+01
      vertex -2.000000e+01 2.000608e-06 -1.600000e+01
    endloop
  endfacet
  facet normal -9.663555e-01 -2.572101e-01 -0.000000e+00
    outer loop
      vertex -2.000000e+01 2.000608e-06 -3.200000e+01
      vertex -1.879385e+01 -4.531569e+00 -1.600000e+01
      vertex -2.000000e+01 2.000608e-06 -1.600000e+01
    endloop
  endfacet
  facet normal -9.663555e-01 -2.572101e-01 0.000000e+00
    outer loop
      vertex -2.000000e+01 2.000608e-06 -3.200000e+01
      vertex -1.879385e+01 -4.531569e+00 -3.200000e+01
      vertex -1.879385e+01 -4.531569e+00 -1.600000e+01
    endloop
  endfacet
  facet normal -7.538795e-01 -6.570128e-01 -0.000000e+00
    outer loop
      vertex -1.879385e+01 -4.531569e+00 -3.200000e+01
      vertex -1.532089e+01 -8.516567e+00 -1.600000e+01
      vertex -1.879385e+01 -4.531569e+00 -1.600000e+01
    endloop
  endfacet
  facet normal -7.538795e-01 -6.570128e-01 0.000000e+00
    outer loop
      vertex -1.879385e+01 -4.531569e+00 -3.200000e+01
      vertex -1.532089e+01 -8.516567e+00 -3.200000e+01
      vertex -1.532089e+01 -8.516567e+00 -1.600000e+01
    endloop
  endfacet
  facet normal -4.858595e-01 -8.740370e-01 -0.000000e+00
    outer loop
      vertex -1.532089e+01 -8.516567e+00 -3.200000e+01
      vertex -1.000001e+01 -1.147434e+01 -1.600000e+01
      vertex -1.532089e+01 -8.516567e+00 -1.600000e+01
    endloop
  endfacet
  facet normal -4.858595e-01 -8.740370e-01 0.000000e+00
    outer loop
      vertex -1.532089e+01 -8.516567e+00 -3.200000e+01
      vertex -1.000001e+01 -1.147434e+01 -3.200000e+01
      vertex -1.000001e+01 -1.147434e+01 -1.600000e+01
    endloop
  endfacet
  facet normal -2.344027e-01 -9.721396e-01 -0.000000e+00
    outer loop
      vertex -1.000001e+01 -1.147434e+01 -3.200000e+01
      vertex -3.472972e+00 -1.304814e+01 -1.600000e+01
      vertex -1.000001e+01 -1.147434e+01 -1.600000e+01
    endloop
  endfacet
  facet normal -2.344027e-01 -9.721396e-01 0.000000e+00
    outer loop
      vertex -1.000001e+01 -1.147434e+01 -3.200000e+01
      vertex -3.472972e+00 -1.304814e+01 -3.200000e+01
      vertex -3.472972e+00 -1.304814e+01 -1.600000e+01
    endloop
  endfacet
  facet normal -2.745996e-07 -1.000000e+00 -0.000000e+00
    outer loop
      vertex -3.472972e+00 -1.304814e+01 -3.200000e+01
      vertex 3.472954e+00 -1.304814e+01 -1.600000e+01
      vertex -3.472972e+00 -1.304814e+01 -1.600000e+01
    endloop
  endfacet
  facet normal -2.745996e-07 -1.000000e+00 0.000000e+00
    outer loop
      vertex -3.472972e+00 -1.304814e+01 -3.200000e+01
      vertex 3.472954e+00 -1.304814e+01 -3.200000e+01
      vertex 3.472954e+00 -1.304814e+01 -1.600000e+01
    endloop
  endfacet
  facet normal 2.344018e-01 -9.721398e-01 0.000000e+00
    outer loop
      vertex 3.472954e+00 -1.304814e+01 -3.200000e+01
      vertex 9.999990e+00 -1.147435e+01 -1.600000e+01
      vertex 3.472954e+00 -1.304814e+01 -1.600000e+01
    endloop
  endfacet
  facet normal 2.344018e-01 -9.721398e-01 0.000000e+00
    outer loop
      vertex 3.472954e+00 -1.304814e+01 -3.200000e+01
      vertex 9.999990e+00 -1.147435e+01 -3.200000e+01
      vertex 9.999990e+00 -1.147435e+01 -1.600000e+01
    endloop
  endfacet
  facet normal 4.858589e-01 -8.740373e-01 0.000000e+00
    outer loop
      vertex 9.999990e+00 -1.147435e+01 -3.200000e+01
      vertex 1.532088e+01 -8.516577e+00 -1.600000e+01
      vertex 9.999990e+00 -1.147435e+01 -1.600000e+01
    endloop
  endfacet
  facet normal 4.858589e-01 -8.740373e-01 0.000000e+00
    outer loop
      vertex 9.999990e+00 -1.147435e+01 -3.200000e+01
      vertex 1.532088e+01 -8.516577e+00 -3.200000e+01
      vertex 1.532088e+01 -8.516577e+00 -1.600000e+01
    endloop
  endfacet
  facet normal 7.538788e-01 -6.570135e-01 0.000000e+00
    outer loop
      vertex 1.532088e+01 -8.516577e+00 -3.200000e+01
      vertex 1.879385e+01 -4.531581e+00 -1.600000e+01
      vertex 1.532088e+01 -8.516577e+00 -1.600000e+01
    endloop
  endfacet
  facet normal 7.538788e-01 -6.570135e-01 0.000000e+00
    outer loop
      vertex 1.532088e+01 -8.516577e+00 -3.200000e+01
      vertex 1.879385e+01 -4.531581e+00 -3.200000e+01
      vertex 1.879385e+01 -4.531581e+00 -1.600000e+01
    endloop
  endfacet
  facet normal 9.663553e-01 -2.572108e-01 0.000000e+00
    outer loop
      vertex 1.879385e+01 -4.531581e+00 -3.200000e+01
      vertex 2.000000e+01 0.000000e+00 -1.600000e+01
      vertex 1.879385e+01 -4.531581e+00 -1.600000e+01
    endloop
  endfacet
  facet normal 9.663553e-01 -2.572108e-01 0.000000e+00
    outer loop
      vertex 1.879385e+01 -4.531581e+00 -3.200000e+01
      vertex 2.000000e+01 0.000000e+00 -3.200000e+01
      vertex 2.000000e+01 0.000000e+00 -1.600000e+01
    endloop
  endfacet
  facet normal 9.663554e-01 2.572105e-01 0.000000e+00
    outer loop
      vertex 2.000000e+01 0.000000e+00 -1.600000e+01
      vertex 1.879385e+01 4.531572e+00 0.000000e+00
      vertex 2.000000e+01 0.000000e+00 0.000000e+00
    endloop
  endfacet
  facet normal 9.663554e-01 2.572105e-01 0.000000e+00
    outer loop
      vertex 2.000000e+01 0.000000e+00 -1.600000e+01
      vertex 1.879385e+01 4.531572e+00 -1.600000e+01
      vertex 1.879385e+01 4.531572e+00 0.000000e+00
    endloop
  endfacet
  facet normal 7.538793e-01 6.570129e-01 0.000000e+00
    outer loop
      vertex 1.879385e+01 4.531572e+00 -1.600000e+01
      vertex 1.532089e+01 8.516570e+00 0.000000e+00
      vertex 1.879385e+01 4.531572e+00 0.000000e+00
    endloop
  endfacet
  facet normal 7.538793e-01 6.570129e-01 0.000000e+00
    outer loop
      vertex 1.879385e+01 4.531572e+00 -1.600000e+01
      vertex 1.532089e+01 8.516570e+00 -1.600000e+01
      vertex 1.532089e+01 8.516570e+00 0.000000e+00
    endloop
  endfacet
  facet normal 4.858594e-01 8.740370e-01 0.000000e+00
    outer loop
      vertex 1.532089e+01 8.516570e+00 -1.600000e+01
      vertex 9.999999e+00 1.147434e+01 0.000000e+00
      vertex 1.532089e+01 8.516570e+00 0.000000e+00
    endloop
  endfacet
  facet normal 4.858594e-01 8.740370e-01 0.000000e+00
    outer loop
      vertex 1.532089e+01 8.516570e+00 -1.600000e+01
      vertex 9.999999e+00 1.147434e+01 -1.600000e+01
      vertex 9.999999e+00 1.147434e+01 0.000000e+00
    endloop
  endfacet
  facet normal 2.344022e-01 9.721397e-01 0.000000e+00
    outer loop
      vertex 9.999999e+00 1.147434e+01 -1.600000e+01
      vertex 3.472962e+00 1.304814e+01 0.000000e+00
      vertex 9.999999e+00 1.147434e+01 0.000000e+00
    endloop
  endfacet
  facet normal 2.344022e-01 9.721397e-01 0.000000e+00
    outer loop
      vertex 9.999999e+00 1.147434e+01 -1.600000e+01
      vertex 3.472962e+00 1.304814e+01 -1.600000e+01
      vertex 3.472962e+00 1.304814e+01 0.000000e+00
    endloop
  endfacet
  facet normal 0.000000e+00 1.000000e+00 0.000000e+00
    outer loop
      vertex 3.472962e+00 1.304814e+01 -1.600000e+01
      vertex -3.472966e+00 1.304814e+01 0.000000e+00
      vertex 3.472962e+00 1.304814e+01 0.000000e+00
    endloop
  endfacet
  facet normal -0.000000e+00 1.000000e+00 0.000000e+00
    outer loop
      vertex 3.472962e+00 1.304814e+01 -1.600000e+01
      vertex -3.472966e+00 1.304814e+01 -1.600000e+01
      vertex -3.472966e+00 1.304814e+01 0.000000e+00
    endloop
  endfacet
  facet normal -2.344024e-01 9.721397e-01 0.000000e+00
    outer loop
      vertex -3.472966e+00 1.304814e+01 -1.600000e+01
      vertex -1.000000e+01 1.147434e+01 0.000000e+00
      vertex -3.472966e+00 1.304814e+01 0.000000e+00
    endloop
  endfacet
  facet normal -2.344024e-01 9.721397e-01 0.000000e+00
    outer loop
      vertex -3.472966e+00 1.304814e+01 -1.600000e+01
      vertex -1.000000e+01 1.147434e+01 -1.600000e+01
      vertex -1.000000e+01 1.147434e+01 0.000000e+00
    endloop
  endfacet
  facet normal -4.858594e-01 8.740370e-01 0.000000e+00
    outer loop
      vertex -1.000000e+01 1.147434e+01 -1.600000e+01
      vertex -1.532089e+01 8.516570e+00 0.000000e+00
      vertex -1.000000e+01 1.147434e+01 0.000000e+00
    endloop
  endfacet
  facet normal -4.858594e-01 8.740370e-01 0.000000e+00
    outer loop
      vertex -1.000000e+01 1.147434e+01 -1.600000e+01
      vertex -1.532089e+01 8.516570e+00 -1.600000e+01
      vertex -1.532089e+01 8.516570e+00 0.000000e+00
    endloop
  endfacet
  facet normal -7.538792e-01 6.570131e-01 0.000000e+00
    outer loop
      vertex -1.532089e+01 8.516570e+00 -1.600000e+01
      vertex -1.879385e+01 4.531573e+00 0.000000e+00
      vertex -1.532089e+01 8.516570e+00 0.000000e+00
    endloop
  endfacet
  facet normal -7.538792e-01 6.570131e-01 0.000000e+00
    outer loop
      vertex -1.532089e+01 8.516570e+00 -1.600000e+01
      vertex -1.879385e+01 4.531573e+00 -1.600000e+01
      vertex -1.879385e+01 4.531573e+00 0.000000e+00
    endloop
  endfacet
  facet normal -9.663554e-01 2.572105e-01 0.000000e+00
    outer loop
      vertex -1.879385e+01 4.531573e+00 -1.600000e+01
      vertex -2.000000e+01 2.000608e-06 0.000000e+00
      vertex -1.879385e+01 4.531573e+00 0.000000e+00
    endloop
  endfacet
  facet normal -9.663554e-01 2.572105e-01 0.000000e+00
    outer loop
      vertex -1.879385e+01 4.531573e+00 -1.600000e+01
      vertex -2.000000e+01 2.000608e-06 -1.600000e+01
      vertex -2.000000e+01 2.000608e-06 0.000000e+00
    endloop
  endfacet
  facet normal -9.663555e-01 -2.572101e-01 -0.000000e+00
    outer loop
      vertex -2.000000e+01 2.000608e-06 -1.600000e+01
      vertex -1.879385e+01 -4.531569e+00 0.000000e+00
      vertex -2.000000e+01 2.000608e-06 0.000000e+00
    endloop
  endfacet
  facet normal -9.663555e-01 -2.572101e-01 0.000000e+00
    outer loop
      vertex -2.000000e+01 2.000608e-06 -1.600000e+01
      vertex -1.879385e+01 -4.531569e+00 -1.600000e+01
      vertex -1.879385e+01 -4.531569e+00 0.000000e+00
    endloop
  endfacet
  facet normal -7.538795e-01 -6.570128e-01 -0.000000e+00
    outer loop
      vertex -1.879385e+01 -4.531569e+00 -1.600000e+01
      vertex -1.532089e+01 -8.516567e+00 0.000000e+00
      vertex -1.879385e+01 -4.531569e+00 0.000000e+00
    endloop
  endfacet
  facet normal -7.538795e-01 -6.570128e-01 0.000000e+00
    outer loop
      vertex -1.879385e+01 -4.531569e+00 -1.600000e+01
      vertex -1.532089e+01 -8.516567e+00 -1.600000e+01
      vertex -1.532089e+01 -8.516567e+00 0.000000e+00
    endloop
  endfacet
  facet normal -4.858595e-01 -8.740370e-01 -0.000000e+00
    outer loop
      vertex -1.532089e+01 -8.516567e+00 -1.600000e+01
      vertex -1.000001e+01 -1.147434e+01 0.000000e+00
      vertex -1.532089e+01 -8.516567e+00 0.000000e+00
    endloop
  endfacet
  facet normal -4.858595e-01 -8.740370e-01 0.000000e+00
    outer loop
      vertex -1.532089e+01 -8.516567e+00 -1.600000e+01
      vertex -1.000001e+01 -1.147434e+01 -1.600000e+01
      vertex -1.000001e+01 -1.147434e+01 0.000000e+00
    endloop
  endfacet
  facet normal -2.344027e-01 -9.721396e-01 -0.000000e+00
    outer loop
      vertex -1.000001e+01 -1.147434e+01 -1.600000e+01
      vertex -3.472972e+00 -1.304814e+01 0.000000e+00
      vertex -1.000001e+01 -1.147434e+01 0.000000e+00
    endloop
  endfacet
  facet normal -2.344027e-01 -9.721396e-01 0.000000e+00
    outer loop
      vertex -1.000001e+01 -1.147434e+01 -1.600000e+01
      vertex -3.472972e+00 -1.304814e+01 -1.600000e+01
      vertex -3.472972e+00 -1.304814e+01 0.000000e+00
    endloop
  endfacet
  facet normal -2.745996e-07 -1.000000e+00 -0.000000e+00
    outer loop
      vertex -3.472972e+00 -1.304814e+01 -1.600000e+01
      vertex 3.472954e+00 -1.304814e+01 0.000000e+00
      vertex -3.472972e+00 -1.304814e+01 0.000000e+00
    endloop
  endfacet
  facet normal -2.745996e-07 -1.000000e+00 0.000000e+00
    outer loop
      vertex -3.472972e+00 -1.304814e+01 -1.600000e+01
      vertex 3.472954e+00 -1.304814e+01 -1.600000e+01
      vertex 3.472954e+00 -1.304814e+01 0.000000e+00
    endloop
  endfacet
  facet normal 2.344018e-01 -9.721398e-01 0.000000e+00
    outer loop
      vertex 3.472954e+00 -1.304814e+01 -1.600000e+01
      vertex 9.999990e+00 -1.147435e+01 0.000000e+00
      vertex 3.472954e+00 -1.304814e+01 0.000000e+00
    endloop
  endfacet
  facet normal 2.344018e-01 -9.721398e-01 0.000000e+00
    outer loop
      vertex 3.472954e+00 -1.304814e+01 -1.600000e+01
      vertex 9.999990e+00 -1.147435e+01 -1.600000e+01
      vertex 9.999990e+00 -1.147435e+01 0.000000e+00
    endloop
  endfacet
  facet normal 4.858589e-01 -8.740373e-01 0.000000e+00
    outer loop
      vertex 9.999990e+00 -1.147435e+01 -1.600000e+01
      vertex 1.532088e+01 -8.516577e+00 0.000000e+00
      vertex 9.999990e+00 -1.147435e+01 0.000000e+00
    endloop
  endfacet
  facet normal 4.858589e-01 -8.740373e-01 0.000000e+00
    outer loop
      vertex 9.999990e+00 -1.147435e+01 -1.600000e+01
      vertex 1.532088e+01 -8.516577e+00 -1.600000e+01
      vertex 1.532088e+01 -8.516577e+00 0.000000e+00
    endloop
  endfacet
  facet normal 7.538788e-01 -6.570135e-01 0.000000e+00
    outer loop
      vertex 1.532088e+01 -8.516577e+00 -1.600000e+01
      vertex 1.879385e+01 -4.531581e+00 0.000000e+00
      vertex 1.532088e+01 -8.516577e+00 0.000000e+00
    endloop
  endfacet
  facet normal 7.538788e-01 -6.570135e-01 0.000000e+00
    outer loop
      vertex 1.532088e+01 -8.516577e+00 -1.600000e+01
      vertex 1.879385e+01 -4.531581e+00 -1.600000e+01
      vertex 1.879385e+01 -4.531581e+00 0.000000e+00
    endloop
  endfacet
  facet normal 9.663553e-01 -2.572108e-01 0.000000e+00
    outer loop
      vertex 1.879385e+01 -4.531581e+00 -1.600000e+01
      vertex 2.000000e+01 0.000000e+00 0.000000e+00
      vertex 1.879385e+01 -4.531581e+00 0.000000e+00
    endloop
  endfacet
  facet normal 9.663553e-01 -2.572108e-01 0.000000e+00
    outer loop
      vertex 1.879385e+01 -4.531581e+00 -1.600000e+01
      vertex 2.000000e+01 0.000000e+00 -1.600000e+01
      vertex 2.000000e+01 0.000000e+00 0.000000e+00
    endloop
  endfacet
  facet normal 0.000000e+00 0.000000e+00 1.000000e+00
    outer loop
      vertex 0.000000e+00 0.000000e+00 0.000000e+00
      vertex 2.000000e+01 0.000000e+00 0.000000e+00
      vertex 1.879385e+01 4.531572e+00 0.000000e+00
    endloop
  endfacet
  facet normal 0.000000e+00 0.000000e+00 1.000000e+00
    outer loop
      vertex 0.000000e+00 0.000000e+00 0.000000e+00
      vertex 1.879385e+01 4.531572e+00 0.000000e+00
      vertex 1.532089e+01 8.516570e+00 0.000000e+00
    endloop
  endfacet
  facet normal 0.000000e+00 0.000000e+00 1.000000e+00
    outer loop
      vertex 0.000000e+00 0.000000e+00 0.000000e+00
      vertex 1.532089e+01 8.516570e+00 0.000000e+00
      vertex 9.999999e+00 1.147434e+01 0.000000e+00
    endloop
  endfacet
  facet normal 0.000000e+00 0.000000e+00 1.000000e+00
    outer loop
      vertex 0.000000e+00 0.000000e+00 0.000000e+00
      vertex 9.999999e+00 1.147434e+01 0.000000e+00
      vertex 3.472962e+00 1.304814e+01 0.000000e+00
    endloop
  endfacet
  facet normal 0.000000e+00 0.000000e+00 1.000000e+00
    outer loop
      vertex 0.000000e+00 0.000000e+00 0.000000e+00
      vertex 3.472962e+00 1.304814e+01 0.000000e+00
      vertex -3.472966e+00 1.304814e+01 0.000000e+00
    endloop
  endfacet
  facet normal 0.000000e+00 0.000000e+00 1.000000e+00
    outer loop
      vertex 0.000000e+00 0.000000e+00 0.000000e+00
      vertex -3.472966e+00 1.304814e+01 0.000000e+00
      vertex -1.000000e+01 1.147434e+01 0.000000e+00
    endloop
  endfacet
  facet normal 0.000000e+00 0.000000e+00 1.000000e+00
    outer loop
      vertex 0.000000e+00 0.000000e+00 0.000000e+00
      vertex -1.000000e+01 1.147434e+01 0.000000e+00
      vertex -1.532089e+01 8.516570e+00 0.000000e+00
    endloop
  endfacet
  facet normal 0.000000e+00 0.000000e+00 1.000000e+00
    outer loop
      vertex 0.000000e+00 0.000000e+00 0.000000e+00
      vertex -1.532089e+01 8.516570e+00 0.000000e+00
      vertex -1.879385e+01 4.531573e+00 0.000000e+00
    endloop
  endfacet
  facet normal 0.000000e+00 0.000000e+00 1.000000e+00
    outer loop
      vertex 0.000000e+00 0.000000e+00 0.000000e+00
      vertex -1.879385e+01 4.531573e+00 0.000000e+00
      vertex -2.000000e+01 2.000608e-06 0.000000e+00
    endloop
  endfacet
  facet normal -0.000000e+00 0.000000e+00 1.000000e+00
    outer loop
      vertex 0.000000e+00 0.000000e+00 0.000000e+00
      vertex -2.000000e+01 2.000608e-06 0.000000e+00
      vertex -1.879385e+01 -4.531569e+00 0.000000e+00
    endloop
  endfacet
  facet normal 0.000000e+00 0.000000e+00 1.000000e+00
    outer loop
      vertex 0.000000e+00 0.000000e+00 0.000000e+00
      vertex -1.879385e+01 -4.531569e+00 0.000000e+00
      vertex -1.532089e+01 -8.516567e+00 0.000000e+00
    endloop
  endfacet
  facet normal 0.000000e+00 0.000000e+00 1.000000e+00
    outer loop
      vertex 0.000000e+00 0.000000e+00 0.000000e+00
      vertex -1.532089e+01 -8.516567e+00 0.000000e+00
      vertex -1.000001e+01 -1.147434e+01 0.000000e+00
    endloop
  endfacet
  facet normal 0.000000e+00 0.000000e+00 1.000000e+00
    outer loop
      vertex 0.000000e+00 0.000000e+00 0.000000e+00
      vertex -1.000001e+01 -1.147434e+01 0.000000e+00
      vertex -3.472972e+00 -1.304814e+01 0.000000e+00
    endloop
  endfacet
  facet normal 0.000000e+00 -0.000000e+00 1.000000e+00
    outer loop
      vertex 0.000000e+00 0.000000e+00 0.000000e+00
      vertex -3.472972e+00 -1.304814e+01 0.000000e+00
      vertex 3.472954e+00 -1.304814e+01 0.000000e+00
    endloop
  endfacet
  facet normal 0.000000e+00 0.000000e+00 1.000000e+00
    outer loop
      vertex 0.000000e+00 0.000000e+00 0.000000e+00
      vertex 3.472954e+00 -1.304814e+01 0.000000e+00
      vertex 9.999990e+00 -1.147435e+01 0.000000e+00
    endloop
  endfacet
  facet normal 0.000000e+00 0.000000e+00 1.000000e+00
    outer loop
      vertex 0.000000e+00 0.000000e+00 0.000000e+00
      vertex 9.999990e+00 -1.147435e+01 0.000000e+00
      vertex 1.532088e+01 -8.516577e+00 0.000000e+00
    endloop
  endfacet
  facet normal 0.000000e+00 0.000000e+00 1.000000e+00
    outer loop
      vertex 0.000000e+00 0.000000e+00 0.000000e+00
      vertex 1.532088e+01 -8.516577e+00 0.000000e+00
      vertex 1.879385e+01 -4.531581e+00 0.000000e+00
    endloop
  endfacet
  facet normal 0.000000e+00 0.000000e+00 1.000000e+00
    outer loop
      vertex 0.000000e+00 0.000000e+00 0.000000e+00
      vertex 1.879385e+01 -4.531581e+00 0.000000e+00
      vertex 2.000000e+01 0.000000e+00 0.000000e+00
    endloop
  endfacet
endsolid Spine
