solid Exported from Blender-3.2.0
facet normal 0.000000 0.923880 -0.382683
outer loop
vertex 0.000000 0.600000 -0.000001
vertex 20.000000 0.600000 0.000001
vertex 20.000000 0.424264 -0.424263
endloop
endfacet
facet normal 0.000000 0.923879 -0.382684
outer loop
vertex 0.000000 0.600000 -0.000001
vertex 20.000000 0.424264 -0.424263
vertex 0.000000 0.424264 -0.424265
endloop
endfacet
facet normal 0.000000 0.382683 -0.923879
outer loop
vertex 0.000000 0.424264 -0.424265
vertex 20.000000 0.424264 -0.424263
vertex 20.000000 -0.000000 -0.599999
endloop
endfacet
facet normal 0.000000 0.382683 -0.923880
outer loop
vertex 0.000000 0.424264 -0.424265
vertex 20.000000 -0.000000 -0.599999
vertex 0.000000 -0.000000 -0.600001
endloop
endfacet
facet normal 0.000000 -0.382683 -0.923879
outer loop
vertex 0.000000 -0.000000 -0.600001
vertex 20.000000 -0.000000 -0.599999
vertex 20.000000 -0.424264 -0.424263
endloop
endfacet
facet normal 0.000000 -0.382684 -0.923880
outer loop
vertex 0.000000 -0.000000 -0.600001
vertex 20.000000 -0.424264 -0.424263
vertex 0.000000 -0.424264 -0.424265
endloop
endfacet
facet normal 0.000000 -0.923880 -0.382684
outer loop
vertex 0.000000 -0.424264 -0.424265
vertex 20.000000 -0.424264 -0.424263
vertex 20.000000 -0.600000 0.000001
endloop
endfacet
facet normal 0.000000 -0.923880 -0.382683
outer loop
vertex 0.000000 -0.424264 -0.424265
vertex 20.000000 -0.600000 0.000001
vertex 0.000000 -0.600000 -0.000001
endloop
endfacet
facet normal -0.000000 -0.923880 0.382683
outer loop
vertex 0.000000 -0.600000 -0.000001
vertex 20.000000 -0.600000 0.000001
vertex 20.000000 -0.424264 0.424265
endloop
endfacet
facet normal -0.000000 -0.923879 0.382684
outer loop
vertex 0.000000 -0.600000 -0.000001
vertex 20.000000 -0.424264 0.424265
vertex 0.000000 -0.424264 0.424263
endloop
endfacet
facet normal -0.000000 -0.382684 0.923879
outer loop
vertex 0.000000 -0.424264 0.424263
vertex 20.000000 -0.424264 0.424265
vertex 20.000000 0.000000 0.600001
endloop
endfacet
facet normal -0.000000 -0.382683 0.923879
outer loop
vertex 0.000000 -0.424264 0.424263
vertex 20.000000 0.000000 0.600001
vertex 0.000000 0.000000 0.599999
endloop
endfacet
facet normal 1.000000 0.000000 0.000000
outer loop
vertex 20.000000 -0.000000 -0.599999
vertex 20.000000 0.424264 -0.424263
vertex 20.000000 0.600000 0.000001
endloop
endfacet
facet normal 1.000000 -0.000019 0.000000
outer loop
vertex 20.000000 0.600000 0.000001
vertex 20.000000 0.424264 0.424265
vertex 20.000000 0.000000 0.600001
endloop
endfacet
facet normal 1.000000 0.000013 0.000000
outer loop
vertex 20.000000 0.000000 0.600001
vertex 20.000000 -0.424264 0.424265
vertex 20.000000 -0.600000 0.000001
endloop
endfacet
facet normal 1.000000 -0.000006 0.000000
outer loop
vertex 20.000000 -0.600000 0.000001
vertex 20.000000 -0.424264 -0.424263
vertex 20.000000 -0.000000 -0.599999
endloop
endfacet
facet normal 1.000000 0.000000 0.000000
outer loop
vertex 20.000000 -0.000000 -0.599999
vertex 20.000000 0.600000 0.000001
vertex 20.000000 0.000000 0.600001
endloop
endfacet
facet normal 1.000000 0.000003 0.000000
outer loop
vertex 20.000000 0.000000 0.600001
vertex 20.000000 -0.600000 0.000001
vertex 20.000000 -0.000000 -0.599999
endloop
endfacet
facet normal -0.000000 0.382683 0.923880
outer loop
vertex 0.000000 0.000000 0.599999
vertex 20.000000 0.000000 0.600001
vertex 20.000000 0.424264 0.424265
endloop
endfacet
facet normal -0.000000 0.382683 0.923880
outer loop
vertex 0.000000 0.000000 0.599999
vertex 20.000000 0.424264 0.424265
vertex 0.000000 0.424264 0.424263
endloop
endfacet
facet normal -0.000000 0.923879 0.382684
outer loop
vertex 0.000000 0.424264 0.424263
vertex 20.000000 0.424264 0.424265
vertex 20.000000 0.600000 0.000001
endloop
endfacet
facet normal -0.000000 0.923880 0.382683
outer loop
vertex 0.000000 0.424264 0.424263
vertex 20.000000 0.600000 0.000001
vertex 0.000000 0.600000 -0.000001
endloop
endfacet
facet normal -1.000000 0.000000 0.000000
outer loop
vertex 0.000000 0.424264 0.424263
vertex 0.000000 0.600000 -0.000001
vertex 0.000000 0.424264 -0.424265
endloop
endfacet
facet normal -1.000000 0.000000 0.000000
outer loop
vertex 0.000000 0.424264 -0.424265
vertex 0.000000 -0.000000 -0.600001
vertex 0.000000 -0.424264 -0.424265
endloop
endfacet
facet normal -1.000000 0.000000 0.000000
outer loop
vertex 0.000000 -0.424264 -0.424265
vertex 0.000000 -0.600000 -0.000001
vertex 0.000000 -0.424264 0.424263
endloop
endfacet
facet normal -1.000000 0.000000 0.000000
outer loop
vertex 0.000000 -0.424264 0.424263
vertex 0.000000 0.000000 0.599999
vertex 0.000000 0.424264 0.424263
endloop
endfacet
facet normal -1.000000 0.000000 0.000000
outer loop
vertex 0.000000 0.424264 0.424263
vertex 0.000000 0.424264 -0.424265
vertex 0.000000 -0.424264 -0.424265
endloop
endfacet
facet normal -1.000000 0.000000 0.000000
outer loop
vertex 0.000000 -0.424264 -0.424265
vertex 0.000000 -0.424264 0.424263
vertex 0.000000 0.424264 0.424263
endloop
endfacet
facet normal -0.923878 0.000000 -0.382686
outer loop
vertex 19.400000 0.000000 -0.000000
vertex 19.400000 10.000000 -0.000000
vertex 19.575737 10.000000 -0.424264
endloop
endfacet
facet normal -0.923880 0.000000 -0.382683
outer loop
vertex 19.400000 0.000000 -0.000000
vertex 19.575737 10.000000 -0.424264
vertex 19.575735 0.000000 -0.424264
endloop
endfacet
facet normal -0.382684 0.000000 -0.923879
outer loop
vertex 19.575735 0.000000 -0.424264
vertex 19.575737 10.000000 -0.424264
vertex 20.000000 10.000000 -0.600000
endloop
endfacet
facet normal -0.382683 0.000000 -0.923880
outer loop
vertex 19.575735 0.000000 -0.424264
vertex 20.000000 10.000000 -0.600000
vertex 20.000000 0.000000 -0.600000
endloop
endfacet
facet normal 0.382683 0.000000 -0.923880
outer loop
vertex 20.000000 0.000000 -0.600000
vertex 20.000000 10.000000 -0.600000
vertex 20.424265 10.000000 -0.424264
endloop
endfacet
facet normal 0.382684 0.000000 -0.923879
outer loop
vertex 20.000000 0.000000 -0.600000
vertex 20.424265 10.000000 -0.424264
vertex 20.424263 0.000000 -0.424264
endloop
endfacet
facet normal 0.923880 -0.000000 -0.382683
outer loop
vertex 20.424263 0.000000 -0.424264
vertex 20.424265 10.000000 -0.424264
vertex 20.600000 10.000000 0.000000
endloop
endfacet
facet normal 0.923878 0.000000 -0.382686
outer loop
vertex 20.424263 0.000000 -0.424264
vertex 20.600000 10.000000 0.000000
vertex 20.600000 0.000000 0.000000
endloop
endfacet
facet normal 0.923880 0.000000 0.382683
outer loop
vertex 20.600000 0.000000 0.000000
vertex 20.600000 10.000000 0.000000
vertex 20.424265 10.000000 0.424264
endloop
endfacet
facet normal 0.923878 -0.000000 0.382686
outer loop
vertex 20.600000 0.000000 0.000000
vertex 20.424265 10.000000 0.424264
vertex 20.424263 0.000000 0.424264
endloop
endfacet
facet normal 0.382683 0.000000 0.923880
outer loop
vertex 20.424263 0.000000 0.424264
vertex 20.424265 10.000000 0.424264
vertex 20.000000 10.000000 0.600000
endloop
endfacet
facet normal 0.382684 0.000000 0.923879
outer loop
vertex 20.424263 0.000000 0.424264
vertex 20.000000 10.000000 0.600000
vertex 20.000000 0.000000 0.600000
endloop
endfacet
facet normal 0.000000 1.000000 0.000000
outer loop
vertex 20.000000 10.000000 -0.600000
vertex 19.575737 10.000000 -0.424264
vertex 19.400000 10.000000 -0.000000
endloop
endfacet
facet normal 0.000000 1.000000 0.000000
outer loop
vertex 19.400000 10.000000 -0.000000
vertex 19.575737 10.000000 0.424264
vertex 20.000000 10.000000 0.600000
endloop
endfacet
facet normal 0.000000 1.000000 0.000000
outer loop
vertex 20.000000 10.000000 0.600000
vertex 20.424265 10.000000 0.424264
vertex 20.600000 10.000000 0.000000
endloop
endfacet
facet normal 0.000000 1.000000 0.000000
outer loop
vertex 20.600000 10.000000 0.000000
vertex 20.424265 10.000000 -0.424264
vertex 20.000000 10.000000 -0.600000
endloop
endfacet
facet normal 0.000000 1.000000 0.000000
outer loop
vertex 20.000000 10.000000 -0.600000
vertex 19.400000 10.000000 -0.000000
vertex 20.000000 10.000000 0.600000
endloop
endfacet
facet normal 0.000000 1.000000 0.000000
outer loop
vertex 20.000000 10.000000 0.600000
vertex 20.600000 10.000000 0.000000
vertex 20.000000 10.000000 -0.600000
endloop
endfacet
facet normal -0.382684 0.000000 0.923879
outer loop
vertex 20.000000 0.000000 0.600000
vertex 20.000000 10.000000 0.600000
vertex 19.575737 10.000000 0.424264
endloop
endfacet
facet normal -0.382683 0.000000 0.923880
outer loop
vertex 20.000000 0.000000 0.600000
vertex 19.575737 10.000000 0.424264
vertex 19.575735 0.000000 0.424264
endloop
endfacet
facet normal -0.923878 0.000000 0.382686
outer loop
vertex 19.575735 0.000000 0.424264
vertex 19.575737 10.000000 0.424264
vertex 19.400000 10.000000 -0.000000
endloop
endfacet
facet normal -0.923880 0.000000 0.382683
outer loop
vertex 19.575735 0.000000 0.424264
vertex 19.400000 10.000000 -0.000000
vertex 19.400000 0.000000 -0.000000
endloop
endfacet
facet normal 0.000000 -1.000000 0.000000
outer loop
vertex 19.575735 0.000000 0.424264
vertex 19.400000 0.000000 -0.000000
vertex 19.575735 0.000000 -0.424264
endloop
endfacet
facet normal 0.000000 -1.000000 0.000000
outer loop
vertex 19.575735 0.000000 -0.424264
vertex 20.000000 0.000000 -0.600000
vertex 20.424263 0.000000 -0.424264
endloop
endfacet
facet normal 0.000000 -1.000000 0.000000
outer loop
vertex 20.424263 0.000000 -0.424264
vertex 20.600000 0.000000 0.000000
vertex 20.424263 0.000000 0.424264
endloop
endfacet
facet normal 0.000000 -1.000000 0.000000
outer loop
vertex 20.424263 0.000000 0.424264
vertex 20.000000 0.000000 0.600000
vertex 19.575735 0.000000 0.424264
endloop
endfacet
facet normal 0.000000 -1.000000 0.000000
outer loop
vertex 19.575735 0.000000 0.424264
vertex 19.575735 0.000000 -0.424264
vertex 20.424263 0.000000 -0.424264
endloop
endfacet
facet normal 0.000000 -1.000000 0.000000
outer loop
vertex 20.424263 0.000000 -0.424264
vertex 20.424263 0.000000 0.424264
vertex 19.575735 0.000000 0.424264
endloop
endfacet
endsolid Exported from Blender-3.2.0
