solid Exported from Blender-3.2.0
facet normal 0.382684 0.923880 0.000000
outer loop
vertex 0.000000 1.750000 -2.200000
vertex 0.000000 1.750000 0.000000
vertex 1.237437 1.237437 0.000000
endloop
endfacet
facet normal 0.382684 0.923880 0.000000
outer loop
vertex 0.000000 1.750000 -2.200000
vertex 1.237437 1.237437 0.000000
vertex 1.237437 1.237437 -2.200000
endloop
endfacet
facet normal 0.923880 0.382684 0.000000
outer loop
vertex 1.237437 1.237437 -2.200000
vertex 1.237437 1.237437 0.000000
vertex 1.750000 -0.000000 0.000000
endloop
endfacet
facet normal 0.923880 0.382684 0.000000
outer loop
vertex 1.237437 1.237437 -2.200000
vertex 1.750000 -0.000000 0.000000
vertex 1.750000 -0.000000 -2.200000
endloop
endfacet
facet normal 0.923879 -0.382684 0.000000
outer loop
vertex 1.750000 -0.000000 -2.200000
vertex 1.750000 -0.000000 0.000000
vertex 1.237437 -1.237437 0.000000
endloop
endfacet
facet normal 0.923879 -0.382684 0.000000
outer loop
vertex 1.750000 -0.000000 -2.200000
vertex 1.237437 -1.237437 0.000000
vertex 1.237437 -1.237437 -2.200000
endloop
endfacet
facet normal 0.382683 -0.923879 0.000000
outer loop
vertex 1.237437 -1.237437 -2.200000
vertex 1.237437 -1.237437 0.000000
vertex -0.000000 -1.750000 0.000000
endloop
endfacet
facet normal 0.382683 -0.923880 0.000000
outer loop
vertex 1.237437 -1.237437 -2.200000
vertex -0.000000 -1.750000 0.000000
vertex -0.000000 -1.750000 -2.200000
endloop
endfacet
facet normal -0.382683 -0.923880 0.000000
outer loop
vertex -0.000000 -1.750000 -2.200000
vertex -0.000000 -1.750000 0.000000
vertex -1.237437 -1.237437 0.000000
endloop
endfacet
facet normal -0.382684 -0.923880 0.000000
outer loop
vertex -0.000000 -1.750000 -2.200000
vertex -1.237437 -1.237437 0.000000
vertex -1.237437 -1.237437 -2.200000
endloop
endfacet
facet normal -0.923880 -0.382684 0.000000
outer loop
vertex -1.237437 -1.237437 -2.200000
vertex -1.237437 -1.237437 0.000000
vertex -1.750000 0.000000 0.000000
endloop
endfacet
facet normal -0.923880 -0.382684 0.000000
outer loop
vertex -1.237437 -1.237437 -2.200000
vertex -1.750000 0.000000 0.000000
vertex -1.750000 0.000000 -2.200000
endloop
endfacet
facet normal 0.000000 0.000000 1.000000
outer loop
vertex 1.750000 -0.000000 0.000000
vertex 1.237437 1.237437 0.000000
vertex 0.000000 1.750000 0.000000
endloop
endfacet
facet normal 0.000000 0.000000 1.000000
outer loop
vertex 0.000000 1.750000 0.000000
vertex -1.237437 1.237437 0.000000
vertex -1.750000 0.000000 0.000000
endloop
endfacet
facet normal 0.000000 0.000000 1.000000
outer loop
vertex -1.750000 0.000000 0.000000
vertex -1.237437 -1.237437 0.000000
vertex -0.000000 -1.750000 0.000000
endloop
endfacet
facet normal 0.000000 0.000000 1.000000
outer loop
vertex -0.000000 -1.750000 0.000000
vertex 1.237437 -1.237437 0.000000
vertex 1.750000 -0.000000 0.000000
endloop
endfacet
facet normal 0.000000 0.000000 1.000000
outer loop
vertex 1.750000 -0.000000 0.000000
vertex 0.000000 1.750000 0.000000
vertex -1.750000 0.000000 0.000000
endloop
endfacet
facet normal 0.000000 0.000000 1.000000
outer loop
vertex -1.750000 0.000000 0.000000
vertex -0.000000 -1.750000 0.000000
vertex 1.750000 -0.000000 0.000000
endloop
endfacet
facet normal -0.923880 0.382683 0.000000
outer loop
vertex -1.750000 0.000000 -2.200000
vertex -1.750000 0.000000 0.000000
vertex -1.237437 1.237437 0.000000
endloop
endfacet
facet normal -0.923880 0.382683 0.000000
outer loop
vertex -1.750000 0.000000 -2.200000
vertex -1.237437 1.237437 0.000000
vertex -1.237437 1.237437 -2.200000
endloop
endfacet
facet normal -0.382684 0.923879 0.000000
outer loop
vertex -1.237437 1.237437 -2.200000
vertex -1.237437 1.237437 0.000000
vertex 0.000000 1.750000 0.000000
endloop
endfacet
facet normal -0.382684 0.923879 0.000000
outer loop
vertex -1.237437 1.237437 -2.200000
vertex 0.000000 1.750000 0.000000
vertex 0.000000 1.750000 -2.200000
endloop
endfacet
facet normal 0.000000 0.000000 -1.000000
outer loop
vertex -1.237437 1.237437 -2.200000
vertex 0.000000 1.750000 -2.200000
vertex 1.237437 1.237437 -2.200000
endloop
endfacet
facet normal -0.000000 0.000000 -1.000000
outer loop
vertex 1.237437 1.237437 -2.200000
vertex 1.750000 -0.000000 -2.200000
vertex 1.237437 -1.237437 -2.200000
endloop
endfacet
facet normal -0.000000 0.000000 -1.000000
outer loop
vertex 1.237437 -1.237437 -2.200000
vertex -0.000000 -1.750000 -2.200000
vertex -1.237437 -1.237437 -2.200000
endloop
endfacet
facet normal 0.000000 0.000000 -1.000000
outer loop
vertex -1.237437 -1.237437 -2.200000
vertex -1.750000 0.000000 -2.200000
vertex -1.237437 1.237437 -2.200000
endloop
endfacet
facet normal 0.000000 0.000000 -1.000000
outer loop
vertex -1.237437 1.237437 -2.200000
vertex 1.237437 1.237437 -2.200000
vertex 1.237437 -1.237437 -2.200000
endloop
endfacet
facet normal -0.000000 0.000000 -1.000000
outer loop
vertex 1.237437 -1.237437 -2.200000
vertex -1.237437 -1.237437 -2.200000
vertex -1.237437 1.237437 -2.200000
endloop
endfacet
facet normal -1.000000 0.000000 0.000000
outer loop
vertex -0.000000 -2.625000 0.000000
vertex -0.000000 -2.625000 -2.200000
vertex -0.000000 -3.500000 -2.200000
endloop
endfacet
facet normal -1.000000 0.000000 0.000000
outer loop
vertex -0.000000 -2.625000 0.000000
vertex -0.000000 -3.500000 -2.200000
vertex -0.000000 -3.500000 0.000000
endloop
endfacet
facet normal -1.000000 0.000000 0.000000
outer loop
vertex -0.000000 -1.750000 0.000000
vertex -0.000000 -1.750000 -2.200000
vertex -0.000000 -2.625000 -2.200000
endloop
endfacet
facet normal -1.000000 0.000000 0.000000
outer loop
vertex -0.000000 -1.750000 0.000000
vertex -0.000000 -2.625000 -2.200000
vertex -0.000000 -2.625000 0.000000
endloop
endfacet
facet normal 0.000000 -1.000000 0.000000
outer loop
vertex -0.000000 -2.625000 0.000000
vertex -0.000000 -2.625000 -2.200000
vertex 1.000000 -2.625000 -2.200000
endloop
endfacet
facet normal 0.000000 -1.000000 0.000000
outer loop
vertex -0.000000 -2.625000 0.000000
vertex 1.000000 -2.625000 -2.200000
vertex 1.000000 -2.625000 0.000000
endloop
endfacet
facet normal 0.000000 -1.000000 0.000000
outer loop
vertex -0.000000 -2.625000 -2.200000
vertex -0.000000 -2.625000 0.000000
vertex -1.000000 -2.625000 0.000000
endloop
endfacet
facet normal 0.000000 -1.000000 0.000000
outer loop
vertex -0.000000 -2.625000 -2.200000
vertex -1.000000 -2.625000 0.000000
vertex -1.000000 -2.625000 -2.200000
endloop
endfacet
facet normal -0.382683 -0.923880 0.000000
outer loop
vertex 0.000000 1.740942 -2.193067
vertex 1.231032 1.231032 -2.193067
vertex 1.231032 1.231032 -0.006933
endloop
endfacet
facet normal -0.382683 -0.923880 0.000000
outer loop
vertex 0.000000 1.740942 -2.193067
vertex 1.231032 1.231032 -0.006933
vertex 0.000000 1.740942 -0.006933
endloop
endfacet
facet normal -0.923880 -0.382683 0.000000
outer loop
vertex 1.231032 1.231032 -2.193067
vertex 1.740942 -0.000000 -2.193067
vertex 1.740942 -0.000000 -0.006933
endloop
endfacet
facet normal -0.923880 -0.382683 0.000000
outer loop
vertex 1.231032 1.231032 -2.193067
vertex 1.740942 -0.000000 -0.006933
vertex 1.231032 1.231032 -0.006933
endloop
endfacet
facet normal -0.923880 0.382683 0.000000
outer loop
vertex 1.740942 -0.000000 -2.193067
vertex 1.231032 -1.231032 -2.193067
vertex 1.231032 -1.231032 -0.006933
endloop
endfacet
facet normal -0.923879 0.382683 0.000000
outer loop
vertex 1.740942 -0.000000 -2.193067
vertex 1.231032 -1.231032 -0.006933
vertex 1.740942 -0.000000 -0.006933
endloop
endfacet
facet normal -0.384340 0.923192 0.000000
outer loop
vertex 1.231032 -1.231032 -2.193067
vertex 0.004519 -1.741649 -2.193608
vertex 0.004519 -1.741649 -0.006392
endloop
endfacet
facet normal -0.384340 0.923192 0.000000
outer loop
vertex 1.231032 -1.231032 -2.193067
vertex 0.004519 -1.741649 -0.006392
vertex 1.231032 -1.231032 -0.006933
endloop
endfacet
facet normal 0.381940 0.924187 0.000000
outer loop
vertex 0.004519 -1.741649 -2.193608
vertex -1.231032 -1.231032 -2.193067
vertex -1.231032 -1.231032 -0.006933
endloop
endfacet
facet normal 0.381940 0.924187 0.000000
outer loop
vertex 0.004519 -1.741649 -2.193608
vertex -1.231032 -1.231032 -0.006933
vertex 0.004519 -1.741649 -0.006392
endloop
endfacet
facet normal 0.923880 0.382683 0.000000
outer loop
vertex -1.231032 -1.231032 -2.193067
vertex -1.740942 0.000000 -2.193067
vertex -1.740942 0.000000 -0.006933
endloop
endfacet
facet normal 0.923880 0.382683 0.000000
outer loop
vertex -1.231032 -1.231032 -2.193067
vertex -1.740942 0.000000 -0.006933
vertex -1.231032 -1.231032 -0.006933
endloop
endfacet
facet normal 0.000000 0.000000 -1.000000
outer loop
vertex 0.000000 1.740942 -0.006933
vertex 1.231032 1.231032 -0.006933
vertex 1.740942 -0.000000 -0.006933
endloop
endfacet
facet normal -0.000533 0.000221 -1.000000
outer loop
vertex 1.740942 -0.000000 -0.006933
vertex 1.231032 -1.231032 -0.006933
vertex 0.004519 -1.741649 -0.006392
endloop
endfacet
facet normal 0.000529 0.000219 -1.000000
outer loop
vertex 0.004519 -1.741649 -0.006392
vertex -1.231032 -1.231032 -0.006933
vertex -1.740942 0.000000 -0.006933
endloop
endfacet
facet normal 0.000000 0.000000 -1.000000
outer loop
vertex -1.740942 0.000000 -0.006933
vertex -1.231032 1.231032 -0.006933
vertex 0.000000 1.740942 -0.006933
endloop
endfacet
facet normal -0.000156 -0.000156 -1.000000
outer loop
vertex 0.000000 1.740942 -0.006933
vertex 1.740942 -0.000000 -0.006933
vertex 0.004519 -1.741649 -0.006392
endloop
endfacet
facet normal 0.000155 -0.000155 -1.000000
outer loop
vertex 0.004519 -1.741649 -0.006392
vertex -1.740942 0.000000 -0.006933
vertex 0.000000 1.740942 -0.006933
endloop
endfacet
facet normal 0.923880 -0.382683 0.000000
outer loop
vertex -1.740942 0.000000 -2.193067
vertex -1.231032 1.231032 -2.193067
vertex -1.231032 1.231032 -0.006933
endloop
endfacet
facet normal 0.923880 -0.382683 0.000000
outer loop
vertex -1.740942 0.000000 -2.193067
vertex -1.231032 1.231032 -0.006933
vertex -1.740942 0.000000 -0.006933
endloop
endfacet
facet normal 0.382683 -0.923880 0.000000
outer loop
vertex -1.231032 1.231032 -2.193067
vertex 0.000000 1.740942 -2.193067
vertex 0.000000 1.740942 -0.006933
endloop
endfacet
facet normal 0.382683 -0.923880 0.000000
outer loop
vertex -1.231032 1.231032 -2.193067
vertex 0.000000 1.740942 -0.006933
vertex -1.231032 1.231032 -0.006933
endloop
endfacet
facet normal 0.000000 0.000000 1.000000
outer loop
vertex 1.231032 1.231032 -2.193067
vertex 0.000000 1.740942 -2.193067
vertex -1.231032 1.231032 -2.193067
endloop
endfacet
facet normal -0.000001 0.000000 1.000000
outer loop
vertex -1.231032 1.231032 -2.193067
vertex -1.740942 0.000000 -2.193067
vertex -1.231032 -1.231032 -2.193067
endloop
endfacet
facet normal 0.000000 -0.001060 0.999999
outer loop
vertex -1.231032 -1.231032 -2.193067
vertex 0.004519 -1.741649 -2.193608
vertex 1.231032 -1.231032 -2.193067
endloop
endfacet
facet normal -0.000000 0.000000 1.000000
outer loop
vertex 1.231032 -1.231032 -2.193067
vertex 1.740942 -0.000000 -2.193067
vertex 1.231032 1.231032 -2.193067
endloop
endfacet
facet normal 0.000000 0.000000 1.000000
outer loop
vertex 1.231032 1.231032 -2.193067
vertex -1.231032 1.231032 -2.193067
vertex -1.231032 -1.231032 -2.193067
endloop
endfacet
facet normal 0.000000 0.000000 1.000000
outer loop
vertex -1.231032 -1.231032 -2.193067
vertex 1.231032 -1.231032 -2.193067
vertex 1.231032 1.231032 -2.193067
endloop
endfacet
facet normal 0.999992 0.003869 0.000000
outer loop
vertex 0.008249 -2.616750 0.000000
vertex 0.011667 -3.500000 0.000000
vertex 0.011667 -3.500000 -2.200000
endloop
endfacet
facet normal 0.999992 0.003869 0.000000
outer loop
vertex 0.008249 -2.616750 0.000000
vertex 0.011667 -3.500000 -2.200000
vertex 0.008249 -2.616750 -2.200000
endloop
endfacet
facet normal 0.999991 0.004263 0.000000
outer loop
vertex 0.004519 -1.741649 -0.006392
vertex 0.008249 -2.616750 0.000000
vertex 0.008249 -2.616750 -2.200000
endloop
endfacet
facet normal 0.999991 0.004263 0.000000
outer loop
vertex 0.004519 -1.741649 -0.006392
vertex 0.008249 -2.616750 -2.200000
vertex 0.004519 -1.741649 -2.193608
endloop
endfacet
facet normal -0.003446 0.999994 0.000000
outer loop
vertex 0.008249 -2.616750 0.000000
vertex 1.000000 -2.613333 0.000000
vertex 1.000000 -2.613333 -2.200000
endloop
endfacet
facet normal -0.003446 0.999994 0.000000
outer loop
vertex 0.008249 -2.616750 0.000000
vertex 1.000000 -2.613333 -2.200000
vertex 0.008249 -2.616750 -2.200000
endloop
endfacet
facet normal 0.003389 0.999994 0.000000
outer loop
vertex 0.008249 -2.616750 -2.200000
vertex -1.000000 -2.613333 -2.200000
vertex -1.000000 -2.613333 0.000000
endloop
endfacet
facet normal 0.003389 0.999994 0.000000
outer loop
vertex 0.008249 -2.616750 -2.200000
vertex -1.000000 -2.613333 0.000000
vertex 0.008249 -2.616750 0.000000
endloop
endfacet
facet normal 0.000000 -1.000000 0.000000
outer loop
vertex -0.000000 -3.500000 0.000000
vertex -0.000000 -3.500000 -2.200000
vertex 0.011667 -3.500000 -2.200000
endloop
endfacet
facet normal 0.000000 -1.000000 0.000000
outer loop
vertex -0.000000 -3.500000 0.000000
vertex 0.011667 -3.500000 -2.200000
vertex 0.011667 -3.500000 0.000000
endloop
endfacet
facet normal 0.000013 0.000000 -1.000000
outer loop
vertex -0.000000 -3.500000 -2.200000
vertex -0.000000 -2.625000 -2.200000
vertex 0.008249 -2.616750 -2.200000
endloop
endfacet
facet normal 0.000000 0.000000 -1.000000
outer loop
vertex -0.000000 -3.500000 -2.200000
vertex 0.008249 -2.616750 -2.200000
vertex 0.011667 -3.500000 -2.200000
endloop
endfacet
facet normal 0.000000 0.000000 1.000000
outer loop
vertex -0.000000 -1.750000 0.000000
vertex -0.000000 -2.625000 0.000000
vertex 0.008249 -2.616750 0.000000
endloop
endfacet
facet normal 0.811702 0.007726 0.584020
outer loop
vertex -0.000000 -1.750000 0.000000
vertex 0.008249 -2.616750 0.000000
vertex 0.004519 -1.741649 -0.006392
endloop
endfacet
facet normal 0.816534 0.000000 -0.577297
outer loop
vertex -0.000000 -2.625000 -2.200000
vertex -0.000000 -1.750000 -2.200000
vertex 0.004519 -1.741649 -2.193608
endloop
endfacet
facet normal -0.007267 0.007273 -0.999947
outer loop
vertex -0.000000 -2.625000 -2.200000
vertex 0.004519 -1.741649 -2.193608
vertex 0.008249 -2.616750 -2.200000
endloop
endfacet
facet normal 0.000000 0.000000 1.000000
outer loop
vertex -0.000000 -2.625000 0.000000
vertex -0.000000 -3.500000 0.000000
vertex 0.011667 -3.500000 0.000000
endloop
endfacet
facet normal 0.000000 0.000000 1.000000
outer loop
vertex -0.000000 -2.625000 0.000000
vertex 0.011667 -3.500000 0.000000
vertex 0.008249 -2.616750 0.000000
endloop
endfacet
facet normal 1.000000 0.000000 0.000000
outer loop
vertex 1.000000 -2.625000 0.000000
vertex 1.000000 -2.625000 -2.200000
vertex 1.000000 -2.613333 -2.200000
endloop
endfacet
facet normal 1.000000 0.000000 0.000000
outer loop
vertex 1.000000 -2.625000 0.000000
vertex 1.000000 -2.613333 -2.200000
vertex 1.000000 -2.613333 0.000000
endloop
endfacet
facet normal 0.000000 0.000000 -1.000000
outer loop
vertex 1.000000 -2.625000 -2.200000
vertex -0.000000 -2.625000 -2.200000
vertex 0.008249 -2.616750 -2.200000
endloop
endfacet
facet normal 0.000000 0.000000 -1.000000
outer loop
vertex 1.000000 -2.625000 -2.200000
vertex 0.008249 -2.616750 -2.200000
vertex 1.000000 -2.613333 -2.200000
endloop
endfacet
facet normal 0.000000 0.000000 1.000000
outer loop
vertex -0.000000 -2.625000 0.000000
vertex 1.000000 -2.625000 0.000000
vertex 1.000000 -2.613333 0.000000
endloop
endfacet
facet normal 0.000000 0.000000 1.000000
outer loop
vertex -0.000000 -2.625000 0.000000
vertex 1.000000 -2.613333 0.000000
vertex 0.008249 -2.616750 0.000000
endloop
endfacet
facet normal -1.000000 0.000000 0.000000
outer loop
vertex -1.000000 -2.625000 -2.200000
vertex -1.000000 -2.625000 0.000000
vertex -1.000000 -2.613333 0.000000
endloop
endfacet
facet normal -1.000000 0.000000 0.000000
outer loop
vertex -1.000000 -2.625000 -2.200000
vertex -1.000000 -2.613333 0.000000
vertex -1.000000 -2.613333 -2.200000
endloop
endfacet
facet normal 0.000000 0.000000 1.000000
outer loop
vertex -1.000000 -2.625000 0.000000
vertex -0.000000 -2.625000 0.000000
vertex 0.008249 -2.616750 0.000000
endloop
endfacet
facet normal 0.000000 0.000000 1.000000
outer loop
vertex -1.000000 -2.625000 0.000000
vertex 0.008249 -2.616750 0.000000
vertex -1.000000 -2.613333 0.000000
endloop
endfacet
facet normal 0.000000 0.000000 -1.000000
outer loop
vertex -0.000000 -2.625000 -2.200000
vertex -1.000000 -2.625000 -2.200000
vertex -1.000000 -2.613333 -2.200000
endloop
endfacet
facet normal 0.000000 0.000000 -1.000000
outer loop
vertex -0.000000 -2.625000 -2.200000
vertex -1.000000 -2.613333 -2.200000
vertex 0.008249 -2.616750 -2.200000
endloop
endfacet
endsolid Exported from Blender-3.2.0
