solid Exported from Blender-3.2.0
facet normal 0.000000 0.000000 -1.000000
outer loop
vertex -0.264252 3.825000 -0.300000
vertex 0.264252 3.825000 -0.300000
vertex 0.334252 0.675000 -0.300000
endloop
endfacet
facet normal 0.000000 0.000000 -1.000000
outer loop
vertex -0.264252 3.825000 -0.300000
vertex 0.334252 0.675000 -0.300000
vertex -0.334252 0.675000 -0.300000
endloop
endfacet
facet normal -0.999753 0.022217 -0.000000
outer loop
vertex -0.485074 0.671650 -0.210000
vertex -0.485074 0.671650 0.179210
vertex -0.414926 3.828350 0.052942
endloop
endfacet
facet normal -0.999753 0.022217 0.000000
outer loop
vertex -0.485074 0.671650 -0.210000
vertex -0.414926 3.828350 0.052942
vertex -0.414926 3.828350 -0.210000
endloop
endfacet
facet normal 0.000000 -1.000000 0.000000
outer loop
vertex 0.350000 0.000000 -0.210000
vertex 0.350000 0.000000 0.210000
vertex -0.350000 0.000000 0.210000
endloop
endfacet
facet normal 0.000000 -1.000000 0.000000
outer loop
vertex 0.350000 0.000000 -0.210000
vertex -0.350000 0.000000 0.210000
vertex -0.350000 0.000000 -0.210000
endloop
endfacet
facet normal 0.000000 0.039968 0.999201
outer loop
vertex 0.263681 3.853467 0.145861
vertex -0.263681 3.853467 0.145861
vertex -0.334946 0.646533 0.274139
endloop
endfacet
facet normal 0.000000 0.039968 0.999201
outer loop
vertex 0.263681 3.853467 0.145861
vertex -0.334946 0.646533 0.274139
vertex 0.334946 0.646533 0.274139
endloop
endfacet
facet normal 0.999753 0.022217 0.000000
outer loop
vertex 0.414926 3.828350 -0.210000
vertex 0.414926 3.828350 0.052942
vertex 0.485074 0.671650 0.179210
endloop
endfacet
facet normal 0.999753 0.022217 0.000000
outer loop
vertex 0.414926 3.828350 -0.210000
vertex 0.485074 0.671650 0.179210
vertex 0.485074 0.671650 -0.210000
endloop
endfacet
facet normal 0.443433 0.333472 0.831964
outer loop
vertex 0.250000 4.500000 0.030000
vertex 0.253749 4.315837 0.101819
vertex 0.342648 4.221436 0.092275
endloop
endfacet
facet normal 0.622180 0.362101 0.694100
outer loop
vertex 0.250000 4.500000 0.030000
vertex 0.342648 4.221436 0.092275
vertex 0.360695 4.298077 0.036115
endloop
endfacet
facet normal 0.260689 0.084113 0.961752
outer loop
vertex 0.263681 3.853467 0.145861
vertex 0.370369 3.840909 0.118041
vertex 0.342648 4.221436 0.092275
endloop
endfacet
facet normal 0.207691 0.097177 0.973356
outer loop
vertex 0.263681 3.853467 0.145861
vertex 0.342648 4.221436 0.092275
vertex 0.253749 4.315837 0.101819
endloop
endfacet
facet normal 0.886881 0.118388 0.446571
outer loop
vertex 0.414926 3.828350 0.052942
vertex 0.360695 4.298077 0.036115
vertex 0.342648 4.221436 0.092275
endloop
endfacet
facet normal 0.829957 0.097651 0.549213
outer loop
vertex 0.414926 3.828350 0.052942
vertex 0.342648 4.221436 0.092275
vertex 0.370369 3.840909 0.118041
endloop
endfacet
facet normal 0.185651 0.058232 -0.980889
outer loop
vertex 0.264252 3.825000 -0.300000
vertex 0.254035 4.301603 -0.273640
vertex 0.342768 4.215419 -0.261962
endloop
endfacet
facet normal 0.239526 0.046315 -0.969784
outer loop
vertex 0.264252 3.825000 -0.300000
vertex 0.342768 4.215419 -0.261962
vertex 0.370655 3.826675 -0.273640
endloop
endfacet
facet normal 0.575558 0.324665 -0.750550
outer loop
vertex 0.250000 4.500000 -0.210000
vertex 0.360577 4.303972 -0.210000
vertex 0.342768 4.215419 -0.261962
endloop
endfacet
facet normal 0.394502 0.287932 -0.872618
outer loop
vertex 0.250000 4.500000 -0.210000
vertex 0.342768 4.215419 -0.261962
vertex 0.254035 4.301603 -0.273640
endloop
endfacet
facet normal 0.817609 0.075797 -0.570762
outer loop
vertex 0.414926 3.828350 -0.210000
vertex 0.370655 3.826675 -0.273640
vertex 0.342768 4.215419 -0.261962
endloop
endfacet
facet normal 0.876410 0.100146 -0.471038
outer loop
vertex 0.414926 3.828350 -0.210000
vertex 0.342768 4.215419 -0.261962
vertex 0.360577 4.303972 -0.210000
endloop
endfacet
facet normal 0.833824 -0.016905 0.551771
outer loop
vertex 0.485074 0.671650 0.179210
vertex 0.441076 0.659091 0.245314
vertex 0.430267 0.278565 0.249990
endloop
endfacet
facet normal 0.892316 -0.043510 0.449309
outer loop
vertex 0.485074 0.671650 0.179210
vertex 0.430267 0.278565 0.249990
vertex 0.451721 0.201924 0.199961
endloop
endfacet
facet normal 0.208669 -0.010125 0.977934
outer loop
vertex 0.334946 0.646533 0.274139
vertex 0.345564 0.184163 0.267086
vertex 0.430267 0.278565 0.249990
endloop
endfacet
facet normal 0.261614 0.004428 0.965163
outer loop
vertex 0.334946 0.646533 0.274139
vertex 0.430267 0.278565 0.249990
vertex 0.441076 0.659091 0.245314
endloop
endfacet
facet normal 0.639462 -0.286668 0.713379
outer loop
vertex 0.350000 0.000000 0.210000
vertex 0.451721 0.201924 0.199961
vertex 0.430267 0.278565 0.249990
endloop
endfacet
facet normal 0.454976 -0.253641 0.853617
outer loop
vertex 0.350000 0.000000 0.210000
vertex 0.430267 0.278565 0.249990
vertex 0.345564 0.184163 0.267086
endloop
endfacet
facet normal 0.879177 -0.061387 -0.472525
outer loop
vertex 0.485074 0.671650 -0.210000
vertex 0.451865 0.196028 -0.210000
vertex 0.430120 0.284581 -0.261962
endloop
endfacet
facet normal 0.819327 -0.039541 -0.571962
outer loop
vertex 0.485074 0.671650 -0.210000
vertex 0.430120 0.284581 -0.261962
vertex 0.440729 0.673325 -0.273640
endloop
endfacet
facet normal 0.396448 -0.271732 -0.876921
outer loop
vertex 0.350000 0.000000 -0.210000
vertex 0.345217 0.198397 -0.273640
vertex 0.430120 0.284581 -0.261962
endloop
endfacet
facet normal 0.580204 -0.301499 -0.756612
outer loop
vertex 0.350000 0.000000 -0.210000
vertex 0.430120 0.284581 -0.261962
vertex 0.451865 0.196028 -0.210000
endloop
endfacet
facet normal 0.239631 -0.035685 -0.970208
outer loop
vertex 0.334252 0.675000 -0.300000
vertex 0.440729 0.673325 -0.273640
vertex 0.430120 0.284581 -0.261962
endloop
endfacet
facet normal 0.185734 -0.050003 -0.981327
outer loop
vertex 0.334252 0.675000 -0.300000
vertex 0.430120 0.284581 -0.261962
vertex 0.345217 0.198397 -0.273640
endloop
endfacet
facet normal -0.622180 0.362101 0.694100
outer loop
vertex -0.250000 4.500000 0.030000
vertex -0.360695 4.298077 0.036115
vertex -0.342648 4.221436 0.092275
endloop
endfacet
facet normal -0.443433 0.333472 0.831964
outer loop
vertex -0.250000 4.500000 0.030000
vertex -0.342648 4.221436 0.092275
vertex -0.253749 4.315837 0.101819
endloop
endfacet
facet normal -0.829957 0.097651 0.549213
outer loop
vertex -0.414926 3.828350 0.052942
vertex -0.370369 3.840909 0.118041
vertex -0.342648 4.221436 0.092275
endloop
endfacet
facet normal -0.886881 0.118388 0.446571
outer loop
vertex -0.414926 3.828350 0.052942
vertex -0.342648 4.221436 0.092275
vertex -0.360695 4.298077 0.036115
endloop
endfacet
facet normal -0.207691 0.097177 0.973356
outer loop
vertex -0.263681 3.853467 0.145861
vertex -0.253749 4.315837 0.101819
vertex -0.342648 4.221436 0.092275
endloop
endfacet
facet normal -0.260689 0.084113 0.961752
outer loop
vertex -0.263681 3.853467 0.145861
vertex -0.342648 4.221436 0.092275
vertex -0.370369 3.840909 0.118041
endloop
endfacet
facet normal -0.876410 0.100146 -0.471037
outer loop
vertex -0.414926 3.828350 -0.210000
vertex -0.360577 4.303972 -0.210000
vertex -0.342768 4.215420 -0.261962
endloop
endfacet
facet normal -0.817609 0.075797 -0.570763
outer loop
vertex -0.414926 3.828350 -0.210000
vertex -0.342768 4.215420 -0.261962
vertex -0.370655 3.826675 -0.273640
endloop
endfacet
facet normal -0.394503 0.287932 -0.872618
outer loop
vertex -0.250000 4.500000 -0.210000
vertex -0.254035 4.301604 -0.273640
vertex -0.342768 4.215420 -0.261962
endloop
endfacet
facet normal -0.575557 0.324666 -0.750550
outer loop
vertex -0.250000 4.500000 -0.210000
vertex -0.342768 4.215420 -0.261962
vertex -0.360577 4.303972 -0.210000
endloop
endfacet
facet normal -0.239526 0.046315 -0.969785
outer loop
vertex -0.264252 3.825000 -0.300000
vertex -0.370655 3.826675 -0.273640
vertex -0.342768 4.215420 -0.261962
endloop
endfacet
facet normal -0.185651 0.058232 -0.980889
outer loop
vertex -0.264252 3.825000 -0.300000
vertex -0.342768 4.215420 -0.261962
vertex -0.254035 4.301604 -0.273640
endloop
endfacet
facet normal -0.892316 -0.043510 0.449308
outer loop
vertex -0.485074 0.671650 0.179210
vertex -0.451721 0.201924 0.199961
vertex -0.430267 0.278565 0.249990
endloop
endfacet
facet normal -0.833824 -0.016905 0.551772
outer loop
vertex -0.485074 0.671650 0.179210
vertex -0.430267 0.278565 0.249990
vertex -0.441076 0.659092 0.245314
endloop
endfacet
facet normal -0.454976 -0.253641 0.853618
outer loop
vertex -0.350000 0.000000 0.210000
vertex -0.345564 0.184163 0.267086
vertex -0.430267 0.278565 0.249990
endloop
endfacet
facet normal -0.639462 -0.286668 0.713379
outer loop
vertex -0.350000 0.000000 0.210000
vertex -0.430267 0.278565 0.249990
vertex -0.451721 0.201924 0.199961
endloop
endfacet
facet normal -0.261614 0.004428 0.965163
outer loop
vertex -0.334946 0.646533 0.274139
vertex -0.441076 0.659092 0.245314
vertex -0.430267 0.278565 0.249990
endloop
endfacet
facet normal -0.208669 -0.010125 0.977934
outer loop
vertex -0.334946 0.646533 0.274139
vertex -0.430267 0.278565 0.249990
vertex -0.345564 0.184163 0.267086
endloop
endfacet
facet normal -0.185734 -0.050003 -0.981327
outer loop
vertex -0.334252 0.675000 -0.300000
vertex -0.345217 0.198397 -0.273640
vertex -0.430120 0.284581 -0.261962
endloop
endfacet
facet normal -0.239631 -0.035685 -0.970208
outer loop
vertex -0.334252 0.675000 -0.300000
vertex -0.430120 0.284581 -0.261962
vertex -0.440729 0.673325 -0.273640
endloop
endfacet
facet normal -0.580204 -0.301499 -0.756612
outer loop
vertex -0.350000 0.000000 -0.210000
vertex -0.451865 0.196028 -0.210000
vertex -0.430120 0.284581 -0.261962
endloop
endfacet
facet normal -0.396448 -0.271732 -0.876921
outer loop
vertex -0.350000 0.000000 -0.210000
vertex -0.430120 0.284581 -0.261962
vertex -0.345217 0.198397 -0.273640
endloop
endfacet
facet normal -0.819327 -0.039541 -0.571962
outer loop
vertex -0.485074 0.671650 -0.210000
vertex -0.440729 0.673325 -0.273640
vertex -0.430120 0.284581 -0.261962
endloop
endfacet
facet normal -0.879177 -0.061387 -0.472525
outer loop
vertex -0.485074 0.671650 -0.210000
vertex -0.430120 0.284581 -0.261962
vertex -0.451865 0.196028 -0.210000
endloop
endfacet
facet normal -0.240389 0.005342 -0.970662
outer loop
vertex -0.264252 3.825000 -0.300000
vertex -0.334252 0.675000 -0.300000
vertex -0.440729 0.673325 -0.273640
endloop
endfacet
facet normal -0.240389 0.005342 -0.970662
outer loop
vertex -0.264252 3.825000 -0.300000
vertex -0.440729 0.673325 -0.273640
vertex -0.370655 3.826675 -0.273640
endloop
endfacet
facet normal -0.820545 0.018234 -0.571291
outer loop
vertex -0.370655 3.826675 -0.273640
vertex -0.440729 0.673325 -0.273640
vertex -0.485074 0.671650 -0.210000
endloop
endfacet
facet normal -0.820545 0.018234 -0.571291
outer loop
vertex -0.370655 3.826675 -0.273640
vertex -0.485074 0.671650 -0.210000
vertex -0.414926 3.828350 -0.210000
endloop
endfacet
facet normal 0.000000 0.055224 -0.998474
outer loop
vertex 0.264252 3.825000 -0.300000
vertex -0.264252 3.825000 -0.300000
vertex -0.254035 4.301604 -0.273640
endloop
endfacet
facet normal 0.000000 0.055224 -0.998474
outer loop
vertex 0.264252 3.825000 -0.300000
vertex -0.254035 4.301604 -0.273640
vertex 0.254035 4.301603 -0.273640
endloop
endfacet
facet normal 0.000000 0.305439 -0.952211
outer loop
vertex 0.254035 4.301603 -0.273640
vertex -0.254035 4.301604 -0.273640
vertex -0.250000 4.500000 -0.210000
endloop
endfacet
facet normal 0.000000 0.305442 -0.952211
outer loop
vertex 0.254035 4.301603 -0.273640
vertex -0.250000 4.500000 -0.210000
vertex 0.250000 4.500000 -0.210000
endloop
endfacet
facet normal 0.993535 0.113529 0.000000
outer loop
vertex 0.414926 3.828350 0.052942
vertex 0.414926 3.828350 -0.210000
vertex 0.360577 4.303972 -0.210000
endloop
endfacet
facet normal 0.993390 0.114769 0.002271
outer loop
vertex 0.414926 3.828350 0.052942
vertex 0.360577 4.303972 -0.210000
vertex 0.360695 4.298077 0.036115
endloop
endfacet
facet normal 0.870928 0.491280 0.011349
outer loop
vertex 0.360695 4.298077 0.036115
vertex 0.360577 4.303972 -0.210000
vertex 0.250000 4.500000 -0.210000
endloop
endfacet
facet normal 0.876880 0.480710 0.000000
outer loop
vertex 0.360695 4.298077 0.036115
vertex 0.250000 4.500000 -0.210000
vertex 0.250000 4.500000 0.030000
endloop
endfacet
facet normal -0.893080 -0.449898 0.000000
outer loop
vertex -0.350000 0.000000 -0.210000
vertex -0.350000 0.000000 0.210000
vertex -0.451721 0.201924 0.199961
endloop
endfacet
facet normal -0.887324 -0.461093 0.006942
outer loop
vertex -0.350000 0.000000 -0.210000
vertex -0.451721 0.201924 0.199961
vertex -0.451865 0.196028 -0.210000
endloop
endfacet
facet normal -0.997492 -0.070768 0.001368
outer loop
vertex -0.451865 0.196028 -0.210000
vertex -0.451721 0.201924 0.199961
vertex -0.485074 0.671650 0.179210
endloop
endfacet
facet normal -0.997571 -0.069654 -0.000000
outer loop
vertex -0.451865 0.196028 -0.210000
vertex -0.485074 0.671650 0.179210
vertex -0.485074 0.671650 -0.210000
endloop
endfacet
facet normal 0.887346 -0.461104 0.000000
outer loop
vertex 0.350000 0.000000 0.210000
vertex 0.350000 0.000000 -0.210000
vertex 0.451865 0.196028 -0.210000
endloop
endfacet
facet normal 0.893195 -0.449619 0.006779
outer loop
vertex 0.350000 0.000000 0.210000
vertex 0.451865 0.196028 -0.210000
vertex 0.451721 0.201924 0.199961
endloop
endfacet
facet normal 0.997570 -0.069654 0.001351
outer loop
vertex 0.451721 0.201924 0.199961
vertex 0.451865 0.196028 -0.210000
vertex 0.485074 0.671650 -0.210000
endloop
endfacet
facet normal 0.997489 -0.070828 0.000000
outer loop
vertex 0.451721 0.201924 0.199961
vertex 0.485074 0.671650 -0.210000
vertex 0.485074 0.671650 0.179210
endloop
endfacet
facet normal -0.870983 0.491312 0.000000
outer loop
vertex -0.250000 4.500000 0.030000
vertex -0.250000 4.500000 -0.210000
vertex -0.360577 4.303972 -0.210000
endloop
endfacet
facet normal -0.876684 0.480939 0.011099
outer loop
vertex -0.250000 4.500000 0.030000
vertex -0.360577 4.303972 -0.210000
vertex -0.360695 4.298077 0.036115
endloop
endfacet
facet normal -0.993532 0.113529 0.002242
outer loop
vertex -0.360695 4.298077 0.036115
vertex -0.360577 4.303972 -0.210000
vertex -0.414926 3.828350 -0.210000
endloop
endfacet
facet normal -0.993401 0.114689 0.000000
outer loop
vertex -0.360695 4.298077 0.036115
vertex -0.414926 3.828350 -0.210000
vertex -0.414926 3.828350 0.052942
endloop
endfacet
facet normal 0.000000 -0.015252 0.999884
outer loop
vertex 0.334946 0.646533 0.274139
vertex -0.334946 0.646533 0.274139
vertex -0.345564 0.184163 0.267086
endloop
endfacet
facet normal 0.000000 -0.015252 0.999884
outer loop
vertex 0.334946 0.646533 0.274139
vertex -0.345564 0.184163 0.267086
vertex 0.345564 0.184163 0.267086
endloop
endfacet
facet normal 0.000000 -0.296077 0.955164
outer loop
vertex 0.345564 0.184163 0.267086
vertex -0.345564 0.184163 0.267086
vertex -0.350000 0.000000 0.210000
endloop
endfacet
facet normal 0.000000 -0.296077 0.955164
outer loop
vertex 0.345564 0.184163 0.267086
vertex -0.350000 0.000000 0.210000
vertex 0.350000 0.000000 0.210000
endloop
endfacet
facet normal 0.256958 0.044326 0.965406
outer loop
vertex 0.263681 3.853467 0.145861
vertex 0.334946 0.646533 0.274139
vertex 0.441076 0.659091 0.245314
endloop
endfacet
facet normal 0.256958 0.044326 0.965405
outer loop
vertex 0.263681 3.853467 0.145861
vertex 0.441076 0.659091 0.245314
vertex 0.370369 3.840909 0.118041
endloop
endfacet
facet normal 0.828183 0.040763 0.558973
outer loop
vertex 0.370369 3.840909 0.118041
vertex 0.441076 0.659091 0.245314
vertex 0.485074 0.671650 0.179210
endloop
endfacet
facet normal 0.828183 0.040763 0.558974
outer loop
vertex 0.370369 3.840909 0.118041
vertex 0.485074 0.671650 0.179210
vertex 0.414926 3.828350 0.052942
endloop
endfacet
facet normal 0.000000 -0.055224 -0.998474
outer loop
vertex -0.334252 0.675000 -0.300000
vertex 0.334252 0.675000 -0.300000
vertex 0.345217 0.198397 -0.273640
endloop
endfacet
facet normal 0.000000 -0.055224 -0.998474
outer loop
vertex -0.334252 0.675000 -0.300000
vertex 0.345217 0.198397 -0.273640
vertex -0.345217 0.198397 -0.273640
endloop
endfacet
facet normal 0.000000 -0.305440 -0.952211
outer loop
vertex -0.345217 0.198397 -0.273640
vertex 0.345217 0.198397 -0.273640
vertex 0.350000 0.000000 -0.210000
endloop
endfacet
facet normal 0.000000 -0.305440 -0.952211
outer loop
vertex -0.345217 0.198397 -0.273640
vertex 0.350000 0.000000 -0.210000
vertex -0.350000 0.000000 -0.210000
endloop
endfacet
facet normal -0.256958 0.044326 0.965405
outer loop
vertex -0.334946 0.646533 0.274139
vertex -0.263681 3.853467 0.145861
vertex -0.370369 3.840909 0.118041
endloop
endfacet
facet normal -0.256958 0.044326 0.965405
outer loop
vertex -0.334946 0.646533 0.274139
vertex -0.370369 3.840909 0.118041
vertex -0.441076 0.659092 0.245314
endloop
endfacet
facet normal -0.828183 0.040763 0.558973
outer loop
vertex -0.441076 0.659092 0.245314
vertex -0.370369 3.840909 0.118041
vertex -0.414926 3.828350 0.052942
endloop
endfacet
facet normal -0.828183 0.040763 0.558973
outer loop
vertex -0.441076 0.659092 0.245314
vertex -0.414926 3.828350 0.052942
vertex -0.485074 0.671650 0.179210
endloop
endfacet
facet normal 0.000000 0.094825 0.995494
outer loop
vertex -0.263681 3.853467 0.145861
vertex 0.263681 3.853467 0.145861
vertex 0.253749 4.315837 0.101819
endloop
endfacet
facet normal 0.000000 0.094824 0.995494
outer loop
vertex -0.263681 3.853467 0.145861
vertex 0.253749 4.315837 0.101819
vertex -0.253749 4.315837 0.101819
endloop
endfacet
facet normal 0.000000 0.363323 0.931663
outer loop
vertex -0.253749 4.315837 0.101819
vertex 0.253749 4.315837 0.101819
vertex 0.250000 4.500000 0.030000
endloop
endfacet
facet normal 0.000000 0.363326 0.931662
outer loop
vertex -0.253749 4.315837 0.101819
vertex 0.250000 4.500000 0.030000
vertex -0.250000 4.500000 0.030000
endloop
endfacet
facet normal 0.240389 0.005342 -0.970662
outer loop
vertex 0.334252 0.675000 -0.300000
vertex 0.264252 3.825000 -0.300000
vertex 0.370655 3.826675 -0.273640
endloop
endfacet
facet normal 0.240389 0.005342 -0.970662
outer loop
vertex 0.334252 0.675000 -0.300000
vertex 0.370655 3.826675 -0.273640
vertex 0.440729 0.673325 -0.273640
endloop
endfacet
facet normal 0.820545 0.018234 -0.571291
outer loop
vertex 0.440729 0.673325 -0.273640
vertex 0.370655 3.826675 -0.273640
vertex 0.414926 3.828350 -0.210000
endloop
endfacet
facet normal 0.820545 0.018234 -0.571291
outer loop
vertex 0.440729 0.673325 -0.273640
vertex 0.414926 3.828350 -0.210000
vertex 0.485074 0.671650 -0.210000
endloop
endfacet
facet normal 0.000000 1.000000 0.000000
outer loop
vertex -0.250000 4.500000 -0.210000
vertex -0.250000 4.500000 0.030000
vertex 0.250000 4.500000 0.030000
endloop
endfacet
facet normal 0.000000 1.000000 0.000000
outer loop
vertex -0.250000 4.500000 -0.210000
vertex 0.250000 4.500000 0.030000
vertex 0.250000 4.500000 -0.210000
endloop
endfacet
endsolid Exported from Blender-3.2.0
